<svg width="192" height="122" viewBox="0 0 192 122" fill="none" xmlns="http://www.w3.org/2000/svg">
<path d="M42.1454 3.64532C42.1454 5.01197 41.7468 6.13186 40.9496 7.005C40.1903 7.87814 39.1463 8.46656 37.8177 8.77026C35.6918 9.22581 33.5089 9.47257 31.2691 9.51053C29.0673 9.51053 26.8844 9.56747 24.7206 9.68136V20.9562C24.7206 30.5228 25.0053 40.0704 25.5747 49.599C26.1821 59.0896 27.1502 68.5992 28.4789 78.1278C28.5928 78.6973 28.7066 79.2667 28.8205 79.8361C28.9724 80.4056 29.0483 80.975 29.0483 81.5444C29.0483 82.4556 28.8016 83.1199 28.308 83.5375C27.8525 83.9551 27.1881 84.1639 26.315 84.1639C25.6317 84.1639 24.7775 84.069 23.7525 83.8791C22.7655 83.7273 21.9873 83.4805 21.4178 83.1389C20.6586 82.6833 20.1651 82.2278 19.9373 81.7722C19.7475 81.2787 19.5956 80.6333 19.4818 79.8361C19.0642 77.1408 18.7794 74.4455 18.6276 71.7501C18.4757 69.0548 18.3049 66.3594 18.1151 63.6641C17.6595 57.8938 17.2799 52.1425 16.9762 46.4101C16.6725 40.6778 16.5207 34.9264 16.5207 29.1561C16.5207 26.0053 16.5397 22.8733 16.5776 19.7604C16.6156 16.6475 16.6346 13.4776 16.6346 10.2508C14.2809 10.4786 11.9082 10.7063 9.51658 10.9341C7.16291 11.1619 4.79025 11.2758 2.39861 11.2758C1.82917 11.2758 1.37362 11.1429 1.03196 10.8772C0.65233 10.5735 0.462517 10.1369 0.462517 9.56747C0.462517 8.23878 0.899086 7.21379 1.77222 6.49251C2.64536 5.73326 3.68933 5.20178 4.90413 4.89808C6.84022 4.48049 8.81428 4.21475 10.8263 4.10087C12.8383 3.94902 14.8503 3.7592 16.8623 3.53143C16.8623 3.1518 16.8813 2.79116 16.9193 2.4495C16.9572 2.06987 17.0332 1.74719 17.1471 1.48145C17.2989 1.17775 17.5077 0.930994 17.7734 0.741181C18.0392 0.551368 18.4188 0.456462 18.9123 0.456462C19.8234 0.456462 20.7535 0.665256 21.7026 1.08284C22.6516 1.50043 23.3919 2.08885 23.9234 2.8481L33.376 1.82311C34.2871 1.70923 35.1982 1.59534 36.1093 1.48145C37.0204 1.3296 37.9315 1.25368 38.8426 1.25368C39.2602 1.25368 39.6588 1.27266 40.0385 1.31062C40.4561 1.34858 40.8167 1.46247 41.1204 1.65228C41.4241 1.80413 41.6709 2.05089 41.8607 2.39255C42.0505 2.69625 42.1454 3.11384 42.1454 3.64532ZM72.6285 81.2597C72.6285 82.019 72.4387 82.5315 72.0591 82.7972C71.6795 83.1009 71.148 83.2528 70.4647 83.2528C68.6804 83.2528 67.3897 82.7782 66.5925 81.8292C65.8333 80.8801 65.2638 79.6273 64.8842 78.0709C64.7703 77.5394 64.6564 77.0079 64.5425 76.4765C64.4286 75.907 64.3337 75.3566 64.2578 74.8251C64.1819 74.3316 64.106 73.9899 64.03 73.8001C63.9541 73.6103 63.8782 73.2496 63.8023 72.7182C63.3467 73.8191 62.7773 74.9769 62.0939 76.1917C61.4486 77.3686 60.6893 78.4695 59.8162 79.4945C58.9431 80.4815 57.956 81.2977 56.8551 81.9431C55.7922 82.5884 54.6153 82.9111 53.3246 82.9111C51.9579 82.9111 50.8191 82.5884 49.908 81.9431C48.9969 81.2597 48.2756 80.4246 47.7441 79.4375C47.2506 78.4125 46.8899 77.2926 46.6622 76.0778C46.4724 74.863 46.3774 73.7052 46.3774 72.6043C46.3774 70.0228 46.6242 67.2326 47.1177 64.2335C47.6492 61.1965 48.3705 58.1785 49.2816 55.1795C50.1927 52.1425 51.2556 49.2383 52.4704 46.4671C53.6852 43.6578 55.0139 41.2092 56.4565 39.1213V39.1783L56.7982 38.6658C57.2158 38.0963 57.6903 37.4889 58.2218 36.8436C58.7912 36.1602 59.4555 35.8186 60.2148 35.8186C60.9361 35.8186 61.5625 36.1413 62.0939 36.7866C62.6254 37.394 63.005 38.0394 63.2328 38.7227C64.2198 38.9125 65.0171 39.1593 65.6245 39.463C66.2319 39.7287 66.7064 40.0704 67.0481 40.488C67.3897 40.9055 67.6175 41.3991 67.7314 41.9685C67.8453 42.5 67.9022 43.0884 67.9022 43.7338C67.9022 43.9995 67.9022 44.2842 67.9022 44.5879C67.9022 44.8916 67.8832 45.1953 67.8453 45.499C67.8073 45.8027 67.7883 46.1634 67.7883 46.5809C67.7883 46.9985 67.7883 47.3782 67.7883 47.7198C67.7883 48.0995 67.8453 48.593 67.9592 49.2004C68.111 49.8078 68.2629 50.4341 68.4147 51.0795L68.8133 53.1864C69.0031 54.2873 69.155 55.5401 69.2689 56.9447C69.4207 58.3493 69.5915 59.754 69.7814 61.1586C69.9332 62.6011 70.0851 64.0058 70.2369 65.3724C70.3888 66.7011 70.5406 67.9349 70.6925 69.0738L72.0591 77.5014L72.2299 78.4695C72.3059 78.963 72.3818 79.4185 72.4577 79.8361C72.5716 80.2537 72.6285 80.7283 72.6285 81.2597ZM59.5884 48.517C59.5884 48.4411 59.5694 48.3272 59.5315 48.1754C59.4935 47.9856 59.4555 47.7958 59.4176 47.6059C58.5444 49.4661 57.7662 51.4971 57.0829 53.6989C56.4375 55.8628 55.8871 58.0836 55.4315 60.3614C55.0139 62.6011 54.6912 64.8599 54.4635 67.1377C54.2737 69.3775 54.1788 71.5034 54.1788 73.5154C54.1788 73.7052 54.1788 73.876 54.1788 74.0279C54.1788 74.1797 54.1977 74.3316 54.2357 74.4834V74.5404C55.1468 73.1357 55.925 71.2946 56.5704 69.0168C57.2537 66.7011 57.8232 64.2905 58.2787 61.7849C58.7343 59.2415 59.0569 56.7929 59.2468 54.4392C59.4745 52.0476 59.5884 50.0735 59.5884 48.517ZM94.684 67.1946C94.684 69.0168 94.665 70.6872 94.6271 72.2057C94.6271 73.7242 94.665 75.3945 94.741 77.2167L95.766 76.4765L96.3923 76.0778C98.2525 74.5973 99.8659 72.7941 101.233 70.6682C102.637 68.5043 103.795 66.2076 104.706 63.778C105.617 61.3484 106.282 58.8618 106.699 56.3183C107.155 53.7369 107.382 51.2883 107.382 48.9726C107.382 48.517 107.364 47.8907 107.326 47.0934C107.326 46.2583 107.25 45.4421 107.098 44.6449C106.946 43.8476 106.718 43.1643 106.414 42.5949C106.111 41.9875 105.674 41.6838 105.105 41.6838C104.194 41.6838 103.264 42.2342 102.314 43.3352C101.365 44.4361 100.473 45.7458 99.6381 47.2643C98.8409 48.7828 98.1196 50.3203 97.4743 51.8767C96.8289 53.3952 96.3544 54.591 96.0507 55.4642C96.0507 55.5021 96.0317 55.5211 95.9937 55.5211C95.9937 55.5211 95.9937 55.5401 95.9937 55.5781V55.635C95.766 56.1665 95.5192 56.7359 95.2535 57.3433C95.0257 57.9507 94.8738 58.5202 94.7979 59.0516C94.722 59.5831 94.665 60.1905 94.6271 60.8738C94.5891 61.5192 94.5701 62.2025 94.5701 62.9238C94.5701 63.3034 94.5701 63.6831 94.5701 64.0627C94.6081 64.4044 94.6271 64.727 94.6271 65.0307C94.6271 65.4483 94.6271 65.8469 94.6271 66.2266C94.665 66.5682 94.684 66.8909 94.684 67.1946ZM97.8159 119.241C97.8159 120.076 97.5882 120.646 97.1326 120.95C96.6771 121.253 96.0697 121.405 95.3104 121.405C94.3993 121.405 93.3933 121.253 92.2924 120.95C91.1915 120.684 90.3183 120.171 89.673 119.412C89.4832 119.146 89.2933 118.368 89.1035 117.077C88.9517 115.787 88.7998 114.268 88.648 112.522C88.4961 110.814 88.3633 109.029 88.2494 107.169C88.1355 105.347 88.0216 103.734 87.9077 102.329L87.6799 99.3109C87.2244 91.1869 86.9966 83.063 86.9966 74.939C86.9966 70.1936 87.0725 65.5432 87.2244 60.9877C87.4142 56.3943 87.604 51.7439 87.7938 47.0365L88.0216 41.0574C88.0216 40.45 88.0216 39.8616 88.0216 39.2921C88.0596 38.6847 88.1355 38.0963 88.2494 37.5269C88.4392 37.0334 88.667 36.6537 88.9327 36.388C89.2364 36.0843 89.7109 35.9325 90.3563 35.9325C91.9887 35.9325 93.1845 36.426 93.9438 37.413C94.703 38.3621 95.1396 39.5389 95.2535 40.9435C96.4683 39.2732 97.9108 37.9445 99.5812 36.9574C101.29 35.9704 103.245 35.4769 105.446 35.4769C107.307 35.4769 108.863 35.8945 110.116 36.7297C111.407 37.5648 112.432 38.6468 113.191 39.9755C113.95 41.2662 114.481 42.7278 114.785 44.3601C115.127 45.9546 115.298 47.53 115.298 49.0865C115.298 52.0855 115.032 55.0846 114.5 58.0836C113.969 61.0447 113.134 63.9298 111.995 66.7391C110.894 69.5103 109.489 72.1487 107.781 74.6542C106.073 77.1218 104.061 79.3236 101.745 81.2597C101.441 81.5255 101.081 81.8102 100.663 82.1139C100.246 82.4176 99.809 82.7023 99.3534 82.968C98.8979 83.2338 98.4233 83.4616 97.9298 83.6514C97.4743 83.8412 97.0567 83.9361 96.6771 83.9361C96.2595 83.9361 95.8988 83.8412 95.5951 83.6514C95.2914 83.4616 95.0257 83.2338 94.7979 82.968C94.8738 85.5875 94.9687 88.3018 95.0826 91.111C95.2345 93.9202 95.4053 96.7295 95.5951 99.5387C95.7849 102.386 96.0127 105.195 96.2784 107.966C96.5821 110.738 96.9428 113.414 97.3604 115.995C97.4743 116.489 97.5692 117.001 97.6451 117.533C97.759 118.102 97.8159 118.672 97.8159 119.241ZM173.815 33.5978C172.904 34.5468 172.05 35.401 171.253 36.1602C170.494 36.8815 169.734 37.5838 168.975 38.2672C168.254 38.9505 167.495 39.6528 166.697 40.3741C165.938 41.0574 165.084 41.8356 164.135 42.7088C163.793 43.0504 163.414 43.3352 162.996 43.5629C162.616 43.7527 162.199 43.8476 161.743 43.8476C161.326 43.8476 160.794 43.7338 160.149 43.506C159.504 43.2402 158.877 42.9176 158.27 42.5379C157.7 42.1583 157.207 41.7407 156.789 41.2852C156.372 40.7917 156.163 40.3171 156.163 39.8616C156.163 39.444 156.239 39.1213 156.391 38.8935C156.58 38.6278 156.77 38.3431 156.96 38.0394C157.112 37.8875 157.397 37.6408 157.814 37.2991C158.27 36.9195 158.801 36.5019 159.409 36.0463C160.016 35.5528 160.661 35.0403 161.345 34.5089C162.066 33.9394 162.787 33.37 163.509 32.8005C165.179 31.5478 167.02 30.1432 169.032 28.5867C167.096 27.9034 165.331 27.239 163.736 26.5937C163.053 26.3279 162.37 26.0622 161.686 25.7965C161.041 25.4928 160.434 25.227 159.864 24.9992C159.295 24.7335 158.801 24.5057 158.384 24.3159C157.966 24.0881 157.681 23.9173 157.529 23.8034C156.96 23.3858 156.523 22.9682 156.22 22.5507C155.954 22.0951 155.821 21.5257 155.821 20.8423C155.821 20.4627 155.897 19.9692 156.049 19.3618C156.201 18.7544 156.41 18.166 156.675 17.5965C156.979 16.9891 157.321 16.4767 157.7 16.0591C158.118 15.6035 158.554 15.3757 159.01 15.3757C159.504 15.3757 160.339 15.6984 161.516 16.3438C162.692 16.9512 163.888 17.6345 165.103 18.3938C166.546 19.3049 168.083 20.3109 169.715 21.4118C169.564 19.7794 169.431 18.2039 169.317 16.6854C169.203 15.3568 169.108 14.0091 169.032 12.6424C168.956 11.2378 168.918 10.061 168.918 9.11192C168.918 8.35267 169.07 7.76425 169.374 7.34666C169.715 6.92908 170.285 6.72028 171.082 6.72028C171.727 6.72028 172.411 6.77723 173.132 6.89111C173.891 7.005 174.575 7.21379 175.182 7.51749C175.827 7.82119 176.34 8.23878 176.72 8.77026C177.137 9.26377 177.346 9.90913 177.346 10.7063C177.346 11.5795 177.327 12.6614 177.289 13.9521C177.289 15.2049 177.289 16.4387 177.289 17.6535C177.251 19.0581 177.232 20.5007 177.232 21.9812C179.054 20.5007 180.744 19.191 182.3 18.0521C182.945 17.5586 183.591 17.0841 184.236 16.6285C184.919 16.173 185.546 15.7743 186.115 15.4327C186.723 15.0531 187.235 14.7683 187.653 14.5785C188.108 14.3508 188.431 14.2369 188.621 14.2369C189.076 14.2369 189.494 14.4646 189.874 14.9202C190.253 15.3378 190.576 15.8503 190.842 16.4577C191.145 17.0271 191.373 17.6155 191.525 18.2229C191.715 18.8303 191.81 19.3238 191.81 19.7035C191.81 20.9942 191.24 21.9812 190.101 22.6645C189.912 22.7784 189.589 22.9682 189.133 23.234C188.716 23.4618 188.222 23.7275 187.653 24.0312C187.083 24.3349 186.457 24.6576 185.774 24.9992C185.09 25.3409 184.407 25.6826 183.724 26.0242C182.129 26.8214 180.383 27.6756 178.485 28.5867C180.535 30.1432 182.395 31.5478 184.065 32.8005C184.787 33.37 185.489 33.9394 186.172 34.5089C186.894 35.0403 187.539 35.5528 188.108 36.0463C188.716 36.5019 189.228 36.9195 189.646 37.2991C190.101 37.6408 190.405 37.8875 190.557 38.0394C190.785 38.3431 190.993 38.6278 191.183 38.8935C191.373 39.1213 191.468 39.444 191.468 39.8616C191.468 40.3171 191.24 40.7917 190.785 41.2852C190.367 41.7407 189.855 42.1583 189.247 42.5379C188.678 42.9176 188.07 43.2402 187.425 43.506C186.78 43.7338 186.267 43.8476 185.888 43.8476C185.356 43.8476 184.882 43.7527 184.464 43.5629C184.084 43.3352 183.724 43.0504 183.382 42.7088C182.433 41.8356 181.56 41.0574 180.763 40.3741C180.003 39.6528 179.244 38.9505 178.485 38.2672C177.764 37.5838 177.023 36.8815 176.264 36.1602C175.505 35.401 174.689 34.5468 173.815 33.5978Z" fill="black"/>
</svg>
