<svg width="131" height="28" viewBox="0 0 131 28" fill="none" xmlns="http://www.w3.org/2000/svg">
<path d="M42.1999 2.53333C39.7999 4 37.5332 5.73333 37.1332 6.53333C36.5999 7.33333 33.6665 7.6 29.6665 7.06667C20.8665 6 12.5999 9.2 6.46653 16.1333C3.79986 18.9333 1.66653 21.8667 1.66653 22.5333C1.66653 23.2 1.26653 24.6667 0.866526 25.8667C0.0665257 27.7333 6.33319 28 65.1332 28H130.333L126.067 23.8667C123.8 21.6 119 18.6667 115.533 17.4667C109.533 15.4667 109 14.9333 108.733 10.6667C108.467 4.93333 103.267 -1.46031e-06 97.5332 -1.46031e-06C92.7332 -1.46031e-06 85.6665 6.26667 85.6665 10.5333C85.6665 12.9333 84.9999 13.0667 78.0665 12.4C71.5332 11.7333 69.7999 11.0667 67.1332 7.73333C60.9999 0.133332 49.9332 -2.13333 42.1999 2.53333ZM60.3332 4.66667C62.4665 5.86667 65.2665 8.53333 66.4665 10.8C68.3332 14.4 69.1332 14.9333 72.8665 14.2667C75.1332 13.8667 79.3999 14.4 82.3332 15.4667C85.2665 16.4 87.7999 17.3333 87.9332 17.3333C87.9332 17.3333 88.0665 15.2 87.9332 12.6667C87.7999 6.66667 91.3999 2.66667 97.2665 2.66667C103.8 2.66667 107.533 6.93333 106.6 13.4667C105.933 18.6667 105.933 18.6667 110.467 18.6667C115.533 18.6667 121.533 21.2 124.2 24.5333C125.8 26.5333 120.2 26.6667 64.4665 26.6667C30.7332 26.6667 2.99986 26.1333 2.99986 25.4667C2.99986 23.0667 9.26652 15.2 13.6665 12.2667C17.6665 9.6 19.6665 9.2 27.1332 9.6C34.9999 9.86667 36.3332 9.6 40.1999 6.26667C45.2665 2 53.9332 1.33333 60.3332 4.66667Z" fill="#8C8C8C"/>
</svg>
