<svg width="126" height="42" viewBox="0 0 126 42" fill="none" xmlns="http://www.w3.org/2000/svg">
<path d="M61.3333 5.73333C56.8 10.1333 55.6 10.6667 50.9333 10.2667C43.7333 9.6 36.5333 13.2 33.0667 19.2C30.6667 23.4667 29.7333 24 25.8667 23.6C17.2 22.5333 6.13333 28.6667 2 36.8C0.933333 38.8 0 40.8 0 41.3333C0 41.7333 28.1333 42 62.5333 42H125.2L123.733 38C122 32.9333 111.733 23.7333 106.533 22.6667C103.6 22 102.667 21.0667 102.667 18.6667C102.667 15.2 95.7333 8.66666 92 8.66666C90.8 8.66666 88.9333 7.73333 87.8667 6.53333C84.9333 2.93333 79.0667 0.666665 72.5333 0.666665C67.2 0.666665 65.7333 1.33333 61.3333 5.73333ZM83.8667 6.4C85.7333 8.26666 89.2 10.1333 91.4667 10.6667C96.4 11.6 99.7333 14.9333 101.067 20C101.867 22.6667 103.467 24.1333 107.333 25.4667C110.267 26.4 114.667 29.3333 117.067 31.8667C125.467 41.0667 128 40.6667 62 40.6667C24.8 40.6667 2.66667 40.1333 2.66667 39.3333C2.66667 36.6667 11.0667 28.8 15.3333 27.3333C17.8667 26.5333 22.8 26 26.1333 26.1333C31.7333 26.5333 32.5333 26.2667 33.6 23.3333C36.5333 15.2 45.3333 10.4 52.9333 12.5333C56.6667 13.6 57.4667 13.3333 59.3333 10.5333C65.0667 1.73333 76.8 -0.266669 83.8667 6.4Z" fill="#8C8C8C"/>
</svg>
