<svg width="195" height="151" viewBox="0 0 195 151" fill="none" xmlns="http://www.w3.org/2000/svg">
<path fill-rule="evenodd" clip-rule="evenodd" d="M73.2288 18.1051C56.7228 20.0241 37.2578 25.8651 28.3028 31.5871C19.4148 37.2651 19.4248 37.2251 20.7938 59.3701C21.4448 69.8921 22.6808 83.9001 23.5408 90.5001C25.8508 108.225 30.8908 127.239 30.9628 118.5C30.9758 116.85 30.5338 112.8 29.9798 109.5C26.6198 89.5031 22.7568 45.0001 24.3798 45.0001C24.7528 45.0001 27.6328 46.0761 30.7788 47.3911C43.5258 52.7191 65.9168 55.5151 82.9988 53.9121C102.734 52.0591 116.261 48.5781 128.269 42.2621C131.146 40.7491 133.907 39.3351 134.406 39.1201C135.684 38.5681 134.45 65.9131 132.538 80.5001C131.673 87.1001 130.044 98.0341 128.919 104.797C127.793 111.56 127.048 118.085 127.264 119.297C127.609 121.243 127.838 121.091 129.222 118C130.084 116.075 131.537 110.675 132.45 106C134.775 94.1031 134.451 94.6651 137.931 96.4651C142.151 98.6471 151.461 98.3881 158.881 95.8821C169.982 92.1341 178.711 83.5371 180.967 74.1321C183.487 63.6291 177.27 52.0441 165.954 46.1551C160.222 43.1721 158.857 42.8531 153.769 43.3011C150.311 43.6061 146.265 44.7981 143.566 46.3071L139.093 48.8071L138.454 44.1531C136.779 31.9341 135.357 29.9211 124.999 25.1011C110.325 18.2741 92.4968 15.8641 73.2288 18.1051ZM69.7348 22.0221C54.1728 24.4781 36.0598 30.2101 27.6088 35.3531L23.7188 37.7201L25.8588 39.8601C28.7438 42.7451 30.4798 42.5781 39.2718 38.5721C66.9748 25.9471 101.146 24.9661 122.204 36.1901L128.114 39.3401L130.806 36.6141C133.469 33.9201 133.476 33.8721 131.499 32.3561C127.99 29.6671 118.747 25.9301 110.499 23.8671C101.325 21.5711 78.9948 20.5601 69.7348 22.0221ZM144.499 49.7731C139.678 52.4021 139.488 52.6721 139.192 57.3051L138.885 62.1101L141.892 60.5551C155.198 53.6751 167.725 58.3811 167.353 70.1221C167.16 76.1911 165.842 78.4311 160.731 81.3731C154.441 84.9921 149.362 85.4971 142.718 83.1621C139.647 82.0821 136.878 81.4541 136.566 81.7661C136.254 82.0781 135.999 84.2731 135.999 86.6441C135.999 92.5071 138.609 94.1921 147.581 94.1231C152.832 94.0831 155.614 93.4331 160.687 91.0591C170.26 86.5791 172.994 84.2521 175.745 78.2431C178.951 71.2411 178.518 64.9961 174.36 58.2561C167.833 47.6731 155.023 44.0341 144.499 49.7731ZM143.499 63.7731C138.596 66.4471 138.493 66.6001 138.201 71.6371L137.902 76.7751L142.266 78.8871C147.635 81.4861 152.216 81.5381 157.668 79.0631C164.759 75.8441 166.273 69.1201 161.076 63.9231C157.104 59.9511 150.609 59.8961 143.499 63.7731ZM115.499 128.072C88.8268 141.202 61.4148 141.139 40.4988 127.899C36.7698 125.538 34.1438 124.455 33.5618 125.037C30.9668 127.631 45.5788 136.465 57.4588 139.485C65.3568 141.493 83.8738 141.455 93.7908 139.412C107.574 136.572 124.751 128.694 126.373 124.469C127.165 122.405 126.696 122.56 115.499 128.072Z" fill="white"/>
</svg>
