<svg width="131" height="36" viewBox="0 0 131 36" fill="none" xmlns="http://www.w3.org/2000/svg">
<path d="M61.8667 3.19998C54.8 6.39998 46.8 15.8666 45.7333 22.2666C44.9333 27.3333 44.9333 27.3333 39.2 26.9333C34.8 26.5333 32.6667 25.4666 30 22.2666C24.1333 15.2 14.9333 13.8666 7.06667 18.9333C3.86667 21.0666 0 28.4 0 32.5333V35.3333H65.3333C101.333 35.3333 130.667 34.9333 130.667 34.2666C130.667 31.7333 124.933 24.4 121.067 22C117.867 20 114.8 19.3333 109.6 19.6C102.667 19.8666 102.667 19.7333 98.8 13.7333C91.4667 2.26664 74.6667 -2.53336 61.8667 3.19998ZM81.7333 3.46664C88 5.19998 95.3333 11.4666 98.8 18.1333C101.2 22.9333 101.467 23.2 105.333 21.7333C111.6 19.6 118.667 21.6 123.6 26.9333C126 29.4666 128 32.1333 128 32.8C128 33.4666 103.067 34 65.3333 34H2.66667V30.5333C2.66667 28.4 4.4 25.3333 7.33333 22.4C11.7333 18 12.5333 17.7333 18.2667 18.4C24.1333 19.0666 29.0667 22.4 30.8 27.0666C31.0667 27.7333 34.8 28.6666 39.0667 29.0666C46.2667 29.7333 46.6667 29.6 46.6667 26.9333C46.8 18.1333 56.2667 6.93331 66.2667 3.73331C72.8 1.73331 75.4667 1.73331 81.7333 3.46664Z" fill="#8C8C8C"/>
</svg>
