<svg width="1067" height="1067" viewBox="0 0 1067 1067" fill="none" xmlns="http://www.w3.org/2000/svg">
<g clip-path="url(#clip0_39_43)">
<path d="M0 28.6666V57.3333H29.3333H58.6667V84.6666V112H29.3333H0V140.667V169.333H29.3333H58.6667V196.667V224H29.3333H0V252.667V281.333H29.3333H58.6667V308.667V336H29.3333H0V364.667V393.333H29.3333H58.6667V420.667V448H29.3333H0V476.667V505.333H29.3333H58.6667V532.667V560H29.3333H0L0.266667 588.933L0.666667 618L0.933333 589.6L1.33333 561.333H60.1333H118.8L118.4 589.333C118.133 607.333 118.533 617.333 119.333 617.333C120.133 617.333 120.533 607.333 120.267 589.333L119.867 561.333L178.267 561.6L236.667 562V589.733C236.667 604.933 237.067 617.333 237.733 617.333C238.267 617.333 238.667 604.667 238.667 589.333V561.333L287.067 561.067C313.6 560.933 326.8 560.533 316.4 560.4L297.333 559.867V532.667V505.333H356H414.533L415.067 519.6L415.467 534L415.733 519.6L416 505.333H474H532V532.667C532 553.6 531.6 560 530.4 560C529.067 560 529.067 560.267 530.4 561.2C532.133 562.267 542.667 561.733 543.867 560.533C544.133 560.267 542 560 539.067 560H533.733L533.6 536.267C533.467 523.333 533.733 511.067 534.133 508.933L534.933 505.333L569.067 505.067C587.867 504.933 601.067 504.667 598.267 504.4L593.333 503.867V476.533V449.333H652H710.667V476.667V504L669.733 504.267C647.067 504.4 633.6 504.8 639.733 504.933L650.667 505.467V533.333V561.333L663.067 561.067L675.333 560.8L663.733 560.4L652 559.867V532.667V505.333H710.667H769.333V532.667V560H751.067C741.067 560 733.2 560.267 733.6 560.667C733.867 561.067 782 561.333 840.4 561.333L946.667 561.467V589.333C946.667 604.8 947.067 617.333 947.733 617.333C948.267 617.333 948.667 604.933 948.667 589.733V562L1006.93 561.6L1065.33 561.333L1065.73 589.6L1066 618L1066.4 588.933L1066.67 560H1036.53H1006.27L1007.2 549.733C1007.6 544.133 1008 531.867 1008 522.4V505.333H1037.33H1066.67V476.667V448H1036.53H1006.27L1007.2 437.733C1007.6 432.133 1008 419.867 1008 410.4V393.333H1037.33H1066.67V364.667V336H1036.8C1014.13 336 1006.67 335.6 1006.27 334.267C1005.73 332.933 1005.47 332.933 1005.47 334.267C1005.33 335.6 992.8 336 947.333 336H889.333V308.667V281.333H978H1066.67V252.667V224H1036.4C1019.6 224 979.733 224 947.733 224H889.333V196.667V169.333H978H1066.67V140.667V112H1037.07C1020.67 112 980.8 112 948.4 112L889.333 112.133V84.6666V57.3333H978H1066.67V28.6666V-3.22312e-05H533.333H0V28.6666ZM118.667 28.6666V56H60H1.33333V28.6666V1.3333H60H118.667V28.6666ZM237.333 28L238.133 54L238.4 27.6L238.667 1.3333H296.667H354.667V28.6666V56H237.333H120V28.6666V1.3333L178.4 1.59997L236.667 1.99997L237.333 28ZM473.333 28.6666V56H414.667H356V28.6666V1.3333H414.667H473.333V28.6666ZM592 28.6666V56H533.333H474.667V28.6666V1.3333H533.333H592V28.6666ZM710.667 28.6666V56H652H593.333V28.6666V1.3333H652H710.667V28.6666ZM946.667 28.6666V56L888.4 55.7333L830 55.3333L829.733 29.4666C829.6 15.3333 829.067 3.3333 828.667 2.9333C828.267 2.5333 828 14.2666 828 29.0666V56H770H712V28.6666V1.3333H829.333H946.667V28.6666ZM1065.33 28.6666V56H1006.67H948V28.6666V1.3333H1006.67H1065.33V28.6666ZM177.333 84.6666V112H118.667H60V84.6666V57.3333H118.667H177.333V84.6666ZM296 84.6666V112H237.333H178.667V84.6666V57.3333H237.333H296V84.6666ZM414.933 82.9333L415.333 108.667L415.6 82.9333L416 57.3333H474H532V84.6666V112H474C429.733 112 416 111.6 416 110.4C416 109.2 415.6 109.2 414.4 110.4C413.2 111.6 398.133 112 355.067 112H297.333V84.6666V57.3333H356H414.667L414.933 82.9333ZM650.667 84.6666V112H592.8C560.933 112 534.533 111.6 534.267 110.933C534 110.4 534 98.1333 534.4 83.6L535.067 57.3333H592.8H650.667V84.6666ZM769.333 84.6666V112H710.667H652V84.6666V57.3333H710.667H769.333V84.6666ZM887.733 84.2666L887.333 111.333L829.067 111.733L770.667 112V84.6666V57.3333H829.333H888L887.733 84.2666ZM118.667 140.667V168H60H1.33333V140.667V113.333H60H118.667V140.667ZM237.067 140.267L236.667 167.333L178.4 167.733L120 168V140.667V113.333H178.667H237.333L237.067 140.267ZM354.667 140.667V168H296.667H238.667V140.667V113.333H296.667H354.667V140.667ZM473.333 140.667V168H414.667H356V140.667V113.333H414.667H473.333V140.667ZM592 140.667V168H533.333H474.667V140.667V113.333H533.333H592V140.667ZM710.667 140.667V168H652H593.333V140.667V113.333H652H710.667V140.667ZM828 140.667V168H770H712V140.667V113.333H770H828V140.667ZM946.667 140.667V168L888.4 167.733L830 167.333L829.6 142.133C829.467 128.267 829.6 116 829.867 115.067C830.4 113.733 841.867 113.333 888.667 113.333H946.667V140.667ZM1065.33 140.667V168H1006.67H948V140.667V113.333H1006.67H1065.33V140.667ZM177.333 196.667V224H118.667H60V196.667V169.333H118.667H177.333V196.667ZM296 196.667V224H237.333H178.667V196.667V169.333H237.333H296V196.667ZM414.933 195.6L415.333 222L415.6 195.6L416 169.333H474H532L532.267 195.6L532.533 222L533.333 196L534 170L592.4 169.6L650.667 169.333V196.667V224H474H297.333V196.667V169.333H356H414.667L414.933 195.6ZM769.333 196.667V224H710.667H652V196.667V169.333H710.667H769.333V196.667ZM888 196.667V224H829.333H770.667V196.667V169.333H829.333H888V196.667ZM118.667 252.667V280H60H1.33333V252.667V225.333H60H118.667V252.667ZM236.933 251.2C237.067 264.933 237.6 276.667 238 277.067C238.4 277.467 238.667 266 238.667 251.6V225.333H296.667H354.667V252.667V280H237.333H120V252.667V225.333L178.4 225.6L236.667 226L236.933 251.2ZM473.333 252.667V280H414.667H356V252.667V225.333H414.667H473.333V252.667ZM592 252.667V280H533.333H474.667V252.667V225.333H533.333H592V252.667ZM710.667 252.667V280H652H593.333V252.667V225.333H652H710.667V252.667ZM828 252.667V280H770H712V252.667V225.333H770H828V252.667ZM946.667 252.667V280H888H829.467V253.733C829.467 239.333 829.867 226.933 830.133 226.4C830.533 225.867 856.933 225.333 888.8 225.333H946.667V252.667ZM1065.33 252.667V280H1006.67H948V252.667V225.333H1006.67H1065.33V252.667ZM177.333 308.667V336H118.667H60V308.667V281.333H118.667H177.333V308.667ZM296 308.667V336H237.333H178.667V308.667V281.333H237.333H296V308.667ZM414.667 308.667V336H356H297.333V308.667V281.333H356H414.667V308.667ZM532 306.933C532 320.933 532.4 332 532.933 331.6C533.333 331.067 533.867 319.733 534 306.267L534.267 282L592.4 281.6L650.667 281.333V308.667V336H592C546 336 533.333 335.6 533.2 334.267C533.2 332.933 532.933 332.933 532.4 334.267C531.867 335.6 518.933 336 473.867 336H416V308.667V281.333H474H532V306.933ZM769.333 308.667V336H710.667H652V308.667V281.333H710.667H769.333V308.667ZM888 308.667V336H829.333H770.667V308.667V281.333H829.333H888V308.667ZM118.667 364.667V392H60H1.33333V364.667V337.333H60H118.667V364.667ZM237.333 361.333L238.133 384.667L238.4 360.933L238.667 337.333H296.667H354.667V364.667V392H237.333H120V364.667V337.333L178.4 337.6L236.667 338L237.333 361.333ZM473.333 364.667V392H414.667H356V365.6C356 351.067 356.4 338.667 356.933 338.267C357.333 337.733 383.733 337.333 415.6 337.333H473.333V364.667ZM592 364.667V392H533.333H474.667V364.667V337.333H533.333H592V364.667ZM710.667 364.667V392H652H593.333V364.667V337.333H652H710.667V364.667ZM828 364.667V392H770H712V364.667V337.333H770H828V364.667ZM946.667 364.667V392H888.133H829.6L829.467 365.867C829.333 351.6 829.6 339.2 830 338.533C830.533 337.867 854.667 337.333 888.8 337.333H946.667V364.667ZM1065.33 364.667V392H1006.67H948V364.667V337.333H1006.67H1065.33V364.667ZM177.333 420.667V448H118.667H60V420.667V393.333H118.667H177.333V420.667ZM296 420.667V448H237.333H178.667V420.667V393.333H237.333H296V420.667ZM414.667 420.667V448H356H297.333V420.667V393.333H356H414.667V420.667ZM532 420.667V448H474H416V420.667V393.333H474H532V420.667ZM650.667 420.667V448H592.133H533.467L534.133 420.933C534.4 406.133 534.667 393.867 534.667 393.6C534.667 393.467 560.8 393.333 592.667 393.333H650.667V420.667ZM769.333 420.667V448H710.667H652V420.667V393.333H710.667H769.333V420.667ZM888 420.667V448H829.333H770.667V420.667V393.333H829.333H888V420.667ZM1005.33 420.667V448H947.333H889.333V420.667V393.333H947.333H1005.33V420.667ZM118.667 476.667V504H60H1.33333V476.667V449.333H60H118.667V476.667ZM236.933 475.067C237.067 488.933 237.467 500.533 237.867 501.067C238.267 501.467 238.667 490 238.667 475.6V449.333H296.667H354.667V476.667V504H237.333H120V476.667V449.333L178.4 449.6L236.667 450L236.933 475.067ZM473.333 476.667V504H414.667H356V477.6C356 463.067 356.4 450.667 356.933 450.267C357.333 449.733 383.733 449.333 415.6 449.333H473.333V476.667ZM592 476.667V504H533.333H474.667V476.667V449.333H533.333H592V476.667ZM828 476.667V504H770H712V476.667V449.333H770H828V476.667ZM946.667 476.667V504H888.267H829.733L830.267 476.933C830.4 462.133 830.667 449.867 830.667 449.6C830.667 449.467 856.8 449.333 888.667 449.333H946.667V476.667ZM1065.33 476.667V504H1006.67H948V476.667V449.333H1006.67H1065.33V476.667ZM177.333 532.667V560H118.667H60V532.667V505.333H118.667H177.333V532.667ZM296 532.667V560H237.333H178.667V532.667V505.333H237.333H296V532.667ZM888 532.667V560H829.333H770.667V532.667V505.333H829.333H888V532.667ZM1005.33 532.667V560H947.333H889.333V532.667V505.333H947.333H1005.33V532.667Z" fill="#6A6868"/>
<path d="M1005.87 81.9998C1005.87 95.1998 1006.13 100.4 1006.27 93.5998C1006.53 86.7998 1006.53 75.9998 1006.27 69.5998C1006.13 63.1998 1005.87 68.7998 1005.87 81.9998Z" fill="#6A6868"/>
<path d="M1005.87 193.333C1005.87 206.133 1006.13 211.466 1006.27 204.933C1006.53 198.533 1006.53 188.133 1006.27 181.6C1006.13 175.2 1005.87 180.533 1005.87 193.333Z" fill="#6A6868"/>
<path d="M1005.47 307.6C1005.6 324.667 1006 330.933 1006.8 327.333C1008.4 319.6 1008.27 282.667 1006.67 282.667C1005.87 282.667 1005.33 291.733 1005.47 307.6Z" fill="#6A6868"/>
<path d="M612.933 504.933C615.333 505.2 619.6 505.2 622.267 504.933C625.067 504.667 623.2 504.4 618 504.4C612.933 504.4 610.667 504.667 612.933 504.933Z" fill="#6A6868"/>
<path d="M414.934 538.666C414.934 540.533 415.2 541.2 415.6 540.266C415.867 539.466 415.867 537.866 415.6 536.933C415.2 536.133 414.934 536.8 414.934 538.666Z" fill="#6A6868"/>
<path d="M414.8 546.133C414.8 547.6 415.2 548 415.6 546.933C416 546 415.867 544.8 415.467 544.4C415.067 543.867 414.667 544.667 414.8 546.133Z" fill="#6A6868"/>
<path d="M414.934 552C414.934 553.867 415.2 554.533 415.6 553.6C415.867 552.8 415.867 551.2 415.6 550.267C415.2 549.467 414.934 550.133 414.934 552Z" fill="#6A6868"/>
<path d="M414.266 559.067C413.466 561.067 414.933 561.333 428.4 561.467C436.666 561.6 444.933 561.867 447.066 562.133C449.066 562.267 450.4 562 450 561.2C449.466 560.533 441.733 560 432.666 560C421.066 560 416 559.467 415.733 558.4C415.333 557.467 414.8 557.6 414.266 559.067Z" fill="#6A6868"/>
<path d="M336.534 560.933C337.867 562.4 344 562.4 343.2 561.067C342.8 560.533 340.934 560 339.067 560C337.067 560 336 560.4 336.534 560.933Z" fill="#6A6868"/>
<path d="M347.733 560.933C348.533 561.2 350.133 561.2 351.067 560.933C351.867 560.533 351.2 560.267 349.333 560.267C347.467 560.267 346.8 560.533 347.733 560.933Z" fill="#6A6868"/>
<path d="M354.8 564.267C354.934 568.267 355.067 568.4 355.867 565.333C356.4 563.467 358.134 561.733 360 561.2C363.067 560.4 362.934 560.267 359.067 560.133C354.934 560 354.667 560.267 354.8 564.267Z" fill="#6A6868"/>
<path d="M367.6 560.933C370 561.2 374.267 561.2 376.933 560.933C379.733 560.667 377.867 560.4 372.667 560.4C367.6 560.4 365.333 560.667 367.6 560.933Z" fill="#6A6868"/>
<path d="M387.067 560.933C389.733 561.2 394.267 561.2 397.067 560.933C399.733 560.667 397.467 560.4 392 560.4C386.533 560.4 384.267 560.667 387.067 560.933Z" fill="#6A6868"/>
<path d="M405.733 560.933C406.933 561.2 408.8 561.2 409.733 560.933C410.533 560.533 409.6 560.267 407.333 560.267C405.2 560.267 404.4 560.533 405.733 560.933Z" fill="#6A6868"/>
<path d="M453.467 560.533C454.667 561.733 464 562.267 464 561.2C464 560.533 461.467 560 458.4 560C455.333 560 453.2 560.267 453.467 560.533Z" fill="#6A6868"/>
<path d="M467.067 560.933C468.267 561.2 470.134 561.2 471.067 560.933C471.867 560.533 470.934 560.267 468.667 560.267C466.534 560.267 465.734 560.533 467.067 560.933Z" fill="#6A6868"/>
<path d="M473.333 588.667C473.333 604.4 473.733 617.333 474.4 617.333C474.933 617.333 475.333 604.933 475.333 589.733V562L479.333 561.2C483.2 560.4 483.2 560.267 478.4 560.133L473.333 560V588.667Z" fill="#6A6868"/>
<path d="M484.533 560.933C485.867 562.4 489.333 562.533 489.333 561.2C489.333 560.533 488 560 486.4 560C484.8 560 484 560.4 484.533 560.933Z" fill="#6A6868"/>
<path d="M492 561.067C492 561.6 494.4 561.867 497.333 561.6C500.267 561.333 502.667 560.8 502.667 560.533C502.667 560.267 500.267 560 497.333 560C494.4 560 492 560.4 492 561.067Z" fill="#6A6868"/>
<path d="M505.067 560.933C505.867 561.2 507.467 561.2 508.4 560.933C509.2 560.533 508.533 560.267 506.667 560.267C504.8 560.267 504.133 560.533 505.067 560.933Z" fill="#6A6868"/>
<path d="M510.667 560.533C510.667 561.6 520.133 562.133 520.8 561.067C521.2 560.533 519.067 560 516.133 560C513.067 560 510.667 560.267 510.667 560.533Z" fill="#6A6868"/>
<path d="M523.733 560.933C524.533 561.2 526.133 561.2 527.067 560.933C527.867 560.533 527.2 560.267 525.333 560.267C523.467 560.267 522.8 560.533 523.733 560.933Z" fill="#6A6868"/>
<path d="M546.667 561.333C546.667 562.933 547.733 562.933 551.333 561.333C553.733 560.267 553.6 560.133 550.4 560.133C548.267 560 546.667 560.533 546.667 561.333Z" fill="#6A6868"/>
<path d="M559.733 560.933C562.8 561.2 567.6 561.2 570.4 560.933C573.067 560.667 570.533 560.4 564.667 560.4C558.8 560.4 556.533 560.667 559.733 560.933Z" fill="#6A6868"/>
<path d="M576.933 561.467C578 562.533 579.067 562.533 580.933 561.467C583.067 560.267 582.8 560.133 579.467 560C576.533 560 575.867 560.4 576.933 561.467Z" fill="#6A6868"/>
<path d="M591.733 588.667C591.466 604.4 591.733 617.333 592.4 617.333C592.933 617.333 593.333 605.067 593.333 590C593.333 567.067 593.6 562.667 595.2 562.667C596.266 562.667 597.6 562 598 561.333C598.4 560.533 597.333 560 595.466 560H592.133L591.733 588.667Z" fill="#6A6868"/>
<path d="M603.733 560.933C605.333 561.2 608 561.2 609.733 560.933C611.333 560.667 610 560.4 606.667 560.4C603.333 560.4 602 560.667 603.733 560.933Z" fill="#6A6868"/>
<path d="M614.4 560.933C615.2 561.2 616.8 561.2 617.734 560.933C618.534 560.533 617.867 560.267 616 560.267C614.134 560.267 613.467 560.533 614.4 560.933Z" fill="#6A6868"/>
<path d="M622.4 560.933C624 561.2 626.4 561.2 627.734 560.933C628.934 560.533 627.6 560.267 624.667 560.4C621.734 560.4 620.667 560.667 622.4 560.933Z" fill="#6A6868"/>
<path d="M635.067 560.933C637.733 561.2 642.267 561.2 645.067 560.933C647.733 560.667 645.467 560.4 640 560.4C634.533 560.4 632.267 560.667 635.067 560.933Z" fill="#6A6868"/>
<path d="M677.333 560.533C677.333 561.6 685.467 562.133 686.133 561.067C686.533 560.533 684.667 560 682.133 560C679.467 560 677.333 560.267 677.333 560.533Z" fill="#6A6868"/>
<path d="M691.333 561.333C694.933 562.933 696 562.933 696 561.333C696 560.533 694.4 560 692.4 560.133C689.067 560.133 688.933 560.267 691.333 561.333Z" fill="#6A6868"/>
<path d="M700.267 560.8C701.2 561.733 730.8 561.6 731.733 560.667C732.133 560.267 725.067 560 716 560C706.933 560 699.867 560.4 700.267 560.8Z" fill="#6A6868"/>
<path d="M828.267 590.933C828.133 605.467 828.4 617.333 829.067 617.333C829.6 617.333 829.867 609.333 829.6 599.733C829.067 567.467 828.533 564.4 828.267 590.933Z" fill="#6A6868"/>
<path d="M354.933 592.933C354.8 606.4 355.067 617.333 355.733 617.333C356.267 617.333 356.533 610 356.267 601.067C355.733 571.2 355.2 568.4 354.933 592.933Z" fill="#6A6868"/>
<path d="M710.4 593.333C710.133 606.533 710.4 617.333 711.067 617.333C711.6 617.333 712 606.533 712 593.333C712 580.133 711.733 569.333 711.333 569.333C711.067 569.333 710.667 580.133 710.4 593.333Z" fill="#6A6868"/>
<path d="M532.8 617.066C532.4 617.733 532 630.8 532 646.133L531.733 674L555.467 674.4C568.533 674.533 578.933 674.533 578.533 674.133C578.267 673.866 568.133 673.333 556 672.933L534 672.266V644.133C534 628.666 533.867 616 533.733 616C533.6 616 533.2 616.533 532.8 617.066Z" fill="#6A6868"/>
<path d="M1046.4 616.933C1047.2 617.2 1048.8 617.2 1049.73 616.933C1050.53 616.533 1049.87 616.267 1048 616.267C1046.13 616.267 1045.47 616.533 1046.4 616.933Z" fill="#6A6868"/>
<path d="M58.4001 645.466C58.1334 667.6 58.4001 673.866 59.7334 674.4C62.1334 675.2 63.6001 673.466 61.6001 672.133C60.2667 671.333 60.0001 664.8 60.2667 644.266C60.5334 629.466 60.2667 617.333 59.7334 617.333C59.2001 617.333 58.5334 630 58.4001 645.466Z" fill="#6A6868"/>
<path d="M177.333 644.667L176.667 672.667L168 673.467C163.2 673.867 174.4 674.133 192.667 674.133C225.6 674.133 225.733 674.133 202.667 673.333C189.867 672.933 179.2 672.4 179.067 672.267C178.8 672.133 178.533 659.6 178.4 644.267L178 616.667L177.333 644.667Z" fill="#6A6868"/>
<path d="M296 644.666V672H283.733C275.467 672.133 272 672.533 273.467 673.333C274.667 674 280.4 674.4 286.4 674.266L297.333 674V645.6C297.333 630.133 297.067 617.333 296.667 617.333C296.267 617.333 296 629.6 296 644.666Z" fill="#6A6868"/>
<path d="M650.667 644.666L650 672.667L622 672.933C606.667 673.067 593.467 673.2 592.667 673.333C591.067 673.333 590.8 730.667 592.4 730.667C592.933 730.667 593.333 718 593.333 702.667V674.667H622.533C638.667 674.667 652 674.267 652.267 673.6C652.533 673.067 652.4 660 652 644.666L651.333 616.666L650.667 644.666Z" fill="#6A6868"/>
<path d="M769.6 644.133L769.333 671.6L759.067 672.533C753.467 672.933 740.133 673.333 729.467 673.333H710V700.933V728.667L683.333 729.333L656.667 730.133H687.333C704.267 730.267 716.667 730 715.067 729.733C712 729.2 712 729.067 712 701.867V674.667H736.4C749.733 674.533 773.333 674.667 788.933 674.667C804.4 674.667 817.467 674.267 817.733 673.733C818.133 673.2 807.733 672.667 794.533 672.667H770.667L770.4 644.667L770 616.667L769.6 644.133Z" fill="#6A6868"/>
<path d="M888.267 644.267C888.133 664.8 887.6 672 886.4 672C885.2 672 885.2 672.4 886.4 673.6C887.333 674.533 888.4 674.667 889.067 673.867C889.6 673.2 889.733 660 889.333 644.667L888.533 616.667L888.267 644.267Z" fill="#6A6868"/>
<path d="M1005.07 644.8L1004.67 672.267L982.133 672.8C969.733 673.067 959.333 673.6 958.933 674C957.733 675.2 1004.53 674.533 1007.33 673.333C1008.8 672.667 1009.2 672.133 1008.27 672.133C1006.93 672 1006.67 666.267 1006.93 644.667C1007.2 629.6 1006.93 617.333 1006.4 617.333C1005.87 617.333 1005.2 629.733 1005.07 644.8Z" fill="#6A6868"/>
<path d="M414.933 644.933L414.667 672L411.2 672.8C409.333 673.333 395.867 673.466 381.2 673.066L354.667 672.533V700.933V729.333H325.067H295.333L295.733 757.333L296.133 785.333H237.333H178.667V758.133C178.667 737.6 179.067 730.666 180.4 730.266C181.333 729.866 181.067 729.466 179.733 729.466C177.467 729.333 177.333 731.466 177.333 757.333V785.333L119.067 785.066L60.6667 784.666L60.2667 757.6L60 730.666L113.6 730.4C143.2 730.266 156.667 729.866 143.6 729.733L120 729.333V702V674.666L137.733 674.533L155.333 674.266L144.667 673.066C138.8 672.533 130.533 672.133 126.267 672.4L118.4 672.8L118.667 701.066L118.8 729.333H88.6667H58.6667V757.333V785.333H29.3333H0V814V842.666H29.3333H58.6667V870V897.333H29.3333H0V926V954.666H29.3333H58.6667V982V1009.33H29.3333H0V1038V1066.67H533.333H1066.67V1038V1009.33H1036.67H1006.53L1007.2 991.6C1007.47 982 1007.87 969.6 1007.87 964.266L1008 954.666H1037.33H1066.67V926V897.333H1036.8H1006.8L1006.27 893.6L1005.73 890L1005.47 893.6L1005.33 897.333H947.333H889.333V870V842.666L945.733 842.4C976.667 842.133 989.867 841.866 975.067 841.733L948 841.333V814V786.666H1006.67H1065.33V814V841.333H1035.07H1004.67L1005.07 864.933C1005.6 894.666 1008 893.6 1008 863.6V842.666H1037.33H1066.67V814V785.333H1037.47C1021.33 785.333 1007.87 784.933 1007.6 784.266C1007.2 783.733 1007.33 771.466 1007.73 757.066L1008.4 730.666L1035.87 730.266L1063.33 730L1034 729.6L1004.67 729.333L1005.07 757.333L1005.47 785.333H947.333H889.2L889.6 757.333C890 730 889.867 729.333 887.333 729.466C885.867 729.466 885.467 729.866 886.4 730.266C887.6 730.666 888 737.6 888 758.133V785.333H829.333H770.667V758V730.666H799.733C815.6 730.533 839.733 730.4 853.333 730.4L878 730.133L854 729.466L830 728.666L829.2 722.666L828.4 716.666L828.267 722.933L828 729.333H798.667H769.333V757.333V785.333H710.667H651.867L652.267 757.333C652.533 739.333 652.133 729.333 651.333 729.333C650.533 729.333 650 739.466 650 756.933V784.666H592H534V757.733V730.666L562 730.266L590 730L561.067 729.6L532 729.333V757.333V785.333H474H416V758V730.666L444.4 730.266L472.667 730L443.333 729.6L414 729.333V756.933V784.666L355.733 785.066L297.333 785.333V758V730.666L326.4 730.533C342.267 730.533 359.6 730.4 364.667 730.4L374 730.266L365.067 729.733L356 729.2V702V674.666H385.867C402.4 674.666 416 674.266 416.267 673.6C416.533 673.066 416.4 660.4 416 645.333L415.2 618L414.933 644.933ZM118.667 814V841.333H60H1.33333V814V786.666H60H118.667V814ZM237.067 812.666C236.8 826.933 237.067 838.666 237.733 838.666C238.267 838.666 238.667 826.933 238.667 812.666V786.666H296.667H354.667V814V841.333H237.333H120V814V786.666H178.667H237.467L237.067 812.666ZM473.333 814V841.333H442.4C425.333 841.333 412.133 841.866 412.933 842.4C414.133 843.2 414.667 850.8 415.067 870L415.333 896.666L415.733 869.6L416 842.666H474H532V870V897.333H414.667H297.333V870V842.666L353.733 842.4C396.533 842.133 403.6 841.866 383.333 841.333L356.667 840.666L356.267 813.6L356 786.666H414.667H473.333V814ZM592 814V841.333H533.333H474.667V814V786.666H533.333H592V814ZM710.4 813.6L710 840.666L651.733 841.066L593.333 841.333V814V786.666H652H710.667L710.4 813.6ZM828 814V841.333H770H712V814V786.666H770H828V814ZM946.667 814V841.333L888.4 841.066L830 840.666L829.6 816.666C829.333 803.466 829.6 791.333 830 789.6L830.667 786.666H888.667H946.667V814ZM177.333 870V897.333H118.667H60V870V842.666H118.667H177.333V870ZM296 870V897.333H237.333H178.667V870V842.666H237.333H296V870ZM650.667 870V897.333L592.4 897.066L534 896.666L533.6 875.333C533.467 863.6 533.6 851.466 534 848.266L534.8 842.666H592.8H650.667V870ZM769.333 870V897.333H710.667H652V870V842.666H710.667H769.333V870ZM888 870V897.333H829.333H770.667V870V842.666H829.333H888V870ZM118.667 926V953.333H60H1.33333V926V898.666H60H118.667V926ZM237.333 923.333L238.133 947.333L238.4 922.933L238.667 898.666H296.667H354.667V926V953.333H296.8C251.733 953.333 238.667 952.933 238.133 951.6C237.467 950.266 237.2 950.266 236.533 951.6C236 952.933 222.933 953.333 177.867 953.333H120V926V898.666L178.4 898.933L236.667 899.333L237.333 923.333ZM473.333 926V953.333H414.667H356V926V898.666H414.667H473.333V926ZM592 926V953.333H533.333H474.667V926V898.666H533.333H592V926ZM710.667 926V953.333H652H593.333V926V898.666H652H710.667V926ZM828 926V953.333H770H712V926V898.666H770H828V926ZM946.667 926V953.333H888.8C856.933 953.333 830.533 952.933 830.267 952.266C830 951.733 830 939.466 830.4 924.933L831.067 898.666H888.8H946.667V926ZM1065.33 926V953.333H1006.67H948V926V898.666H1006.67H1065.33V926ZM177.333 982V1009.33H118.667H60V982V954.666H118.667H177.333V982ZM296 982V1009.33H237.333H178.667V982V954.666H237.333H296V982ZM414.667 982V1009.33H356H297.333V982V954.666H356H414.667V982ZM532 982V1009.33H474H416V982V954.666H474H532V982ZM650.667 982V1009.33H592H533.333V982V954.666H592H650.667V982ZM769.333 982V1009.33H710.667H652V982V954.666H710.667H769.333V982ZM888 982V1009.33H829.333H770.667V982V954.666H829.333H888V982ZM1005.33 982V1009.33H947.333H889.333V982V954.666H947.333H1005.33V982ZM118.667 1038V1065.33H60H1.33333V1038V1010.67H60H118.667V1038ZM237.6 1034.93L238 1059.33L238.267 1034.93L238.667 1010.67H296.667H354.667V1038V1065.33H237.333H120V1038V1010.67H178.667H237.333L237.6 1034.93ZM473.333 1038V1065.33H414.667H356V1038V1010.67H414.667H473.333V1038ZM592 1038V1065.33H533.333H474.667V1038V1010.67H533.333H592V1038ZM710.4 1037.6L710 1064.67L651.733 1065.07L593.333 1065.33V1038V1010.67H652H710.667L710.4 1037.6ZM828.133 1036.93C828.267 1055.2 828.667 1061.47 829.467 1057.33C830 1054 830.533 1042.93 830.533 1032.67C830.533 1022.4 830.533 1013.2 830.667 1012.27C830.667 1011.07 843.2 1010.67 888.667 1010.67H946.667V1038V1065.33H829.333H712V1038V1010.67H770H828L828.133 1036.93ZM1065.33 1038V1065.33H1006.67H948V1038V1010.67H1006.67H1065.33V1038Z" fill="#6A6868"/>
<path d="M0 701.333C0 728.4 0.133333 730.667 2.4 730.533C3.73333 730.533 4 730.133 3.06667 729.733C0.666667 728.8 0.533333 675.2 2.93333 674.4C3.86667 674 3.73333 673.467 2.26667 672.933C0.133333 672.133 0 674.4 0 701.333Z" fill="#6A6868"/>
<path d="M30.9333 672.933C35.2 673.2 42.1333 673.2 46.2666 672.933C50.5333 672.667 47.0666 672.533 38.6666 672.533C30.2666 672.533 26.8 672.667 30.9333 672.933Z" fill="#6A6868"/>
<path d="M80.6668 673.466C87.4668 674.8 105.333 674.933 105.333 673.6C105.333 673.066 98.5335 672.533 90.2668 672.533C79.3335 672.4 76.8002 672.533 80.6668 673.466Z" fill="#6A6868"/>
<path d="M236.667 673.333C235.2 674 234.8 674.533 235.734 674.533C236.934 674.667 237.467 681.067 237.6 700.933L237.867 727.333L238.667 700.667L239.334 674L244 673.2L248.667 672.4L244 672.267C241.467 672.267 238.134 672.667 236.667 673.333Z" fill="#6A6868"/>
<path d="M420.667 673.333C419.6 674.933 460.8 674.933 464.667 673.333C466.267 672.667 458.4 672.133 444.4 672.133C430.4 672 421.2 672.533 420.667 673.333Z" fill="#6A6868"/>
<path d="M473.333 701.067C473.333 717.333 473.733 730.667 474.4 730.667C475.467 730.667 475.2 673.467 474 672.267C473.6 671.867 473.333 684.8 473.333 701.067Z" fill="#6A6868"/>
<path d="M497.333 673.333C487.6 674 488.933 674.267 507.067 674.4C520.8 674.533 527.867 674.267 527.333 673.333C526.533 671.867 516.267 671.867 497.333 673.333Z" fill="#6A6868"/>
<path d="M662 673.467C659.067 673.867 666.4 674.4 678.4 674.533C692.267 674.533 700 674.133 700 673.333C700 671.867 671.733 672 662 673.467Z" fill="#6A6868"/>
<path d="M829.733 672.933C828.4 673.333 828 678.933 828 694C828 705.333 828.4 714.8 829.067 715.066C829.6 715.466 830.133 706.666 830.267 695.6C830.533 684.4 830.667 674.933 830.667 674.533C830.667 674.133 833.867 674 837.733 674.266C842.8 674.533 844 674.4 842 673.466C839.067 672.133 832.4 671.733 829.733 672.933Z" fill="#6A6868"/>
<path d="M880.666 673.333C881.066 674 882 674.667 882.8 674.667C883.466 674.667 884 674 884 673.333C884 672.533 883.066 672 881.866 672C880.8 672 880.266 672.533 880.666 673.333Z" fill="#6A6868"/>
<path d="M900.667 673.333C901.067 674 902.667 674.667 904.133 674.667C905.467 674.667 906.667 674 906.667 673.333C906.667 672.533 905.067 672 903.2 672C901.333 672 900.133 672.533 900.667 673.333Z" fill="#6A6868"/>
<path d="M946.933 701.067L947.333 730H970.666L994 730.133L971.066 729.733L948 729.333V702.133C948 682.133 948.4 674.8 949.6 674.4C950.533 674 950.266 673.467 948.933 672.933C946.8 672.133 946.666 674.133 946.933 701.067Z" fill="#6A6868"/>
<path d="M333.734 674.267C335.734 674.533 338.934 674.533 341.067 674.267C343.067 674 341.334 673.733 337.334 673.733C333.334 673.733 331.6 674 333.734 674.267Z" fill="#6A6868"/>
<path d="M916.4 674.267C919.867 674.533 925.467 674.533 929.067 674.267C932.533 674 929.6 673.867 922.667 673.867C915.733 673.867 912.8 674 916.4 674.267Z" fill="#6A6868"/>
<path d="M1020.4 674.267C1023.87 674.533 1029.33 674.533 1032.4 674.267C1035.47 674 1032.67 673.867 1026 673.867C1019.47 673.867 1016.93 674 1020.4 674.267Z" fill="#6A6868"/>
<path d="M1042.4 674.267C1044.8 674.533 1048.4 674.533 1050.4 674.267C1052.4 674 1050.4 673.733 1046 673.733C1041.6 673.733 1040 674 1042.4 674.267Z" fill="#6A6868"/>
<path d="M1065.87 702C1065.87 718.133 1066.13 724.533 1066.27 716.266C1066.53 708 1066.53 694.8 1066.27 686.933C1066.13 679.066 1065.87 685.866 1065.87 702Z" fill="#6A6868"/>
<path d="M233.333 729.333C230.4 730.267 230.533 730.4 235.067 730.533C238.133 730.667 239.867 730.133 239.333 729.333C238.4 727.867 238 727.867 233.333 729.333Z" fill="#6A6868"/>
<path d="M19.7336 730.267C24.9336 730.533 33.7336 730.533 39.0669 730.267C44.2669 730.133 40.0002 729.867 29.3336 729.867C18.6669 729.867 14.4002 730.133 19.7336 730.267Z" fill="#6A6868"/>
<path d="M193.733 730.267C200.133 730.533 210.4 730.533 216.4 730.267C222.4 730.133 217.2 729.867 204.667 729.867C192.267 729.867 187.333 730.133 193.733 730.267Z" fill="#6A6868"/>
<path d="M254.4 730.267C260.533 730.533 270.133 730.533 275.733 730.267C281.333 730.133 276.4 729.867 264.667 729.867C252.933 729.867 248.267 730.133 254.4 730.267Z" fill="#6A6868"/>
<path d="M383.067 730.267C385.733 730.533 390.267 730.533 393.067 730.267C395.733 730 393.467 729.733 388 729.733C382.533 729.733 380.267 730 383.067 730.267Z" fill="#6A6868"/>
<path d="M399.734 730.267C400.667 730.667 401.867 730.533 402.267 730.133C402.8 729.733 402 729.333 400.534 729.467C399.067 729.467 398.667 729.867 399.734 730.267Z" fill="#6A6868"/>
<path d="M490.4 730.267C496.533 730.533 506.133 730.533 511.733 730.267C517.333 730.133 512.4 729.867 500.667 729.867C488.933 729.867 484.267 730.133 490.4 730.267Z" fill="#6A6868"/>
<path d="M605.733 730.267C612.133 730.533 622.533 730.533 629.067 730.267C635.467 730.133 630.133 729.867 617.333 729.867C604.533 729.867 599.2 730.133 605.733 730.267Z" fill="#6A6868"/>
<path d="M728.4 730.267C730.4 730.533 733.333 730.533 735.067 730.267C736.667 730 735.067 729.733 731.333 729.733C727.733 729.733 726.267 730 728.4 730.267Z" fill="#6A6868"/>
<path d="M746.267 730.267C748.667 730.533 752.934 730.533 755.6 730.267C758.4 730 756.534 729.733 751.334 729.733C746.267 729.733 744 730 746.267 730.267Z" fill="#6A6868"/>
<path d="M903.734 730.267C909.734 730.533 919.6 730.533 925.734 730.267C931.734 730.133 926.8 729.867 914.667 729.867C902.534 729.867 897.6 730.133 903.734 730.267Z" fill="#6A6868"/>
<path d="M939.067 730.267C940.267 730.533 942.4 730.533 943.733 730.267C944.933 729.867 943.867 729.6 941.333 729.6C938.8 729.6 937.733 729.867 939.067 730.267Z" fill="#6A6868"/>
</g>
<defs>
<clipPath id="clip0_39_43">
<rect width="1066.67" height="1066.67" fill="white"/>
</clipPath>
</defs>
</svg>
