<svg width="195" height="151" viewBox="0 0 195 151" fill="none" xmlns="http://www.w3.org/2000/svg">
<path fill-rule="evenodd" clip-rule="evenodd" d="M73.2288 18.1051C56.7228 20.0241 37.2578 25.8651 28.3028 31.5871C19.4148 37.2651 19.4248 37.2251 20.7938 59.3701C21.4448 69.8921 22.6808 83.9001 23.5408 90.5001C25.8508 108.225 30.8908 127.239 30.9628 118.5C30.9758 116.85 30.5338 112.8 29.9798 109.5C26.6198 89.5031 22.7568 45.0001 24.3798 45.0001C24.7528 45.0001 27.6328 46.0761 30.7788 47.3911C43.5258 52.7191 65.9168 55.5151 82.9988 53.9121C102.734 52.0591 116.261 48.5781 128.269 42.2621C131.146 40.7491 133.907 39.3351 134.406 39.1201C135.684 38.5681 134.45 65.9131 132.538 80.5001C131.673 87.1001 130.044 98.0341 128.919 104.797C127.793 111.56 127.048 118.085 127.264 119.297C127.609 121.243 127.838 121.091 129.222 118C130.084 116.075 131.537 110.675 132.45 106C134.775 94.1031 134.451 94.6651 137.931 96.4651C142.151 98.6471 151.461 98.3881 158.881 95.8821C169.982 92.1341 178.711 83.5371 180.967 74.1321C183.487 63.6291 177.27 52.0441 165.954 46.1551C160.222 43.1721 158.857 42.8531 153.769 43.3011C150.311 43.6061 146.265 44.7981 143.566 46.3071L139.093 48.8071L138.454 44.1531C136.779 31.9341 135.357 29.9211 124.999 25.1011C110.325 18.2741 92.4968 15.8641 73.2288 18.1051ZM69.7348 22.0221C54.1728 24.4781 36.0598 30.2101 27.6088 35.3531L23.7188 37.7201L25.8588 39.8601C28.7438 42.7451 30.4798 42.5781 39.2718 38.5721C66.9748 25.9471 101.146 24.9661 122.204 36.1901L128.114 39.3401L130.806 36.6141C133.469 33.9201 133.476 33.8721 131.499 32.3561C127.99 29.6671 118.747 25.9301 110.499 23.8671C101.325 21.5711 78.9948 20.5601 69.7348 22.0221ZM144.499 49.7731C139.678 52.4021 139.488 52.6721 139.192 57.3051L138.885 62.1101L141.892 60.5551C155.198 53.6751 167.725 58.3811 167.353 70.1221C167.16 76.1911 165.842 78.4311 160.731 81.3731C154.441 84.9921 149.362 85.4971 142.718 83.1621C139.647 82.0821 136.878 81.4541 136.566 81.7661C136.254 82.0781 135.999 84.2731 135.999 86.6441C135.999 92.5071 138.609 94.1921 147.581 94.1231C152.832 94.0831 155.614 93.4331 160.687 91.0591C170.26 86.5791 172.994 84.2521 175.745 78.2431C178.951 71.2411 178.518 64.9961 174.36 58.2561C167.833 47.6731 155.023 44.0341 144.499 49.7731ZM143.499 63.7731C138.596 66.4471 138.493 66.6001 138.201 71.6371L137.902 76.7751L142.266 78.8871C147.635 81.4861 152.216 81.5381 157.668 79.0631C164.759 75.8441 166.273 69.1201 161.076 63.9231C157.104 59.9511 150.609 59.8961 143.499 63.7731ZM115.499 128.072C88.8268 141.202 61.4148 141.139 40.4988 127.899C36.7698 125.538 34.1438 124.455 33.5618 125.037C30.9668 127.631 45.5788 136.465 57.4588 139.485C65.3568 141.493 83.8738 141.455 93.7908 139.412C107.574 136.572 124.751 128.694 126.373 124.469C127.165 122.405 126.696 122.56 115.499 128.072Z" fill="#827667"/>
<path fill-rule="evenodd" clip-rule="evenodd" d="M73.2288 18.1051C56.7228 20.0241 37.2578 25.8651 28.3028 31.5871C19.4148 37.2651 19.4248 37.2251 20.7938 59.3701C21.4448 69.8921 22.6808 83.9001 23.5408 90.5001C25.8508 108.225 30.8908 127.239 30.9628 118.5C30.9758 116.85 30.5338 112.8 29.9798 109.5C26.6198 89.5031 22.7568 45.0001 24.3798 45.0001C24.7528 45.0001 27.6328 46.0761 30.7788 47.3911C43.5258 52.7191 65.9168 55.5151 82.9988 53.9121C102.734 52.0591 116.261 48.5781 128.269 42.2621C131.146 40.7491 133.907 39.3351 134.406 39.1201C135.684 38.5681 134.45 65.9131 132.538 80.5001C131.673 87.1001 130.044 98.0341 128.919 104.797C127.793 111.56 127.048 118.085 127.264 119.297C127.609 121.243 127.838 121.091 129.222 118C130.084 116.075 131.537 110.675 132.45 106C134.775 94.1031 134.451 94.6651 137.931 96.4651C142.151 98.6471 151.461 98.3881 158.881 95.8821C169.982 92.1341 178.711 83.5371 180.967 74.1321C183.487 63.6291 177.27 52.0441 165.954 46.1551C160.222 43.1721 158.857 42.8531 153.769 43.3011C150.311 43.6061 146.265 44.7981 143.566 46.3071L139.093 48.8071L138.454 44.1531C136.779 31.9341 135.357 29.9211 124.999 25.1011C110.325 18.2741 92.4968 15.8641 73.2288 18.1051ZM69.7348 22.0221C54.1728 24.4781 36.0598 30.2101 27.6088 35.3531L23.7188 37.7201L25.8588 39.8601C28.7438 42.7451 30.4798 42.5781 39.2718 38.5721C66.9748 25.9471 101.146 24.9661 122.204 36.1901L128.114 39.3401L130.806 36.6141C133.469 33.9201 133.476 33.8721 131.499 32.3561C127.99 29.6671 118.747 25.9301 110.499 23.8671C101.325 21.5711 78.9948 20.5601 69.7348 22.0221ZM144.499 49.7731C139.678 52.4021 139.488 52.6721 139.192 57.3051L138.885 62.1101L141.892 60.5551C155.198 53.6751 167.725 58.3811 167.353 70.1221C167.16 76.1911 165.842 78.4311 160.731 81.3731C154.441 84.9921 149.362 85.4971 142.718 83.1621C139.647 82.0821 136.878 81.4541 136.566 81.7661C136.254 82.0781 135.999 84.2731 135.999 86.6441C135.999 92.5071 138.609 94.1921 147.581 94.1231C152.832 94.0831 155.614 93.4331 160.687 91.0591C170.26 86.5791 172.994 84.2521 175.745 78.2431C178.951 71.2411 178.518 64.9961 174.36 58.2561C167.833 47.6731 155.023 44.0341 144.499 49.7731ZM143.499 63.7731C138.596 66.4471 138.493 66.6001 138.201 71.6371L137.902 76.7751L142.266 78.8871C147.635 81.4861 152.216 81.5381 157.668 79.0631C164.759 75.8441 166.273 69.1201 161.076 63.9231C157.104 59.9511 150.609 59.8961 143.499 63.7731ZM115.499 128.072C88.8268 141.202 61.4148 141.139 40.4988 127.899C36.7698 125.538 34.1438 124.455 33.5618 125.037C30.9668 127.631 45.5788 136.465 57.4588 139.485C65.3568 141.493 83.8738 141.455 93.7908 139.412C107.574 136.572 124.751 128.694 126.373 124.469C127.165 122.405 126.696 122.56 115.499 128.072Z" fill="#827667"/>
<path d="M46.207 83.198L46.224 81.855L46.241 79.356C46.2523 78.9933 46.258 78.6193 46.258 78.234C46.258 77.8487 46.258 77.452 46.258 77.044C46.258 76.636 46.258 76.2733 46.258 75.956C46.258 75.6387 46.2693 75.2817 46.292 74.885V74.817C46.3033 74.7037 46.309 74.5903 46.309 74.477C46.3203 74.3523 46.326 74.2277 46.326 74.103C46.3373 73.899 46.3997 73.678 46.513 73.44C46.5923 73.2813 46.7113 73.1453 46.87 73.032C47.0513 72.9413 47.227 72.896 47.397 72.896C47.4877 72.896 47.567 72.9017 47.635 72.913C47.7143 72.913 47.788 72.9187 47.856 72.93C48.0033 72.9527 48.1337 73.0207 48.247 73.134C48.315 73.1907 48.3773 73.2813 48.434 73.406C48.4567 73.474 48.4737 73.542 48.485 73.61C48.5077 73.6667 48.5247 73.729 48.536 73.797C48.5473 73.8763 48.553 73.95 48.553 74.018C48.5643 74.086 48.57 74.154 48.57 74.222C48.57 74.3013 48.5643 74.375 48.553 74.443C48.553 74.4997 48.553 74.562 48.553 74.63V74.919L48.451 83.742V83.912C48.451 83.946 48.4453 83.9913 48.434 84.048C48.434 84.0933 48.4283 84.15 48.417 84.218C48.3943 84.2747 48.3717 84.337 48.349 84.405C48.3377 84.4617 48.3207 84.524 48.298 84.592C48.264 84.6487 48.2243 84.7053 48.179 84.762C48.145 84.8073 48.0997 84.8527 48.043 84.898C47.9523 84.9887 47.805 85.051 47.601 85.085C47.295 85.153 47.006 85.1247 46.734 85C46.598 84.9093 46.5017 84.796 46.445 84.66C46.411 84.626 46.394 84.592 46.394 84.558C46.3827 84.5353 46.3713 84.5183 46.36 84.507C46.3487 84.4957 46.3373 84.4787 46.326 84.456C46.3033 84.3993 46.2863 84.3427 46.275 84.286C46.2637 84.218 46.258 84.15 46.258 84.082C46.2467 84.0253 46.2353 83.9687 46.224 83.912C46.224 83.8553 46.2183 83.7987 46.207 83.742C46.1957 83.6513 46.1957 83.555 46.207 83.453V83.198Z" fill="black"/>
<path d="M109.732 80.9511C109.742 81.0872 109.748 81.2298 109.748 81.3789C109.749 81.528 109.731 81.6685 109.694 81.8005C109.66 81.9437 109.603 82.0559 109.524 82.1373C109.419 82.2687 109.283 82.3533 109.117 82.3911C108.969 82.4719 108.82 82.5126 108.671 82.5133C108.522 82.514 108.382 82.4961 108.25 82.4596C108.077 82.3837 107.941 82.2848 107.841 82.1628C107.751 82.028 107.677 81.8848 107.618 81.7334C107.56 81.582 107.518 81.4224 107.491 81.2545C107.464 81.0866 107.44 80.9299 107.416 80.7843L107.209 79.4747L106.785 76.9083C106.757 76.7292 106.735 76.5893 106.719 76.4886C106.703 76.3878 106.689 76.2983 106.676 76.2199C106.662 76.1304 106.641 76.0361 106.614 75.9371C106.597 75.8252 106.572 75.6685 106.54 75.467C106.535 75.4334 106.526 75.3775 106.513 75.2991C106.51 75.2078 106.468 74.9792 106.387 74.6133C106.066 75.4101 105.795 76.0554 105.575 76.5492C105.365 77.0301 105.178 77.4096 105.016 77.6878C104.862 77.953 104.72 78.1419 104.589 78.2545C104.456 78.3559 104.312 78.4246 104.157 78.4606C104.069 78.486 103.977 78.4834 103.88 78.4528C103.784 78.4222 103.685 78.3804 103.585 78.3275C103.496 78.2727 103.407 78.218 103.318 78.1632C103.238 78.0955 103.171 78.0316 103.116 77.9715C102.794 77.6783 102.428 77.3232 102.017 76.9062C101.607 76.4893 101.17 75.9733 100.705 75.3584C100.707 75.3696 100.73 75.5552 100.776 75.9152C100.833 76.2734 100.904 76.7211 100.989 77.2584C101.072 77.7845 101.157 78.3563 101.243 78.9738C101.339 79.5782 101.423 80.1444 101.495 80.6723C101.578 81.1984 101.643 81.6414 101.688 82.0014C101.732 82.3502 101.748 82.5255 101.737 82.5272C101.767 82.7175 101.751 82.9037 101.688 83.0858C101.623 83.2567 101.521 83.4049 101.38 83.5305C101.25 83.6543 101.086 83.7377 100.886 83.7808C100.686 83.824 100.459 83.8026 100.204 83.7167C100.045 83.6502 99.9124 83.5392 99.8074 83.3837C99.7137 83.2264 99.6441 83.0768 99.5986 82.9348C99.5626 82.7799 99.5275 82.6305 99.4932 82.4868C99.4702 82.3412 99.4463 82.1901 99.4214 82.0334L99.2308 80.7211L98.838 78.1327L98.4817 75.8827C98.3274 74.9088 98.2094 73.9464 98.1277 72.9955C98.1082 72.8724 98.1016 72.7587 98.1081 72.6544C98.1239 72.5371 98.1463 72.4246 98.1751 72.3168C98.2363 72.1235 98.3325 71.9705 98.4639 71.8579C98.6158 71.7306 98.7869 71.6519 98.9772 71.6217C99.0556 71.6093 99.1292 71.6034 99.1982 71.6039C99.2765 71.5915 99.3502 71.5856 99.4191 71.5862C99.6501 71.5955 99.8616 71.6997 100.054 71.8987C100.255 72.0848 100.441 72.2447 100.612 72.3783C100.717 72.4649 100.832 72.573 100.956 72.7025C101.079 72.8321 101.204 72.9673 101.33 73.108C101.455 73.2488 101.574 73.3848 101.687 73.5161C101.8 73.6475 101.898 73.7638 101.983 73.8651C102.349 74.2891 102.674 74.6793 102.96 75.0357C103.257 75.3902 103.529 75.6914 103.775 75.9394C103.803 75.9005 103.835 75.8495 103.871 75.7864C103.905 75.7122 103.939 75.6379 103.973 75.5637C104.017 75.4765 104.05 75.3966 104.073 75.3241C104.107 75.2499 104.132 75.1886 104.147 75.1403C104.231 74.9434 104.315 74.7522 104.401 74.5666C104.484 74.3697 104.573 74.1664 104.666 73.9566C104.768 73.7339 104.868 73.4943 104.965 73.238C105.073 72.9798 105.198 72.6846 105.341 72.3522C105.398 72.2055 105.473 72.0272 105.566 71.8174C105.659 71.6076 105.77 71.4008 105.898 71.1968C106.026 70.9929 106.165 70.8161 106.313 70.6664C106.471 70.5037 106.639 70.4082 106.818 70.3798C106.908 70.3656 106.987 70.3588 107.056 70.3593C107.123 70.3487 107.191 70.3437 107.26 70.3442C107.396 70.3341 107.535 70.3753 107.676 70.4678C107.78 70.5431 107.862 70.6276 107.922 70.7213C107.99 70.8597 108.038 70.9784 108.065 71.0774C108.089 71.154 108.106 71.2258 108.116 71.293C108.138 71.3584 108.154 71.4247 108.165 71.4918C108.264 72.1187 108.368 72.7391 108.477 73.3529C108.586 73.9668 108.69 74.5872 108.789 75.214C108.91 75.9752 109.034 76.7588 109.161 77.5647C109.3 78.3689 109.43 79.1516 109.55 79.9128C109.575 80.0695 109.607 80.2365 109.647 80.4138C109.687 80.5912 109.715 80.7703 109.732 80.9511ZM117.812 73.2342C117.937 73.375 118.009 73.5358 118.026 73.7167C118.067 73.9741 118.057 74.2051 117.998 74.4096C117.984 74.4691 117.962 74.5472 117.932 74.6438C117.912 74.7387 117.888 74.84 117.859 74.9479C117.842 75.0539 117.818 75.1553 117.787 75.2519C117.756 75.3486 117.733 75.421 117.718 75.4694L117.698 75.5586C117.596 75.9305 117.498 76.2902 117.404 76.6379C117.31 76.9855 117.203 77.3583 117.082 77.756C116.96 78.1426 116.842 78.5227 116.729 78.8963C116.626 79.2569 116.521 79.612 116.416 79.9614C116.385 80.058 116.36 80.1538 116.341 80.2487C116.32 80.3323 116.288 80.4234 116.246 80.5218L115.714 82.3789C115.615 82.693 115.52 83.0006 115.43 83.3017C115.351 83.601 115.256 83.9031 115.143 84.2077C115.119 84.269 115.093 84.3247 115.067 84.3748C115.053 84.4343 115.04 84.4938 115.026 84.5533C114.969 84.7001 114.872 84.8474 114.735 84.9954C114.61 85.1527 114.465 85.2503 114.299 85.2881C114 85.3584 113.723 85.3105 113.467 85.1445C113.321 85.0874 113.197 84.9923 113.095 84.8592C113.034 84.7655 112.992 84.6403 112.967 84.4836C112.967 84.4147 112.962 84.3466 112.952 84.2795C112.954 84.2217 112.956 84.164 112.959 84.1062C112.972 84.0467 112.98 83.9881 112.982 83.9304C112.985 83.8726 112.994 83.8252 113.012 83.7881C113.031 83.6932 113.052 83.644 113.074 83.6404L113.88 80.7934C113.804 80.6791 113.729 80.5648 113.653 80.4506C113.576 80.3251 113.507 80.2155 113.446 80.1219C113.246 79.7979 113.032 79.459 112.803 79.105C112.585 78.738 112.361 78.3775 112.133 78.0235C111.903 77.6583 111.669 77.3052 111.432 76.9642C111.194 76.6232 110.959 76.2989 110.727 75.9915C110.642 75.8902 110.562 75.7824 110.486 75.6681C110.409 75.5427 110.344 75.421 110.291 75.3032C110.236 75.1742 110.203 75.0417 110.193 74.9056C110.183 74.7695 110.212 74.6272 110.281 74.4787C110.344 74.2966 110.442 74.1604 110.577 74.0702C110.71 73.9688 110.856 73.9113 111.015 73.8977C111.183 73.8711 111.345 73.8798 111.501 73.9239C111.657 73.968 111.789 74.039 111.896 74.1367C112.118 74.3081 112.305 74.508 112.456 74.7366C112.607 74.9651 112.753 75.2001 112.894 75.4416C113.178 75.8557 113.471 76.2913 113.773 76.7483C114.075 77.2054 114.375 77.6513 114.673 78.0859L115.254 76.1007C115.315 75.9074 115.366 75.7215 115.406 75.5429C115.458 75.3626 115.511 75.1879 115.564 75.0188C115.624 74.8143 115.676 74.6051 115.723 74.3912C115.781 74.1755 115.852 73.9749 115.937 73.7892C115.953 73.7409 115.969 73.6982 115.986 73.6611C116.003 73.6239 116.019 73.5812 116.035 73.5329C116.114 73.3826 116.187 73.2621 116.253 73.1713C116.302 73.1177 116.341 73.077 116.371 73.0493C116.41 73.0086 116.457 72.9783 116.511 72.9582C116.586 72.9234 116.657 72.9007 116.724 72.8901C116.801 72.8665 116.874 72.8549 116.943 72.8555C117.06 72.8713 117.202 72.9004 117.37 72.9428C117.548 72.9833 117.696 73.0805 117.812 73.2342Z" fill="black"/>
<path d="M75.818 108.644C75.8633 108.859 75.8633 109.086 75.818 109.324C75.7953 109.437 75.7727 109.551 75.75 109.664C75.7387 109.766 75.7217 109.874 75.699 109.987L75.682 110.055C75.5233 110.758 75.342 111.5 75.138 112.282C74.9453 113.053 74.7697 113.784 74.611 114.475C74.475 115.042 74.3333 115.665 74.186 116.345C74.0387 117.025 73.8857 117.648 73.727 118.215C73.6703 118.408 73.608 118.6 73.54 118.793C73.4833 118.986 73.4097 119.178 73.319 119.371C73.2397 119.541 73.1433 119.694 73.03 119.83C72.928 119.955 72.809 120.045 72.673 120.102C72.537 120.17 72.3897 120.193 72.231 120.17C72.0837 120.159 71.9193 120.091 71.738 119.966C71.466 119.773 71.262 119.507 71.126 119.167C71.0013 118.827 70.871 118.515 70.735 118.232C70.6897 118.153 70.6217 117.977 70.531 117.705C70.4403 117.433 70.344 117.138 70.242 116.821C70.14 116.492 70.038 116.181 69.936 115.886C69.8453 115.58 69.766 115.353 69.698 115.206C69.596 115.455 69.494 115.739 69.392 116.056C69.29 116.373 69.1937 116.685 69.103 116.991C69.0123 117.297 68.9273 117.575 68.848 117.824C68.78 118.062 68.729 118.238 68.695 118.351C68.6043 118.578 68.5023 118.827 68.389 119.099C68.287 119.371 68.1567 119.603 67.998 119.796C67.8507 119.989 67.6693 120.113 67.454 120.17C67.2387 120.238 66.9837 120.176 66.689 119.983C66.4623 119.847 66.3037 119.654 66.213 119.405C66.1563 119.246 66.0997 119.093 66.043 118.946C65.9863 118.799 65.941 118.646 65.907 118.487L65.567 117.212L64.87 114.475C64.7793 114.124 64.6887 113.767 64.598 113.404C64.5187 113.03 64.4223 112.645 64.309 112.248C64.2523 112.055 64.2013 111.868 64.156 111.687C64.122 111.494 64.0823 111.29 64.037 111.075C64.003 110.848 63.9577 110.593 63.901 110.31C63.8557 110.027 63.799 109.698 63.731 109.324C63.7083 109.199 63.6913 109.086 63.68 108.984C63.68 108.871 63.6913 108.757 63.714 108.644C63.7367 108.474 63.816 108.327 63.952 108.202C64.0087 108.145 64.0767 108.1 64.156 108.066C64.2353 108.032 64.3203 108.004 64.411 107.981C64.547 107.936 64.6887 107.913 64.836 107.913C64.972 107.913 65.1137 107.958 65.261 108.049C65.363 108.106 65.4423 108.179 65.499 108.27L65.703 108.627C65.7257 108.706 65.7483 108.78 65.771 108.848C65.7937 108.905 65.8163 108.967 65.839 109.035C65.8617 109.114 65.8787 109.188 65.89 109.256C65.9013 109.313 65.9127 109.369 65.924 109.426C66.026 110.015 66.1507 110.588 66.298 111.143C66.4453 111.698 66.5813 112.231 66.706 112.741C66.7513 112.945 66.808 113.2 66.876 113.506C66.944 113.801 67.012 114.112 67.08 114.441C67.148 114.758 67.216 115.064 67.284 115.359C67.352 115.654 67.42 115.886 67.488 116.056C67.6353 115.546 67.7827 115.036 67.93 114.526C68.0887 114.016 68.2587 113.5 68.44 112.979C68.5307 112.707 68.6213 112.463 68.712 112.248C68.814 112.021 68.9273 111.834 69.052 111.687C69.1767 111.54 69.3183 111.443 69.477 111.398C69.6357 111.353 69.8227 111.37 70.038 111.449C70.2307 111.528 70.4007 111.698 70.548 111.959C70.6953 112.22 70.8257 112.486 70.939 112.758C71.041 113.007 71.1373 113.274 71.228 113.557C71.33 113.829 71.4263 114.101 71.517 114.373C71.619 114.634 71.7153 114.883 71.806 115.121C71.8967 115.359 71.9873 115.563 72.078 115.733C72.112 115.608 72.1517 115.45 72.197 115.257C72.2423 115.064 72.2877 114.86 72.333 114.645C72.3897 114.418 72.4407 114.197 72.486 113.982C72.5313 113.767 72.5767 113.568 72.622 113.387C72.7693 112.775 72.9223 112.163 73.081 111.551C73.2397 110.928 73.3927 110.316 73.54 109.715L73.625 109.426C73.6477 109.369 73.659 109.313 73.659 109.256C73.6703 109.188 73.6873 109.114 73.71 109.035C73.7327 108.967 73.7553 108.905 73.778 108.848C73.8007 108.78 73.8233 108.706 73.846 108.627C73.8687 108.57 73.8913 108.514 73.914 108.457C73.948 108.389 73.9877 108.327 74.033 108.27C74.067 108.213 74.1067 108.168 74.152 108.134C74.1973 108.1 74.2427 108.072 74.288 108.049C74.4467 107.958 74.5827 107.913 74.696 107.913C74.8433 107.913 74.985 107.936 75.121 107.981C75.3023 108.015 75.4667 108.089 75.614 108.202C75.7273 108.315 75.7953 108.463 75.818 108.644ZM79.3689 113.557C79.3689 113.874 79.3689 114.231 79.3689 114.628C79.3802 115.025 79.3859 115.438 79.3859 115.869C79.3859 116.288 79.3859 116.708 79.3859 117.127C79.3859 117.535 79.3802 117.915 79.3689 118.266C79.3575 118.436 79.3405 118.623 79.3179 118.827C79.2952 119.02 79.2499 119.201 79.1819 119.371C79.1139 119.541 79.0062 119.683 78.8589 119.796C78.7229 119.898 78.5359 119.943 78.2979 119.932C77.9465 119.909 77.6915 119.756 77.5329 119.473C77.3855 119.19 77.3005 118.793 77.2779 118.283C77.2779 118.022 77.2722 117.722 77.2609 117.382C77.2609 117.042 77.2552 116.696 77.2439 116.345C77.2439 115.994 77.2439 115.654 77.2439 115.325C77.2439 114.985 77.2439 114.679 77.2439 114.407C77.2439 114.248 77.2382 114.056 77.2269 113.829C77.2269 113.602 77.2325 113.37 77.2439 113.132C77.2552 112.894 77.2835 112.667 77.3289 112.452C77.3742 112.225 77.4479 112.038 77.5499 111.891C77.6292 111.8 77.7425 111.732 77.8899 111.687C78.0372 111.63 78.1902 111.602 78.3489 111.602C78.5189 111.602 78.6775 111.63 78.8249 111.687C78.9835 111.744 79.0969 111.823 79.1649 111.925C79.2102 111.993 79.2442 112.089 79.2669 112.214C79.2895 112.339 79.3065 112.48 79.3179 112.639C79.3405 112.786 79.3519 112.945 79.3519 113.115C79.3632 113.274 79.3689 113.421 79.3689 113.557ZM78.7229 110.123C78.3715 110.214 78.0769 110.18 77.8389 110.021C77.6122 109.851 77.4705 109.602 77.4139 109.273C77.3685 109.035 77.3855 108.825 77.4649 108.644C77.5442 108.463 77.6632 108.327 77.8219 108.236C77.9805 108.134 78.1619 108.089 78.3659 108.1C78.5699 108.111 78.7739 108.191 78.9779 108.338C79.1705 108.474 79.3065 108.633 79.3859 108.814C79.4765 108.995 79.5049 109.171 79.4709 109.341C79.4482 109.511 79.3745 109.67 79.2499 109.817C79.1252 109.953 78.9495 110.055 78.7229 110.123ZM85.7416 112.809C85.9343 112.866 86.059 112.973 86.1156 113.132C86.1723 113.279 86.1893 113.438 86.1666 113.608C86.0986 113.959 85.906 114.175 85.5886 114.254C85.4073 114.299 85.2203 114.322 85.0276 114.322C84.8463 114.322 84.6593 114.328 84.4666 114.339V118.266C84.4666 118.538 84.4496 118.816 84.4156 119.099C84.4156 119.201 84.3873 119.309 84.3306 119.422C84.308 119.479 84.291 119.513 84.2796 119.524C84.2796 119.547 84.2683 119.581 84.2456 119.626C84.1776 119.751 84.087 119.853 83.9736 119.932C83.7243 120.068 83.458 120.102 83.1746 120.034C83.0046 120 82.8743 119.943 82.7836 119.864C82.6816 119.785 82.608 119.688 82.5626 119.575C82.54 119.518 82.523 119.462 82.5116 119.405C82.5003 119.348 82.4833 119.292 82.4606 119.235C82.4493 119.178 82.438 119.127 82.4266 119.082C82.4266 119.025 82.4266 118.98 82.4266 118.946V117.96C82.4266 117.371 82.4266 116.759 82.4266 116.124C82.438 115.489 82.4436 114.877 82.4436 114.288C82.183 114.277 81.911 114.271 81.6276 114.271C81.3556 114.26 81.1573 114.192 81.0326 114.067C80.9646 113.999 80.9193 113.914 80.8966 113.812C80.874 113.699 80.8626 113.585 80.8626 113.472C80.874 113.359 80.8966 113.257 80.9306 113.166C80.9646 113.064 81.01 112.99 81.0666 112.945C81.214 112.809 81.3443 112.735 81.4576 112.724C81.5823 112.701 81.7353 112.684 81.9166 112.673C81.9393 112.673 82.013 112.673 82.1376 112.673C82.2736 112.662 82.3586 112.656 82.3926 112.656C82.404 112.271 82.4153 111.885 82.4266 111.5C82.438 111.115 82.472 110.763 82.5286 110.446C82.5966 110.117 82.693 109.834 82.8176 109.596C82.9536 109.347 83.1576 109.16 83.4296 109.035C83.7583 108.888 84.1323 108.797 84.5516 108.763C84.971 108.729 85.3506 108.78 85.6906 108.916C85.8493 108.973 86.0023 109.086 86.1496 109.256C86.3083 109.426 86.382 109.613 86.3706 109.817C86.3593 110.021 86.3196 110.208 86.2516 110.378C86.1836 110.548 86.0363 110.661 85.8096 110.718C85.7076 110.741 85.6 110.752 85.4866 110.752C85.3846 110.741 85.277 110.735 85.1636 110.735C85.0503 110.735 84.9426 110.752 84.8406 110.786C84.75 110.809 84.6706 110.86 84.6026 110.939C84.546 111.007 84.5063 111.098 84.4836 111.211C84.4723 111.324 84.461 111.443 84.4496 111.568C84.4383 111.693 84.4326 111.817 84.4326 111.942C84.444 112.055 84.4496 112.152 84.4496 112.231V112.656C84.7103 112.679 84.9483 112.696 85.1636 112.707C85.3903 112.718 85.583 112.752 85.7416 112.809ZM92.9038 117.671C93.0398 117.637 93.1758 117.614 93.3118 117.603C93.4591 117.592 93.5895 117.609 93.7028 117.654C93.8275 117.699 93.9295 117.779 94.0088 117.892C94.0881 117.994 94.1278 118.141 94.1278 118.334C94.1278 118.47 94.0938 118.6 94.0258 118.725C93.9578 118.85 93.8728 118.963 93.7708 119.065C93.6688 119.167 93.5555 119.258 93.4308 119.337C93.3061 119.405 93.1871 119.462 93.0738 119.507C92.7451 119.654 92.3655 119.768 91.9348 119.847C91.5155 119.926 91.0791 119.955 90.6258 119.932C90.0138 119.909 89.4245 119.79 88.8578 119.575C88.3025 119.348 87.8661 118.98 87.5488 118.47C87.2541 117.971 87.0785 117.416 87.0218 116.804C86.9651 116.192 86.9935 115.614 87.1068 115.07C87.2315 114.413 87.4411 113.88 87.7358 113.472C88.0418 113.053 88.4045 112.718 88.8238 112.469C89.3338 112.174 89.9061 112.021 90.5408 112.01C91.1755 111.999 91.7818 112.123 92.3598 112.384C92.7451 112.554 93.0908 112.786 93.3968 113.081C93.7028 113.364 93.9351 113.71 94.0938 114.118C94.1391 114.22 94.1731 114.345 94.1958 114.492C94.2298 114.639 94.2525 114.798 94.2638 114.968C94.2751 115.127 94.2751 115.285 94.2638 115.444C94.2525 115.603 94.2241 115.744 94.1788 115.869C94.1108 116.073 94.0258 116.232 93.9238 116.345C93.8218 116.458 93.6915 116.543 93.5328 116.6C93.3741 116.657 93.1815 116.696 92.9548 116.719C92.7395 116.73 92.4788 116.742 92.1728 116.753C91.9008 116.764 91.6458 116.77 91.4078 116.77C91.1698 116.77 90.9261 116.77 90.6768 116.77C90.4275 116.759 90.1668 116.753 89.8948 116.753C89.6341 116.742 89.3395 116.73 89.0108 116.719C88.9768 116.946 89.0051 117.144 89.0958 117.314C89.1978 117.473 89.3338 117.609 89.5038 117.722C89.6738 117.824 89.8665 117.903 90.0818 117.96C90.2971 118.017 90.5068 118.051 90.7108 118.062C91.0961 118.085 91.4645 118.056 91.8158 117.977C92.1671 117.886 92.5298 117.784 92.9038 117.671ZM92.1728 114.373C91.9575 114.124 91.7308 113.942 91.4928 113.829C91.3115 113.75 91.1188 113.716 90.9148 113.727C90.7221 113.727 90.5351 113.755 90.3538 113.812C90.0251 113.891 89.7475 114.061 89.5208 114.322C89.4981 114.345 89.4585 114.401 89.4018 114.492C89.3451 114.571 89.2885 114.656 89.2318 114.747C89.1865 114.838 89.1525 114.923 89.1298 115.002C89.1071 115.081 89.1185 115.121 89.1638 115.121H92.4958C92.4845 114.962 92.4561 114.832 92.4108 114.73C92.3655 114.617 92.2861 114.498 92.1728 114.373Z" fill="black"/>
<path d="M60.5 69L62.5 68L66 68L68.5 69L70.875 70.5L72.5 73.5L74.5 69.5L79.25 67L82 67.5L85 69.5L86 73.25L86 76.375L85 79.5L84 82.25L82 85L79.25 88L73 92.5L62.5 84.5L59.5 79L59 76L59 73L59 71.5L60.5 69Z" fill="#FF0000"/>
<path fill-rule="evenodd" clip-rule="evenodd" d="M63.6052 67.2407C62.3649 67.5143 61.3287 68.0959 60.4757 68.9973C59.4836 70.0456 58.8362 71.3582 58.5208 72.9604C58.373 73.7115 58.3498 74.157 58.4044 75.1912C58.457 76.186 58.5269 76.6681 58.7321 77.45C59.5527 80.5769 61.4591 83.7882 64.1049 86.4998C66.263 88.7115 69.6461 91.0425 72.5714 92.3333C73.4554 92.7233 73.4174 92.7275 74.4091 92.1288C77.9641 89.9824 81.0732 87.074 83.1378 83.9635C86.0237 79.6161 87.1493 75.2566 86.2693 71.8361C85.8207 70.0923 84.6651 68.3758 83.3021 67.4289C81.6005 66.2467 79.6264 66.0155 77.6482 66.7667C77.1783 66.9452 76.3119 67.4287 75.8589 67.7653C75.225 68.2364 74.377 69.1648 73.8042 70.0148C73.4436 70.5499 72.8671 71.6399 72.6003 72.2908L72.3863 72.8129L71.9624 72.0902C70.332 69.3105 68.237 67.6355 65.862 67.2124C65.2183 67.0978 64.1951 67.1106 63.6052 67.2407ZM63.5521 68.4604C62.4863 68.7139 61.5551 69.263 60.7681 70.1017C59.861 71.0685 59.3064 72.2604 59.0904 73.7069C59 74.3124 59.106 76.3011 59.2645 76.9731C59.6128 78.45 60.2658 80.0279 61.0945 81.3948C61.4589 81.9959 61.5096 82.0707 61.9985 82.7285C64.5042 86.0996 68.268 88.9793 72.6258 90.8598L73.3071 91.1538L73.6957 90.9623C74.4127 90.609 75.7841 89.7322 76.9059 88.9099C78.6885 87.6035 79.9684 86.4474 81.272 84.9663C84.0603 81.7983 85.628 78.4059 85.8806 74.993C85.9244 74.401 85.8569 73.0927 85.7602 72.6586C85.2427 70.3359 83.9551 68.697 82.0164 67.8934C81.1224 67.5229 80.0217 67.4389 78.7575 67.6449C77.9754 67.7722 76.914 68.2608 76.0965 68.8699C74.8396 69.8062 74.0037 70.9234 73.0798 72.9018C72.8888 73.3109 72.6846 73.7166 72.6261 73.8034C72.4187 74.1109 72.2834 74.0056 71.8084 73.1669C71.0932 71.9039 70.4092 71.029 69.4974 70.2104C68.7898 69.5753 68.1864 69.1813 67.4112 68.8483C66.3872 68.4085 65.6559 68.2791 64.558 68.3434C64.1828 68.3654 63.7301 68.4181 63.5521 68.4604Z" fill="black"/>
</svg>
