<svg width="195" height="151" viewBox="0 0 195 151" fill="none" xmlns="http://www.w3.org/2000/svg">
<path fill-rule="evenodd" clip-rule="evenodd" d="M73.2288 18.1051C56.7228 20.0241 37.2578 25.8651 28.3028 31.5871C19.4148 37.2651 19.4248 37.2251 20.7938 59.3701C21.4448 69.8921 22.6808 83.9001 23.5408 90.5001C25.8508 108.225 30.8908 127.239 30.9628 118.5C30.9758 116.85 30.5338 112.8 29.9798 109.5C26.6198 89.5031 22.7568 45.0001 24.3798 45.0001C24.7528 45.0001 27.6328 46.0761 30.7788 47.3911C43.5258 52.7191 65.9168 55.5151 82.9988 53.9121C102.734 52.0591 116.261 48.5781 128.269 42.2621C131.146 40.7491 133.907 39.3351 134.406 39.1201C135.684 38.5681 134.45 65.9131 132.538 80.5001C131.673 87.1001 130.044 98.0341 128.919 104.797C127.793 111.56 127.048 118.085 127.264 119.297C127.609 121.243 127.838 121.091 129.222 118C130.084 116.075 131.537 110.675 132.45 106C134.775 94.1031 134.451 94.6651 137.931 96.4651C142.151 98.6471 151.461 98.3881 158.881 95.8821C169.982 92.1341 178.711 83.5371 180.967 74.1321C183.487 63.6291 177.27 52.0441 165.954 46.1551C160.222 43.1721 158.857 42.8531 153.769 43.3011C150.311 43.6061 146.265 44.7981 143.566 46.3071L139.093 48.8071L138.454 44.1531C136.779 31.9341 135.357 29.9211 124.999 25.1011C110.325 18.2741 92.4968 15.8641 73.2288 18.1051ZM69.7348 22.0221C54.1728 24.4781 36.0598 30.2101 27.6088 35.3531L23.7188 37.7201L25.8588 39.8601C28.7438 42.7451 30.4798 42.5781 39.2718 38.5721C66.9748 25.9471 101.146 24.9661 122.204 36.1901L128.114 39.3401L130.806 36.6141C133.469 33.9201 133.476 33.8721 131.499 32.3561C127.99 29.6671 118.747 25.9301 110.499 23.8671C101.325 21.5711 78.9948 20.5601 69.7348 22.0221ZM144.499 49.7731C139.678 52.4021 139.488 52.6721 139.192 57.3051L138.885 62.1101L141.892 60.5551C155.198 53.6751 167.725 58.3811 167.353 70.1221C167.16 76.1911 165.842 78.4311 160.731 81.3731C154.441 84.9921 149.362 85.4971 142.718 83.1621C139.647 82.0821 136.878 81.4541 136.566 81.7661C136.254 82.0781 135.999 84.2731 135.999 86.6441C135.999 92.5071 138.609 94.1921 147.581 94.1231C152.832 94.0831 155.614 93.4331 160.687 91.0591C170.26 86.5791 172.994 84.2521 175.745 78.2431C178.951 71.2411 178.518 64.9961 174.36 58.2561C167.833 47.6731 155.023 44.0341 144.499 49.7731ZM143.499 63.7731C138.596 66.4471 138.493 66.6001 138.201 71.6371L137.902 76.7751L142.266 78.8871C147.635 81.4861 152.216 81.5381 157.668 79.0631C164.759 75.8441 166.273 69.1201 161.076 63.9231C157.104 59.9511 150.609 59.8961 143.499 63.7731ZM115.499 128.072C88.8268 141.202 61.4148 141.139 40.4988 127.899C36.7698 125.538 34.1438 124.455 33.5618 125.037C30.9668 127.631 45.5788 136.465 57.4588 139.485C65.3568 141.493 83.8738 141.455 93.7908 139.412C107.574 136.572 124.751 128.694 126.373 124.469C127.165 122.405 126.696 122.56 115.499 128.072Z" fill="#827667"/>
<path fill-rule="evenodd" clip-rule="evenodd" d="M73.2288 18.1051C56.7228 20.0241 37.2578 25.8651 28.3028 31.5871C19.4148 37.2651 19.4248 37.2251 20.7938 59.3701C21.4448 69.8921 22.6808 83.9001 23.5408 90.5001C25.8508 108.225 30.8908 127.239 30.9628 118.5C30.9758 116.85 30.5338 112.8 29.9798 109.5C26.6198 89.5031 22.7568 45.0001 24.3798 45.0001C24.7528 45.0001 27.6328 46.0761 30.7788 47.3911C43.5258 52.7191 65.9168 55.5151 82.9988 53.9121C102.734 52.0591 116.261 48.5781 128.269 42.2621C131.146 40.7491 133.907 39.3351 134.406 39.1201C135.684 38.5681 134.45 65.9131 132.538 80.5001C131.673 87.1001 130.044 98.0341 128.919 104.797C127.793 111.56 127.048 118.085 127.264 119.297C127.609 121.243 127.838 121.091 129.222 118C130.084 116.075 131.537 110.675 132.45 106C134.775 94.1031 134.451 94.6651 137.931 96.4651C142.151 98.6471 151.461 98.3881 158.881 95.8821C169.982 92.1341 178.711 83.5371 180.967 74.1321C183.487 63.6291 177.27 52.0441 165.954 46.1551C160.222 43.1721 158.857 42.8531 153.769 43.3011C150.311 43.6061 146.265 44.7981 143.566 46.3071L139.093 48.8071L138.454 44.1531C136.779 31.9341 135.357 29.9211 124.999 25.1011C110.325 18.2741 92.4968 15.8641 73.2288 18.1051ZM69.7348 22.0221C54.1728 24.4781 36.0598 30.2101 27.6088 35.3531L23.7188 37.7201L25.8588 39.8601C28.7438 42.7451 30.4798 42.5781 39.2718 38.5721C66.9748 25.9471 101.146 24.9661 122.204 36.1901L128.114 39.3401L130.806 36.6141C133.469 33.9201 133.476 33.8721 131.499 32.3561C127.99 29.6671 118.747 25.9301 110.499 23.8671C101.325 21.5711 78.9948 20.5601 69.7348 22.0221ZM144.499 49.7731C139.678 52.4021 139.488 52.6721 139.192 57.3051L138.885 62.1101L141.892 60.5551C155.198 53.6751 167.725 58.3811 167.353 70.1221C167.16 76.1911 165.842 78.4311 160.731 81.3731C154.441 84.9921 149.362 85.4971 142.718 83.1621C139.647 82.0821 136.878 81.4541 136.566 81.7661C136.254 82.0781 135.999 84.2731 135.999 86.6441C135.999 92.5071 138.609 94.1921 147.581 94.1231C152.832 94.0831 155.614 93.4331 160.687 91.0591C170.26 86.5791 172.994 84.2521 175.745 78.2431C178.951 71.2411 178.518 64.9961 174.36 58.2561C167.833 47.6731 155.023 44.0341 144.499 49.7731ZM143.499 63.7731C138.596 66.4471 138.493 66.6001 138.201 71.6371L137.902 76.7751L142.266 78.8871C147.635 81.4861 152.216 81.5381 157.668 79.0631C164.759 75.8441 166.273 69.1201 161.076 63.9231C157.104 59.9511 150.609 59.8961 143.499 63.7731ZM115.499 128.072C88.8268 141.202 61.4148 141.139 40.4988 127.899C36.7698 125.538 34.1438 124.455 33.5618 125.037C30.9668 127.631 45.5788 136.465 57.4588 139.485C65.3568 141.493 83.8738 141.455 93.7908 139.412C107.574 136.572 124.751 128.694 126.373 124.469C127.165 122.405 126.696 122.56 115.499 128.072Z" fill="#827667"/>
<path d="M46.207 83.198L46.224 81.855L46.241 79.356C46.2523 78.9933 46.258 78.6193 46.258 78.234C46.258 77.8487 46.258 77.452 46.258 77.044C46.258 76.636 46.258 76.2733 46.258 75.956C46.258 75.6387 46.2693 75.2817 46.292 74.885V74.817C46.3033 74.7037 46.309 74.5903 46.309 74.477C46.3203 74.3523 46.326 74.2277 46.326 74.103C46.3373 73.899 46.3997 73.678 46.513 73.44C46.5923 73.2813 46.7113 73.1453 46.87 73.032C47.0513 72.9413 47.227 72.896 47.397 72.896C47.4877 72.896 47.567 72.9017 47.635 72.913C47.7143 72.913 47.788 72.9187 47.856 72.93C48.0033 72.9527 48.1337 73.0207 48.247 73.134C48.315 73.1907 48.3773 73.2813 48.434 73.406C48.4567 73.474 48.4737 73.542 48.485 73.61C48.5077 73.6667 48.5247 73.729 48.536 73.797C48.5473 73.8763 48.553 73.95 48.553 74.018C48.5643 74.086 48.57 74.154 48.57 74.222C48.57 74.3013 48.5643 74.375 48.553 74.443C48.553 74.4997 48.553 74.562 48.553 74.63V74.919L48.451 83.742V83.912C48.451 83.946 48.4453 83.9913 48.434 84.048C48.434 84.0933 48.4283 84.15 48.417 84.218C48.3943 84.2747 48.3717 84.337 48.349 84.405C48.3377 84.4617 48.3207 84.524 48.298 84.592C48.264 84.6487 48.2243 84.7053 48.179 84.762C48.145 84.8073 48.0997 84.8527 48.043 84.898C47.9523 84.9887 47.805 85.051 47.601 85.085C47.295 85.153 47.006 85.1247 46.734 85C46.598 84.9093 46.5017 84.796 46.445 84.66C46.411 84.626 46.394 84.592 46.394 84.558C46.3827 84.5353 46.3713 84.5183 46.36 84.507C46.3487 84.4957 46.3373 84.4787 46.326 84.456C46.3033 84.3993 46.2863 84.3427 46.275 84.286C46.2637 84.218 46.258 84.15 46.258 84.082C46.2467 84.0253 46.2353 83.9687 46.224 83.912C46.224 83.8553 46.2183 83.7987 46.207 83.742C46.1957 83.6513 46.1957 83.555 46.207 83.453V83.198Z" fill="black"/>
<path d="M109.732 80.9511C109.742 81.0872 109.748 81.2298 109.748 81.3789C109.749 81.528 109.731 81.6685 109.694 81.8005C109.66 81.9437 109.603 82.0559 109.524 82.1373C109.419 82.2687 109.283 82.3533 109.117 82.3911C108.969 82.4719 108.82 82.5126 108.671 82.5133C108.522 82.514 108.382 82.4961 108.25 82.4596C108.077 82.3837 107.941 82.2848 107.841 82.1628C107.751 82.028 107.677 81.8848 107.618 81.7334C107.56 81.582 107.518 81.4224 107.491 81.2545C107.464 81.0866 107.44 80.9299 107.416 80.7843L107.209 79.4747L106.785 76.9083C106.757 76.7292 106.735 76.5893 106.719 76.4886C106.703 76.3878 106.689 76.2983 106.676 76.2199C106.662 76.1304 106.641 76.0361 106.614 75.9371C106.597 75.8252 106.572 75.6685 106.54 75.467C106.535 75.4334 106.526 75.3775 106.513 75.2991C106.51 75.2078 106.468 74.9792 106.387 74.6133C106.066 75.4101 105.795 76.0554 105.575 76.5492C105.365 77.0301 105.178 77.4096 105.016 77.6878C104.862 77.953 104.72 78.1419 104.589 78.2545C104.456 78.3559 104.312 78.4246 104.157 78.4606C104.069 78.486 103.977 78.4834 103.88 78.4528C103.784 78.4222 103.685 78.3804 103.585 78.3275C103.496 78.2727 103.407 78.218 103.318 78.1632C103.238 78.0955 103.171 78.0316 103.116 77.9715C102.794 77.6783 102.428 77.3232 102.017 76.9062C101.607 76.4893 101.17 75.9733 100.705 75.3584C100.707 75.3696 100.73 75.5552 100.776 75.9152C100.833 76.2734 100.904 76.7211 100.989 77.2584C101.072 77.7845 101.157 78.3563 101.243 78.9738C101.339 79.5782 101.423 80.1444 101.495 80.6723C101.578 81.1984 101.643 81.6414 101.688 82.0014C101.732 82.3502 101.748 82.5255 101.737 82.5272C101.767 82.7175 101.751 82.9037 101.688 83.0858C101.623 83.2567 101.521 83.4049 101.38 83.5305C101.25 83.6543 101.086 83.7377 100.886 83.7808C100.686 83.824 100.459 83.8026 100.204 83.7167C100.045 83.6502 99.9124 83.5392 99.8074 83.3837C99.7137 83.2264 99.6441 83.0768 99.5986 82.9348C99.5626 82.7799 99.5275 82.6305 99.4932 82.4868C99.4702 82.3412 99.4463 82.1901 99.4214 82.0334L99.2308 80.7211L98.838 78.1327L98.4817 75.8827C98.3274 74.9088 98.2094 73.9464 98.1277 72.9955C98.1082 72.8724 98.1016 72.7587 98.1081 72.6544C98.1239 72.5371 98.1463 72.4246 98.1751 72.3168C98.2363 72.1235 98.3325 71.9705 98.4639 71.8579C98.6158 71.7306 98.7869 71.6519 98.9772 71.6217C99.0556 71.6093 99.1292 71.6034 99.1982 71.6039C99.2765 71.5915 99.3502 71.5856 99.4191 71.5862C99.6501 71.5955 99.8616 71.6997 100.054 71.8987C100.255 72.0848 100.441 72.2447 100.612 72.3783C100.717 72.4649 100.832 72.573 100.956 72.7025C101.079 72.8321 101.204 72.9673 101.33 73.108C101.455 73.2488 101.574 73.3848 101.687 73.5161C101.8 73.6475 101.898 73.7638 101.983 73.8651C102.349 74.2891 102.674 74.6793 102.96 75.0357C103.257 75.3902 103.529 75.6914 103.775 75.9394C103.803 75.9005 103.835 75.8495 103.871 75.7864C103.905 75.7122 103.939 75.6379 103.973 75.5637C104.017 75.4765 104.05 75.3966 104.073 75.3241C104.107 75.2499 104.132 75.1886 104.147 75.1403C104.231 74.9434 104.315 74.7522 104.401 74.5666C104.484 74.3697 104.573 74.1664 104.666 73.9566C104.768 73.7339 104.868 73.4943 104.965 73.238C105.073 72.9798 105.198 72.6846 105.341 72.3522C105.398 72.2055 105.473 72.0272 105.566 71.8174C105.659 71.6076 105.77 71.4008 105.898 71.1968C106.026 70.9929 106.165 70.8161 106.313 70.6664C106.471 70.5037 106.639 70.4082 106.818 70.3798C106.908 70.3656 106.987 70.3588 107.056 70.3593C107.123 70.3487 107.191 70.3437 107.26 70.3442C107.396 70.3341 107.535 70.3753 107.676 70.4678C107.78 70.5431 107.862 70.6276 107.922 70.7213C107.99 70.8597 108.038 70.9784 108.065 71.0774C108.089 71.154 108.106 71.2258 108.116 71.293C108.138 71.3584 108.154 71.4247 108.165 71.4918C108.264 72.1187 108.368 72.7391 108.477 73.3529C108.586 73.9668 108.69 74.5872 108.789 75.214C108.91 75.9752 109.034 76.7588 109.161 77.5647C109.3 78.3689 109.43 79.1516 109.55 79.9128C109.575 80.0695 109.607 80.2365 109.647 80.4138C109.687 80.5912 109.715 80.7703 109.732 80.9511ZM117.812 73.2342C117.937 73.375 118.009 73.5358 118.026 73.7167C118.067 73.9741 118.057 74.2051 117.998 74.4096C117.984 74.4691 117.962 74.5472 117.932 74.6438C117.912 74.7387 117.888 74.84 117.859 74.9479C117.842 75.0539 117.818 75.1553 117.787 75.2519C117.756 75.3486 117.733 75.421 117.718 75.4694L117.698 75.5586C117.596 75.9305 117.498 76.2902 117.404 76.6379C117.31 76.9855 117.203 77.3583 117.082 77.756C116.96 78.1426 116.842 78.5227 116.729 78.8963C116.626 79.2569 116.521 79.612 116.416 79.9614C116.385 80.058 116.36 80.1538 116.341 80.2487C116.32 80.3323 116.288 80.4234 116.246 80.5218L115.714 82.3789C115.615 82.693 115.52 83.0006 115.43 83.3017C115.351 83.601 115.256 83.9031 115.143 84.2077C115.119 84.269 115.093 84.3247 115.067 84.3748C115.053 84.4343 115.04 84.4938 115.026 84.5533C114.969 84.7001 114.872 84.8474 114.735 84.9954C114.61 85.1527 114.465 85.2503 114.299 85.2881C114 85.3584 113.723 85.3105 113.467 85.1445C113.321 85.0874 113.197 84.9923 113.095 84.8592C113.034 84.7655 112.992 84.6403 112.967 84.4836C112.967 84.4147 112.962 84.3466 112.952 84.2795C112.954 84.2217 112.956 84.164 112.959 84.1062C112.972 84.0467 112.98 83.9881 112.982 83.9304C112.985 83.8726 112.994 83.8252 113.012 83.7881C113.031 83.6932 113.052 83.644 113.074 83.6404L113.88 80.7934C113.804 80.6791 113.729 80.5648 113.653 80.4506C113.576 80.3251 113.507 80.2155 113.446 80.1219C113.246 79.7979 113.032 79.459 112.803 79.105C112.585 78.738 112.361 78.3775 112.133 78.0235C111.903 77.6583 111.669 77.3052 111.432 76.9642C111.194 76.6232 110.959 76.2989 110.727 75.9915C110.642 75.8902 110.562 75.7824 110.486 75.6681C110.409 75.5427 110.344 75.421 110.291 75.3032C110.236 75.1742 110.203 75.0417 110.193 74.9056C110.183 74.7695 110.212 74.6272 110.281 74.4787C110.344 74.2966 110.442 74.1604 110.577 74.0702C110.71 73.9688 110.856 73.9113 111.015 73.8977C111.183 73.8711 111.345 73.8798 111.501 73.9239C111.657 73.968 111.789 74.039 111.896 74.1367C112.118 74.3081 112.305 74.508 112.456 74.7366C112.607 74.9651 112.753 75.2001 112.894 75.4416C113.178 75.8557 113.471 76.2913 113.773 76.7483C114.075 77.2054 114.375 77.6513 114.673 78.0859L115.254 76.1007C115.315 75.9074 115.366 75.7215 115.406 75.5429C115.458 75.3626 115.511 75.1879 115.564 75.0188C115.624 74.8143 115.676 74.6051 115.723 74.3912C115.781 74.1755 115.852 73.9749 115.937 73.7892C115.953 73.7409 115.969 73.6982 115.986 73.6611C116.003 73.6239 116.019 73.5812 116.035 73.5329C116.114 73.3826 116.187 73.2621 116.253 73.1713C116.302 73.1177 116.341 73.077 116.371 73.0493C116.41 73.0086 116.457 72.9783 116.511 72.9582C116.586 72.9234 116.657 72.9007 116.724 72.8901C116.801 72.8665 116.874 72.8549 116.943 72.8555C117.06 72.8713 117.202 72.9004 117.37 72.9428C117.548 72.9833 117.696 73.0805 117.812 73.2342Z" fill="black"/>
<path d="M72.707 117.144C72.8543 117.473 72.86 117.796 72.724 118.113C72.588 118.419 72.3727 118.702 72.078 118.963C71.7833 119.224 71.4433 119.45 71.058 119.643C70.684 119.836 70.327 119.972 69.987 120.051C69.613 120.13 69.2163 120.164 68.797 120.153C68.389 120.153 67.9753 120.102 67.556 120C67.148 119.909 66.7457 119.773 66.349 119.592C65.9637 119.399 65.6067 119.167 65.278 118.895C64.8813 118.566 64.5697 118.175 64.343 117.722C64.1277 117.257 63.969 116.764 63.867 116.243C63.765 115.722 63.7083 115.2 63.697 114.679C63.697 114.146 63.714 113.648 63.748 113.183C63.782 112.764 63.867 112.327 64.003 111.874C64.139 111.421 64.326 110.979 64.564 110.548C64.8133 110.106 65.108 109.698 65.448 109.324C65.7993 108.95 66.2073 108.633 66.672 108.372C67.0233 108.168 67.4143 108.032 67.845 107.964C68.287 107.885 68.729 107.868 69.171 107.913C69.6243 107.947 70.0493 108.043 70.446 108.202C70.854 108.349 71.1997 108.553 71.483 108.814C71.6643 108.973 71.8513 109.194 72.044 109.477C72.248 109.76 72.3953 110.049 72.486 110.344C72.5767 110.639 72.5767 110.916 72.486 111.177C72.4067 111.426 72.18 111.596 71.806 111.687C71.6473 111.732 71.5057 111.744 71.381 111.721C71.2563 111.687 71.143 111.636 71.041 111.568C70.939 111.489 70.8427 111.398 70.752 111.296C70.6613 111.194 70.5763 111.092 70.497 110.99C70.225 110.661 69.9077 110.44 69.545 110.327C69.1823 110.202 68.8197 110.174 68.457 110.242C68.1057 110.299 67.7713 110.446 67.454 110.684C67.148 110.911 66.91 111.205 66.74 111.568C66.5587 111.953 66.4113 112.378 66.298 112.843C66.196 113.296 66.1393 113.761 66.128 114.237C66.1167 114.702 66.1563 115.155 66.247 115.597C66.349 116.039 66.519 116.43 66.757 116.77C66.9383 117.042 67.1593 117.263 67.42 117.433C67.692 117.603 67.981 117.722 68.287 117.79C68.593 117.858 68.899 117.869 69.205 117.824C69.5223 117.779 69.8283 117.677 70.123 117.518C70.2137 117.473 70.31 117.41 70.412 117.331C70.5253 117.24 70.6387 117.15 70.752 117.059C70.8653 116.968 70.9787 116.883 71.092 116.804C71.2167 116.725 71.347 116.668 71.483 116.634C71.687 116.566 71.908 116.572 72.146 116.651C72.3953 116.73 72.5823 116.895 72.707 117.144ZM76.3818 112.316C76.7558 112.135 77.1468 112.004 77.5548 111.925C77.9628 111.846 78.3651 111.829 78.7618 111.874C79.1698 111.919 79.5608 112.027 79.9348 112.197C80.3201 112.367 80.6715 112.605 80.9888 112.911C81.2495 113.172 81.4761 113.489 81.6688 113.863C81.8615 114.226 82.0031 114.583 82.0938 114.934C82.2865 115.557 82.3148 116.186 82.1788 116.821C82.0428 117.456 81.8105 118.045 81.4818 118.589C81.3231 118.838 81.1248 119.065 80.8868 119.269C80.6601 119.462 80.4165 119.62 80.1558 119.745C79.8158 119.904 79.4475 120.011 79.0508 120.068C78.6541 120.136 78.2688 120.153 77.8948 120.119C77.2148 120.085 76.6141 119.915 76.0928 119.609C75.5828 119.303 75.1691 118.912 74.8518 118.436C74.5458 117.96 74.3418 117.422 74.2398 116.821C74.1491 116.209 74.1888 115.586 74.3588 114.951C74.5401 114.271 74.8008 113.721 75.1408 113.302C75.4921 112.871 75.9058 112.543 76.3818 112.316ZM76.8918 114.594C76.7218 114.753 76.5915 114.951 76.5008 115.189C76.4101 115.427 76.3535 115.676 76.3308 115.937C76.3081 116.186 76.3251 116.441 76.3818 116.702C76.4498 116.951 76.5518 117.178 76.6878 117.382C76.8011 117.552 77.0051 117.694 77.2998 117.807C77.5945 117.92 77.9005 117.988 78.2178 118.011C78.5805 118.034 78.8978 117.937 79.1698 117.722C79.4418 117.495 79.6458 117.218 79.7818 116.889C79.9291 116.56 79.9971 116.203 79.9858 115.818C79.9745 115.433 79.8725 115.081 79.6798 114.764C79.5438 114.537 79.3511 114.373 79.1018 114.271C78.8638 114.158 78.6088 114.101 78.3368 114.101C78.0761 114.09 77.8155 114.129 77.5548 114.22C77.2941 114.299 77.0731 114.424 76.8918 114.594ZM87.9828 112.809C88.1755 112.866 88.3002 112.973 88.3568 113.132C88.4135 113.279 88.4305 113.438 88.4078 113.608C88.3398 113.959 88.1472 114.175 87.8298 114.254C87.6485 114.299 87.4615 114.322 87.2688 114.322C87.0875 114.322 86.9005 114.328 86.7078 114.339V118.266C86.7078 118.538 86.6908 118.816 86.6568 119.099C86.6568 119.201 86.6285 119.309 86.5718 119.422C86.5492 119.479 86.5322 119.513 86.5208 119.524C86.5208 119.547 86.5095 119.581 86.4868 119.626C86.4188 119.751 86.3282 119.853 86.2148 119.932C85.9655 120.068 85.6992 120.102 85.4158 120.034C85.2458 120 85.1155 119.943 85.0248 119.864C84.9228 119.785 84.8492 119.688 84.8038 119.575C84.7812 119.518 84.7642 119.462 84.7528 119.405C84.7415 119.348 84.7245 119.292 84.7018 119.235C84.6905 119.178 84.6792 119.127 84.6678 119.082C84.6678 119.025 84.6678 118.98 84.6678 118.946V117.96C84.6678 117.371 84.6678 116.759 84.6678 116.124C84.6792 115.489 84.6848 114.877 84.6848 114.288C84.4242 114.277 84.1522 114.271 83.8688 114.271C83.5968 114.26 83.3985 114.192 83.2738 114.067C83.2058 113.999 83.1605 113.914 83.1378 113.812C83.1152 113.699 83.1038 113.585 83.1038 113.472C83.1152 113.359 83.1378 113.257 83.1718 113.166C83.2058 113.064 83.2512 112.99 83.3078 112.945C83.4552 112.809 83.5855 112.735 83.6988 112.724C83.8235 112.701 83.9765 112.684 84.1578 112.673C84.1805 112.673 84.2542 112.673 84.3788 112.673C84.5148 112.662 84.5998 112.656 84.6338 112.656C84.6452 112.271 84.6565 111.885 84.6678 111.5C84.6792 111.115 84.7132 110.763 84.7698 110.446C84.8378 110.117 84.9342 109.834 85.0588 109.596C85.1948 109.347 85.3988 109.16 85.6708 109.035C85.9995 108.888 86.3735 108.797 86.7928 108.763C87.2122 108.729 87.5918 108.78 87.9318 108.916C88.0905 108.973 88.2435 109.086 88.3908 109.256C88.5495 109.426 88.6232 109.613 88.6118 109.817C88.6005 110.021 88.5608 110.208 88.4928 110.378C88.4248 110.548 88.2775 110.661 88.0508 110.718C87.9488 110.741 87.8412 110.752 87.7278 110.752C87.6258 110.741 87.5182 110.735 87.4048 110.735C87.2915 110.735 87.1838 110.752 87.0818 110.786C86.9912 110.809 86.9118 110.86 86.8438 110.939C86.7872 111.007 86.7475 111.098 86.7248 111.211C86.7135 111.324 86.7022 111.443 86.6908 111.568C86.6795 111.693 86.6738 111.817 86.6738 111.942C86.6852 112.055 86.6908 112.152 86.6908 112.231V112.656C86.9515 112.679 87.1895 112.696 87.4048 112.707C87.6315 112.718 87.8242 112.752 87.9828 112.809ZM94.308 112.809C94.5007 112.866 94.6254 112.973 94.682 113.132C94.7387 113.279 94.7557 113.438 94.733 113.608C94.665 113.959 94.4724 114.175 94.155 114.254C93.9737 114.299 93.7867 114.322 93.594 114.322C93.4127 114.322 93.2257 114.328 93.033 114.339V118.266C93.033 118.538 93.016 118.816 92.982 119.099C92.982 119.201 92.9537 119.309 92.897 119.422C92.8744 119.479 92.8574 119.513 92.846 119.524C92.846 119.547 92.8347 119.581 92.812 119.626C92.744 119.751 92.6534 119.853 92.54 119.932C92.2907 120.068 92.0244 120.102 91.741 120.034C91.571 120 91.4407 119.943 91.35 119.864C91.248 119.785 91.1744 119.688 91.129 119.575C91.1064 119.518 91.0894 119.462 91.078 119.405C91.0667 119.348 91.0497 119.292 91.027 119.235C91.0157 119.178 91.0044 119.127 90.993 119.082C90.993 119.025 90.993 118.98 90.993 118.946V117.96C90.993 117.371 90.993 116.759 90.993 116.124C91.0044 115.489 91.01 114.877 91.01 114.288C90.7494 114.277 90.4774 114.271 90.194 114.271C89.922 114.26 89.7237 114.192 89.599 114.067C89.531 113.999 89.4857 113.914 89.463 113.812C89.4404 113.699 89.429 113.585 89.429 113.472C89.4404 113.359 89.463 113.257 89.497 113.166C89.531 113.064 89.5764 112.99 89.633 112.945C89.7804 112.809 89.9107 112.735 90.024 112.724C90.1487 112.701 90.3017 112.684 90.483 112.673C90.5057 112.673 90.5794 112.673 90.704 112.673C90.84 112.662 90.925 112.656 90.959 112.656C90.9704 112.271 90.9817 111.885 90.993 111.5C91.0044 111.115 91.0384 110.763 91.095 110.446C91.163 110.117 91.2594 109.834 91.384 109.596C91.52 109.347 91.724 109.16 91.996 109.035C92.3247 108.888 92.6987 108.797 93.118 108.763C93.5374 108.729 93.917 108.78 94.257 108.916C94.4157 108.973 94.5687 109.086 94.716 109.256C94.8747 109.426 94.9484 109.613 94.937 109.817C94.9257 110.021 94.886 110.208 94.818 110.378C94.75 110.548 94.6027 110.661 94.376 110.718C94.274 110.741 94.1664 110.752 94.053 110.752C93.951 110.741 93.8434 110.735 93.73 110.735C93.6167 110.735 93.509 110.752 93.407 110.786C93.3164 110.809 93.237 110.86 93.169 110.939C93.1124 111.007 93.0727 111.098 93.05 111.211C93.0387 111.324 93.0274 111.443 93.016 111.568C93.0047 111.693 92.999 111.817 92.999 111.942C93.0104 112.055 93.016 112.152 93.016 112.231V112.656C93.2767 112.679 93.5147 112.696 93.73 112.707C93.9567 112.718 94.1494 112.752 94.308 112.809ZM101.47 117.671C101.606 117.637 101.742 117.614 101.878 117.603C102.026 117.592 102.156 117.609 102.269 117.654C102.394 117.699 102.496 117.779 102.575 117.892C102.655 117.994 102.694 118.141 102.694 118.334C102.694 118.47 102.66 118.6 102.592 118.725C102.524 118.85 102.439 118.963 102.337 119.065C102.235 119.167 102.122 119.258 101.997 119.337C101.873 119.405 101.754 119.462 101.64 119.507C101.312 119.654 100.932 119.768 100.501 119.847C100.082 119.926 99.6455 119.955 99.1922 119.932C98.5802 119.909 97.9909 119.79 97.4242 119.575C96.8689 119.348 96.4325 118.98 96.1152 118.47C95.8205 117.971 95.6449 117.416 95.5882 116.804C95.5315 116.192 95.5599 115.614 95.6732 115.07C95.7979 114.413 96.0075 113.88 96.3022 113.472C96.6082 113.053 96.9709 112.718 97.3902 112.469C97.9002 112.174 98.4725 112.021 99.1072 112.01C99.7419 111.999 100.348 112.123 100.926 112.384C101.312 112.554 101.657 112.786 101.963 113.081C102.269 113.364 102.502 113.71 102.66 114.118C102.706 114.22 102.74 114.345 102.762 114.492C102.796 114.639 102.819 114.798 102.83 114.968C102.842 115.127 102.842 115.285 102.83 115.444C102.819 115.603 102.791 115.744 102.745 115.869C102.677 116.073 102.592 116.232 102.49 116.345C102.388 116.458 102.258 116.543 102.099 116.6C101.941 116.657 101.748 116.696 101.521 116.719C101.306 116.73 101.045 116.742 100.739 116.753C100.467 116.764 100.212 116.77 99.9742 116.77C99.7362 116.77 99.4925 116.77 99.2432 116.77C98.9939 116.759 98.7332 116.753 98.4612 116.753C98.2005 116.742 97.9059 116.73 97.5772 116.719C97.5432 116.946 97.5715 117.144 97.6622 117.314C97.7642 117.473 97.9002 117.609 98.0702 117.722C98.2402 117.824 98.4329 117.903 98.6482 117.96C98.8635 118.017 99.0732 118.051 99.2772 118.062C99.6625 118.085 100.031 118.056 100.382 117.977C100.734 117.886 101.096 117.784 101.47 117.671ZM100.739 114.373C100.524 114.124 100.297 113.942 100.059 113.829C99.8779 113.75 99.6852 113.716 99.4812 113.727C99.2885 113.727 99.1015 113.755 98.9202 113.812C98.5915 113.891 98.3139 114.061 98.0872 114.322C98.0645 114.345 98.0249 114.401 97.9682 114.492C97.9115 114.571 97.8549 114.656 97.7982 114.747C97.7529 114.838 97.7189 114.923 97.6962 115.002C97.6735 115.081 97.6849 115.121 97.7302 115.121H101.062C101.051 114.962 101.023 114.832 100.977 114.73C100.932 114.617 100.853 114.498 100.739 114.373Z" fill="black"/>
<path d="M60.5 69L62.5 68L66 68L68.5 69L70.875 70.5L72.5 73.5L74.5 69.5L79.25 67L82 67.5L85 69.5L86 73.25L86 76.375L85 79.5L84 82.25L82 85L79.25 88L73 92.5L62.5 84.5L59.5 79L59 76L59 73L59 71.5L60.5 69Z" fill="#FF0000"/>
<path fill-rule="evenodd" clip-rule="evenodd" d="M63.6052 67.2407C62.3649 67.5143 61.3287 68.0959 60.4757 68.9973C59.4836 70.0456 58.8362 71.3582 58.5208 72.9604C58.373 73.7115 58.3498 74.157 58.4044 75.1912C58.457 76.186 58.5269 76.6681 58.7321 77.45C59.5527 80.5769 61.4591 83.7882 64.1049 86.4998C66.263 88.7115 69.6461 91.0425 72.5714 92.3333C73.4554 92.7233 73.4174 92.7275 74.4091 92.1288C77.9641 89.9824 81.0732 87.074 83.1378 83.9635C86.0237 79.6161 87.1493 75.2566 86.2693 71.8361C85.8207 70.0923 84.6651 68.3758 83.3021 67.4289C81.6005 66.2467 79.6264 66.0155 77.6482 66.7667C77.1783 66.9452 76.3119 67.4287 75.8589 67.7653C75.225 68.2364 74.377 69.1648 73.8042 70.0148C73.4436 70.5499 72.8671 71.6399 72.6003 72.2908L72.3863 72.8129L71.9624 72.0902C70.332 69.3105 68.237 67.6355 65.862 67.2124C65.2183 67.0978 64.1951 67.1106 63.6052 67.2407ZM63.5521 68.4604C62.4863 68.7139 61.5551 69.263 60.7681 70.1017C59.861 71.0685 59.3064 72.2604 59.0904 73.7069C59 74.3124 59.106 76.3011 59.2645 76.9731C59.6128 78.45 60.2658 80.0279 61.0945 81.3948C61.4589 81.9959 61.5096 82.0707 61.9985 82.7285C64.5042 86.0996 68.268 88.9793 72.6258 90.8598L73.3071 91.1538L73.6957 90.9623C74.4127 90.609 75.7841 89.7322 76.9059 88.9099C78.6885 87.6035 79.9684 86.4474 81.272 84.9663C84.0603 81.7983 85.628 78.4059 85.8806 74.993C85.9244 74.401 85.8569 73.0927 85.7602 72.6586C85.2427 70.3359 83.9551 68.697 82.0164 67.8934C81.1224 67.5229 80.0217 67.4389 78.7575 67.6449C77.9754 67.7722 76.914 68.2608 76.0965 68.8699C74.8396 69.8062 74.0037 70.9234 73.0798 72.9018C72.8888 73.3109 72.6846 73.7166 72.6261 73.8034C72.4187 74.1109 72.2834 74.0056 71.8084 73.1669C71.0932 71.9039 70.4092 71.029 69.4974 70.2104C68.7898 69.5753 68.1864 69.1813 67.4112 68.8483C66.3872 68.4085 65.6559 68.2791 64.558 68.3434C64.1828 68.3654 63.7301 68.4181 63.5521 68.4604Z" fill="black"/>
</svg>
