<svg width="2400" height="1320" viewBox="0 0 2400 1320" fill="none" xmlns="http://www.w3.org/2000/svg">
<path d="M708 530.8C704 533.067 692.533 539.467 682.667 545.067C672.8 550.533 660.8 557.333 656 560C651.2 562.667 628.133 575.733 604.667 588.933C581.2 602.133 536.8 627.2 506 644.667C438.533 682.667 443.333 679.733 445.467 682.133C446.667 683.6 450.667 684 462.8 684H478.667V942.667V1201.33H386.667H294.667V1135.33C294.667 1090.13 294.267 1069.33 293.333 1069.33C292.267 1069.33 292 1033.07 292.4 950.933C292.933 823.467 292.933 824.533 300 808.267C309.2 787.467 324.267 783.333 337.2 798C341.867 803.333 342.4 806.267 339.2 808.667C338 809.467 336.4 812.933 335.467 816.4C334 822 333.2 822.933 326.667 826.267C318.667 830.4 314.933 834.667 314.4 840.667L314 844.667L323.733 845.067C332.4 845.467 333.333 845.733 333.333 848.133C333.333 852.667 340.4 858.667 345.733 858.667C351.467 858.667 356.8 854.533 358 849.333C358.8 845.467 359.067 845.467 368.4 845.067C378 844.667 378 844.667 377.733 840.933C377.333 835.2 372.267 829.333 364.667 825.867C358.4 822.933 357.6 822.133 356.8 817.467C356.267 813.867 354.667 811.067 351.733 808.667C349.467 806.8 346.4 802.8 344.933 799.867C340.533 790.933 330.133 784 321.067 784C310.667 784.133 302.267 790.933 295.333 804.8L292.133 811.333V792.4C291.867 751.333 284.133 726.667 268.667 717.6C257.467 711.2 242.533 716.267 235.067 728.933C233.067 732.533 229.467 737.2 227.2 739.333C224.533 741.867 222.533 745.333 222 748.4C221.2 752.533 220.133 753.733 216.4 755.333C206.933 759.333 201.467 765.467 201.333 772.267C201.333 776 201.333 776 210.533 776H219.733L221.333 780.533C224.267 789.733 234.667 792.267 241.467 785.467C243.6 783.333 245.333 780.267 245.333 778.8C245.333 776.4 246.267 776.133 254.933 775.733C263.6 775.333 264.667 775.067 265.067 772.667C265.733 767.867 259.867 760.933 251.6 756.8C245.2 753.6 244 752.4 244 749.333C244 747.333 242.533 743.467 240.667 740.8C238.8 738.133 237.333 735.333 237.333 734.533C237.333 733.867 240 730.667 243.2 727.333C259.067 711.467 275.467 721.733 283.467 752.667C285.733 761.333 285.867 772.4 286.267 915.6C286.667 1021.07 286.267 1069.33 285.333 1069.33C284.4 1069.33 284 1090.67 284 1135.33V1201.33L201.067 1201.6C123.2 1202 118 1202.13 117.6 1204.4C117.2 1206.53 169.466 1206.67 1200 1206.67C2230.53 1206.67 2282.8 1206.53 2282.4 1204.4C2282 1202.13 2276.8 1202 2200.27 1201.6L2118.67 1201.33L2118.53 1136.93C2118.4 1101.6 2118.4 1072.27 2118.4 1071.73C2118.53 1071.33 2117.73 1070.13 2116.67 1069.33C2114.93 1067.87 2114.67 1049.07 2114.67 927.467C2114.67 763.333 2115.07 756 2124.27 736.4C2131.87 720 2145.33 715.467 2156.8 725.6C2159.33 727.867 2162.27 731.333 2163.33 733.333C2165.07 736.667 2164.93 737.2 2161.87 740.133C2160.13 741.867 2158.27 745.333 2157.87 748.133C2157.07 752.667 2156.27 753.6 2149.73 756.8C2141.87 760.533 2137.33 766.267 2137.33 772.267C2137.33 776 2137.33 776 2146.53 776C2155.73 776 2155.73 776 2156.67 780C2157.87 785.2 2163.2 789.333 2168.93 789.333C2174.27 789.333 2181.33 783.333 2181.33 778.8C2181.33 776.4 2182.27 776.133 2191.07 775.733L2200.67 775.333L2200.4 771.333C2200 765.467 2196.13 761.067 2187.6 756.8C2181.47 753.733 2180 752.4 2180 749.733C2180 745.467 2176.53 739.067 2173.33 737.333C2171.87 736.533 2169.47 733.733 2168.13 730.933C2160.27 715.733 2144 710.4 2131.2 719.067C2116.93 728.533 2109.33 755.2 2109.33 796V811.333L2105.47 803.2C2101.07 794 2092.53 785.733 2085.73 784.533C2075.2 782.533 2063.47 788.4 2057.73 798.533C2055.73 801.867 2052.53 806 2050.4 807.733C2048.13 809.733 2046.13 813.2 2045.2 816.8C2043.87 821.867 2042.93 823.067 2038.13 825.067C2030.93 828.267 2024 836.267 2024 841.333V845.2L2033.73 845.6C2042.4 846 2043.33 846.267 2043.73 848.933C2044.4 853.867 2050 858.667 2055.2 858.667C2060.53 858.667 2067.6 853.467 2068.27 848.933C2068.67 846.267 2069.47 846 2078.53 845.6L2088.27 845.2L2087.6 840.4C2086.53 834.267 2079.73 827.2 2072.53 824.667C2067.87 823.067 2067.2 822.4 2066.4 817.2C2065.87 814.133 2064.13 810.267 2062.53 808.533C2060 805.733 2059.87 805.333 2061.87 801.6C2067.07 791.467 2080.53 786.667 2088.93 791.867C2098.53 797.867 2105.07 811.867 2107.87 832.667C2109.87 846.267 2109.87 1069.33 2108 1069.33C2107.07 1069.33 2106.67 1092.27 2106.67 1135.33V1201.33H2036.53H1966.27L1970 1198C1974 1194.13 1973.87 1190.13 1969.33 1183.73C1967.87 1181.73 1962.27 1168 1956.8 1153.07L1947.07 1126L1952 1125.6C1954.8 1125.33 1957.33 1124.53 1957.73 1123.6C1958 1122.67 1955.07 1110 1951.07 1095.33C1944.27 1070.53 1943.73 1067.2 1942.67 1047.33C1941.87 1033.2 1940.67 1022.93 1938.93 1017.07C1936.67 1008.93 1934.8 1005.47 1927.07 994.8C1924.93 991.867 1924.93 991.333 1927.07 985.333C1928.27 981.867 1929.33 977.333 1929.33 975.467C1929.33 972.933 1930.27 971.6 1932.53 970.8C1938.27 968.533 1939.2 960 1934 956.533C1929.47 953.6 1924.13 955.067 1922.27 959.867C1921.07 963.067 1919.87 963.867 1915.07 964.4C1905.2 965.467 1903.2 967.733 1902.13 978.667C1901.2 989.467 1902.27 992.4 1908 995.333C1913.07 998 1912.93 999.6 1907.87 1007.87C1903.87 1014.27 1903.6 1015.2 1904.4 1024.53C1905.2 1035.73 1904.93 1036.4 1896.67 1038.4C1887.33 1040.8 1880.67 1040.93 1880.53 1038.67C1880.53 1037.6 1880.27 1036 1880.27 1035.2C1880.13 1034.4 1878.27 1032.93 1876.13 1032C1871.47 1030.13 1869.87 1025.07 1872 1019.47C1873.47 1015.47 1872.8 1013.33 1870 1013.33C1867.47 1013.33 1864.93 1022 1865.87 1026.93C1866.53 1030.27 1866 1031.47 1863.2 1033.6C1860.8 1035.47 1860 1037.2 1860.53 1039.07C1860.93 1040.53 1860.67 1042.93 1859.87 1044.27C1858.93 1046 1859.33 1048.4 1861.33 1052.8C1862.8 1056.27 1864 1060.27 1864 1061.87C1864 1066 1866.53 1068 1871.33 1068C1876.27 1068 1878.67 1066 1878.67 1061.87C1878.67 1059.2 1879.47 1058.8 1887.73 1058C1892.67 1057.6 1898.27 1056.93 1900.27 1056.67C1905.33 1055.87 1905.87 1060.27 1902.13 1072.8C1893.6 1101.07 1870.13 1174.4 1868.53 1177.6C1866.67 1181.2 1864.4 1182.27 1856.8 1182.93C1852.53 1183.33 1849.87 1186.53 1851.07 1189.73C1852 1192.13 1876.53 1200.53 1879.33 1199.47C1882.13 1198.4 1886.67 1190.53 1886.67 1186.8C1886.67 1185.07 1892.53 1172.4 1899.73 1158.8C1906.93 1145.2 1913.6 1132 1914.53 1129.6C1916.93 1123.87 1918.13 1124.27 1919.2 1130.8C1919.73 1134.27 1925.6 1145.87 1934.67 1161.6C1942.8 1175.6 1949.33 1188 1949.33 1189.2C1949.33 1190.53 1947.6 1193.2 1945.33 1195.07C1943.2 1197.07 1941.33 1199.33 1941.33 1200C1941.33 1200.93 1897.47 1201.33 1814.53 1201.33H1687.73L1694.4 1195.33C1720.93 1171.47 1709.47 1127.73 1674.93 1120.53C1667.73 1119.07 1667.6 1118.93 1671.33 1118C1676.67 1116.67 1682.27 1111.33 1683.2 1106.53C1683.6 1104.4 1683.07 1098.4 1682 1093.2C1678.4 1076.27 1679.87 1062.67 1686.13 1055.73C1688.4 1053.33 1687.6 1050.67 1684.67 1050.67C1681.73 1050.67 1677.33 1058 1675.73 1065.87C1674.53 1071.47 1674.53 1076.8 1675.87 1089.07C1676.8 1097.87 1677.2 1106.27 1676.8 1107.73C1674.93 1113.6 1663.73 1114.67 1648 1110.8C1634.8 1107.47 1633.33 1106.8 1633.33 1104.13C1633.33 1100.27 1634.8 1100 1640.53 1102.93C1648.27 1106.93 1656.8 1106.93 1660.13 1102.8C1663.47 1098.67 1663.33 1091.87 1659.87 1087.47L1657.2 1084H1637.2H1617.33V1089.2C1617.33 1094.8 1620.8 1098.67 1625.6 1098.67C1626.93 1098.67 1628 1099.33 1628 1100.27C1628 1101.6 1614.67 1144.13 1614 1145.07C1613.87 1145.2 1603.47 1142.53 1590.93 1138.93L1568.13 1132.53L1548 1112.8C1536.93 1102 1528.13 1092.8 1528.4 1092.27C1528.8 1091.73 1530.67 1084.27 1532.53 1075.6L1536.27 1060L1539.6 1062.67C1542.93 1065.33 1558.27 1070.67 1562.4 1070.67C1563.6 1070.67 1567.07 1071.87 1570.13 1073.47C1575.2 1075.87 1576.4 1076 1579.6 1074.4C1583.6 1072.53 1585.2 1067.73 1582.67 1064.67C1580.27 1061.73 1574.8 1061.07 1570.4 1063.33C1565.07 1065.87 1563.33 1065.87 1553.33 1062.8C1543.47 1059.73 1538.67 1055.6 1538.67 1050.53C1538.67 1047.73 1539.6 1046.27 1542.67 1044.67C1547.73 1042 1559.07 1042 1561.33 1044.67C1563.33 1047.07 1570.67 1047.33 1573.87 1044.93C1577.2 1042.53 1576.13 1037.2 1571.73 1034.67C1568.67 1032.93 1567.47 1032.93 1563.73 1034.53C1561.33 1035.47 1555.73 1036.8 1551.33 1037.33C1536.13 1039.07 1534.93 1040.67 1528.8 1068C1524 1089.2 1519.6 1103.87 1514.67 1115.47L1512.27 1120.93L1505.73 1120C1493.73 1118.13 1482.27 1121.33 1471.87 1129.47C1467.87 1132.53 1465.6 1133.33 1460.13 1133.33C1454.93 1133.33 1453.33 1132.8 1453.33 1131.33C1453.33 1130.27 1455.73 1119.33 1458.67 1107.07C1461.73 1094.4 1463.6 1084.4 1462.93 1083.73C1462.27 1083.07 1458.13 1082.67 1453.87 1082.93L1446 1083.33L1440.53 1104.67C1437.6 1116.4 1434.67 1127.6 1434.27 1129.6C1433.33 1133.07 1432.8 1133.2 1424.27 1133.6L1415.33 1134V1144.67V1155.33L1421.73 1155.73C1427.2 1156.13 1428.13 1156.53 1427.33 1158.4C1426.93 1159.6 1424 1169.87 1420.93 1180.93L1415.47 1201.33H1379.73H1344L1344.27 1042.4L1344.67 883.333L1359.07 882.933L1373.47 882.533L1373.07 872.933L1372.67 863.333L1163.07 862.933L953.467 862.667L953.067 858.933C952.8 856.933 952.8 816.8 953.067 769.733L953.333 684.133L969.733 683.733C983.333 683.333 986 682.933 986.4 681.2C986.667 679.6 966.133 667.467 909.067 635.333C866.267 611.2 816.4 583.067 798 572.667C757.467 549.733 716.267 526.667 715.733 526.667C715.467 526.667 712 528.533 708 530.8ZM743.333 548C750.667 552.267 771.333 563.867 789.333 574C807.333 584.133 844.8 605.333 872.667 621.067C900.533 636.8 934.267 655.733 947.6 663.2C960.933 670.533 971.867 677.067 972 677.6C972 678.267 856.4 678.667 715.067 678.667C563.6 678.667 458.667 678.133 459.467 677.467C460.133 676.8 467.6 672.4 476 667.733C492.8 658.267 613.2 590.533 654.667 566.933C668.933 558.933 688.533 547.733 698 542.267L715.333 532.267L722.667 536.4C726.667 538.667 736 543.867 743.333 548ZM946.667 773.333V862.667L803.733 862.933L660.667 863.333V872.667V882L696.667 882.667L732.667 883.333L733.067 1042.27L733.333 1201.33H608.667H484V942.667V684H715.333H946.667V773.333ZM236.533 744.267C240.4 749.867 239.333 752 232.667 752C226.4 752 225.6 751.067 228.133 746.267C231.067 740.667 233.6 740.133 236.533 744.267ZM2172.53 744.267C2176.4 749.867 2175.33 752 2168.67 752C2162.4 752 2161.6 751.067 2164.13 746.267C2167.07 740.667 2169.6 740.133 2172.53 744.267ZM248 760.933C252.8 762.8 258.667 767.6 258.667 769.6C258.667 770.133 246.933 770.667 232.667 770.667C207.333 770.667 206.667 770.533 208 768.133C212.8 758.933 234 755.067 248 760.933ZM2184 760.933C2188.8 762.8 2194.67 767.6 2194.67 769.6C2194.67 770.133 2182.93 770.667 2168.67 770.667C2143.33 770.667 2142.67 770.533 2144 768.133C2148.8 758.933 2170 755.067 2184 760.933ZM240 777.867C240 783.6 230.933 786 227.467 781.067C224.667 777.067 225.867 776 233.467 776C238.267 776 240 776.533 240 777.867ZM2176 777.6C2176 780.267 2171.73 784 2168.53 784C2165.47 784 2160.93 779.067 2162.13 777.067C2163.2 775.333 2176 775.733 2176 777.6ZM350 814.667C353.067 820.533 352.533 821.333 345.867 821.333C339.867 821.333 339.733 821.333 340.667 817.733C342.533 809.867 346.8 808.4 350 814.667ZM2059.2 813.6C2060.4 815.2 2061.33 817.867 2061.33 819.333C2061.33 821.733 2060.67 822 2055.33 821.6C2049.87 821.067 2049.33 820.8 2050.13 818.133C2051.07 814.933 2054.53 810.667 2056.13 810.667C2056.67 810.667 2058.13 812 2059.2 813.6ZM362.533 831.067C365.867 832.667 369.333 835.333 370.4 836.933L372.267 840H346.133C331.333 840 320 839.467 320 838.8C320 835.467 329.333 830 339.333 827.467C344.4 826.267 356.667 828.133 362.533 831.067ZM2071.33 830.533C2074.27 831.867 2078.13 834.533 2079.87 836.533L2083.07 840H2056.27H2029.33L2031.33 836.8C2037.33 827.6 2057.73 824.533 2071.33 830.533ZM352.533 846.4C353.733 848.4 349.333 853.333 346.4 853.333C343.067 853.333 338.667 849.733 338.667 847.067C338.667 845.067 351.333 844.533 352.533 846.4ZM2062.67 847.2C2062.67 850.133 2058.8 853.333 2055.47 853.333C2051.87 853.333 2049.33 850.933 2049.33 847.733C2049.33 845.733 2050.53 845.333 2056 845.333C2060.93 845.333 2062.67 845.867 2062.67 847.2ZM1368 872.667V877.333L1179.07 877.6C1075.07 877.733 983.067 877.733 974.667 877.733C966.267 877.733 893.2 877.6 812.4 877.467L665.333 877.333V872.667V868H1016.67H1368V872.667ZM1338.67 1042V1201.33H1304.4C1269.07 1201.47 949.333 1201.47 935.733 1201.33H928L927.733 1054.93L927.333 908.667L859.467 908.267C808.267 908 791.2 908.4 789.733 909.6C788 910.933 787.867 922.667 788 989.867C788.133 1033.2 788.133 1098.53 788.133 1134.93L788 1201.33H763.333H738.667V1042.93C738.667 955.733 739.067 884 739.6 883.6C740 883.067 875.067 882.667 1039.6 882.667H1338.67V1042ZM922.4 1057.6L922.667 1201.33H858.667H794.667L794.4 1132.93C794.267 1095.47 794.133 1060.13 794.133 1054.67C794.133 1049.2 794.267 1015.07 794.4 978.933L794.667 913.333L858.4 913.6L922 914L922.4 1057.6ZM1914.13 982.4C1915.47 984.267 1916 984.267 1917.87 982.8C1919.6 981.333 1920.13 981.333 1920.8 983.067C1921.2 984.267 1920.93 986.4 1920 987.867C1918.93 990 1918.93 991.467 1920.13 993.467C1921.33 995.733 1921.2 996.533 1919.87 997.467C1917.73 998.8 1916.4 997.733 1915.73 994C1915.47 992.533 1914 991.2 1912.4 990.933C1907.33 990.133 1906 987.333 1908 980.933C1909.47 976 1909.87 975.6 1911.2 977.733C1912 979.067 1913.33 981.2 1914.13 982.4ZM1924.67 1004.93C1925.2 1006.27 1925.87 1011.73 1926.27 1016.93C1927.2 1029.2 1924.53 1036.8 1917.2 1043.07C1908.4 1050.67 1889.47 1054.93 1887.47 1049.87C1886 1046.13 1886.53 1045.73 1892.67 1044.93C1900.27 1043.87 1910.93 1038.4 1913.6 1034.4C1916.67 1029.6 1917.33 1025.6 1915.07 1023.87C1913.6 1022.53 1913.07 1022.8 1912.4 1025.07C1911.07 1030.13 1909.33 1028.27 1909.33 1021.87C1909.33 1014.67 1913.07 1007.6 1918.4 1004.67C1923.07 1002.13 1923.6 1002.27 1924.67 1004.93ZM1936.93 1042.93L1937.73 1060H1924.13C1912.67 1060 1910.4 1059.6 1909.73 1057.73C1909.2 1056.27 1909.73 1054.93 1911.33 1054.13C1925.07 1046 1930.67 1037.73 1931.73 1023.47L1932.53 1014L1934.4 1020C1935.47 1023.33 1936.53 1033.6 1936.93 1042.93ZM1874.4 1038.27C1874.67 1039.47 1873.33 1040 1870 1040C1865.6 1040 1865.2 1039.73 1866.67 1038C1868.67 1035.6 1873.47 1035.87 1874.4 1038.27ZM1570 1040C1570.53 1040.8 1569.33 1041.33 1567.47 1041.33C1565.6 1041.33 1564 1040.67 1564 1040C1564 1039.2 1565.2 1038.67 1566.53 1038.67C1568 1038.67 1569.6 1039.2 1570 1040ZM1880.8 1049.07C1883.6 1052.8 1883.07 1053.33 1876.27 1053.33C1868.8 1053.33 1864.4 1050.8 1865.87 1047.33C1866.53 1045.33 1867.73 1045.07 1872.93 1045.87C1876.4 1046.27 1879.87 1047.73 1880.8 1049.07ZM1873.33 1060.67C1873.33 1061.73 1872.4 1062.67 1871.33 1062.67C1870.27 1062.67 1869.33 1061.73 1869.33 1060.67C1869.33 1059.6 1870.27 1058.67 1871.33 1058.67C1872.4 1058.67 1873.33 1059.6 1873.33 1060.67ZM1944 1089.33C1947.47 1102.13 1950.67 1114.27 1951.2 1116.27L1952 1120H1922.53C1898.13 1120 1893.2 1119.73 1893.73 1118.13C1894.13 1117.2 1897.47 1106.53 1901.2 1094.4C1904.8 1082.4 1908.53 1070.8 1909.2 1068.8L1910.67 1065.2L1924.13 1065.6L1937.73 1066L1944 1089.33ZM1576.53 1067.47C1579.47 1068.67 1577.87 1070.53 1574.67 1069.73C1573.2 1069.33 1572.4 1068.53 1572.8 1067.87C1573.6 1066.4 1573.87 1066.4 1576.53 1067.47ZM1457.33 1089.33C1457.33 1090.13 1454.8 1100.53 1451.87 1112.67C1448.8 1124.67 1446.67 1135.47 1447.2 1136.67C1447.87 1138.4 1452.67 1138.67 1482 1138.67H1516V1144.67V1150.67H1479.33H1442.8L1439.47 1161.6C1433.33 1182 1431.6 1189.07 1432.4 1191.2C1433.2 1193.07 1437.33 1193.33 1465.33 1193.33H1497.33V1197.33V1201.33H1459.33C1438.4 1201.33 1421.33 1200.93 1421.33 1200.27C1421.33 1199.73 1424 1190 1427.2 1178.53C1435.47 1149.47 1435.47 1151.47 1427.07 1150.93L1420 1150.53V1144.67V1138.8L1428.93 1138.4L1437.87 1138L1443.33 1116C1446.27 1103.87 1449.2 1092.67 1449.6 1090.93C1450.13 1088.93 1451.47 1088 1453.87 1088C1455.73 1088 1457.33 1088.67 1457.33 1089.33ZM1657.07 1093.73C1657.6 1098.13 1655.33 1101.33 1651.73 1101.33C1650.4 1101.33 1646.13 1099.73 1642.27 1097.73C1638.4 1095.73 1632.67 1093.87 1629.47 1093.47C1626.13 1093.07 1623.33 1091.87 1622.93 1090.93C1622.53 1089.6 1626.13 1089.33 1639.6 1089.6L1656.67 1090L1657.07 1093.73ZM1591.2 1167.33C1590.8 1169.73 1591.07 1173.07 1592 1174.67C1593.33 1177.2 1593.07 1178.13 1590.4 1180.93C1584.93 1186.8 1583.6 1186.93 1574 1182.53C1567.47 1179.33 1564.8 1178.67 1563.6 1179.87C1561.6 1181.87 1563.07 1183.07 1574.4 1188.67L1584.13 1193.33L1590.53 1188C1596.13 1183.33 1597.6 1182.67 1603.6 1182.67C1609.6 1182.67 1610.8 1182.13 1613.87 1178.53C1616.13 1175.87 1617.33 1172.93 1617.33 1169.73C1617.33 1162.27 1621.33 1164.53 1623.6 1173.33C1626 1182.67 1631.73 1191.47 1638.8 1196.93L1644.53 1201.33H1582.67H1520.8L1526.27 1197.33C1536.93 1189.47 1543.07 1176.93 1543.07 1162.67C1543.2 1148.53 1536.53 1136 1524.67 1127.33L1517.6 1122.27L1520.93 1114.13C1522.67 1109.73 1524.67 1104.53 1525.47 1102.93C1526.67 1099.87 1528.4 1101.47 1559.33 1131.33C1591.2 1162.13 1592 1163.2 1591.2 1167.33ZM1651.73 1116.93C1659.2 1117.87 1663.87 1119.87 1658.67 1120C1656.8 1120 1651.73 1121.73 1647.33 1123.87C1638.8 1127.87 1628.67 1137.73 1626.4 1144.27C1625.2 1147.73 1621.6 1149.2 1619.73 1147.2C1619.33 1146.8 1621.6 1138.53 1624.93 1128.67L1630.8 1110.93L1638.13 1113.47C1642.13 1114.93 1648.27 1116.4 1651.73 1116.93ZM1510.4 1126C1510.53 1126.13 1510 1127.87 1509.2 1129.87C1507.6 1133.33 1507.47 1133.33 1492.4 1133.33C1476.67 1133.33 1475.07 1132.53 1482.8 1128.53C1488.67 1125.6 1497.07 1124.13 1504 1124.93C1507.33 1125.33 1510.13 1125.87 1510.4 1126ZM1680.8 1128C1698.53 1135.6 1707.73 1155.6 1701.87 1174.13C1698.53 1185.2 1687.87 1195.87 1676.8 1199.2C1657.87 1205.2 1636.53 1194.53 1630 1176C1626.13 1165.2 1625.87 1165.33 1644 1165.33C1653.07 1165.33 1661.33 1166 1663.2 1166.8C1667.2 1168.67 1670.67 1166.67 1670.67 1162.53C1670.67 1160 1666.27 1156.8 1664.8 1158.27C1663.6 1159.6 1630.67 1150.27 1630.67 1148.67C1630.67 1144.8 1638.93 1134.67 1644.8 1131.2C1657.2 1123.87 1668.8 1122.8 1680.8 1128ZM1909.6 1127.73C1908 1131.73 1883.73 1178 1882.67 1179.07C1882.13 1179.73 1880.13 1179.47 1878.27 1178.4L1875.07 1176.67L1883.2 1150.93L1891.33 1125.33H1900.93C1909.6 1125.33 1910.53 1125.6 1909.6 1127.73ZM1942.4 1128.93C1955.73 1165.87 1960 1177.87 1960 1178.67C1960 1179.2 1958.53 1180.27 1956.8 1181.07C1954.4 1182.13 1953.2 1182.13 1952.27 1180.93C1948 1175.47 1925.33 1133.73 1924.53 1130L1923.73 1125.33H1932.4C1940.67 1125.33 1941.2 1125.47 1942.4 1128.93ZM1530.8 1140.93C1536.13 1149.07 1537.87 1154.53 1537.87 1163.2C1537.73 1181.07 1524.8 1196.4 1506.4 1200.53C1502.93 1201.33 1502.8 1201.2 1502.4 1195.07L1502 1188.67L1486 1188L1470 1187.33L1466.27 1180.4C1463.87 1175.87 1462.27 1170.53 1461.73 1164.8L1460.93 1156H1479.87C1496.8 1156 1502.27 1157.07 1496.67 1159.2C1491.73 1161.07 1496.13 1168.93 1501.33 1167.33C1504 1166.53 1504.27 1166 1504.53 1160C1504.67 1156.93 1505.2 1156.67 1512.67 1156L1520.67 1155.33V1144.67C1520.67 1134.67 1520.53 1134 1517.73 1133.6C1514.8 1133.2 1513.73 1130.8 1515.47 1128.93C1516.93 1127.47 1527.33 1135.6 1530.8 1140.93ZM1594.27 1145.47C1602.93 1147.87 1610.4 1150.13 1610.93 1150.53C1611.47 1151.07 1611.6 1152.67 1611.2 1154.13C1610.53 1156.53 1609.07 1157.07 1602.93 1157.73L1595.47 1158.53L1586.53 1150C1581.6 1145.2 1577.87 1141.33 1578.13 1141.33C1578.27 1141.33 1585.6 1143.2 1594.27 1145.47ZM1620.53 1152.8C1621.73 1153.2 1622.67 1155.07 1622.67 1156.8C1622.67 1159.47 1622 1160 1618.67 1160C1614.13 1160 1614.13 1160 1616.27 1155.33C1618 1151.6 1617.73 1151.73 1620.53 1152.8ZM1456.4 1165.2C1456.8 1170.27 1458.4 1176.93 1459.87 1180.13C1461.47 1183.33 1462.67 1186.27 1462.67 1186.93C1462.67 1188.13 1439.6 1188.4 1438.4 1187.2C1437.87 1186.8 1438.4 1184 1439.33 1180.93C1440.4 1177.87 1442.4 1170.93 1444 1165.6C1446.67 1156.13 1446.8 1156 1451.2 1156H1455.6L1456.4 1165.2ZM1638.67 1157.87L1644.67 1159.87H1636.4C1629.73 1160 1628 1159.6 1628 1158C1628 1155.47 1630.93 1155.47 1638.67 1157.87ZM1609.87 1164.8C1614.67 1169.47 1611.07 1177.33 1604.13 1177.33C1599.6 1177.33 1597.07 1174.53 1597.07 1170C1597.07 1168.13 1597.73 1165.73 1598.67 1164.67C1600.8 1162 1607.2 1162.13 1609.87 1164.8ZM1877.2 1184.13C1881.87 1185.73 1882.4 1187.87 1879.07 1191.73L1876.67 1194.4L1868 1191.33C1863.2 1189.6 1860.67 1188.13 1862.13 1188.13C1863.73 1188 1866.4 1186.8 1868.13 1185.33C1871.87 1182.27 1871.87 1182.27 1877.2 1184.13ZM1965.87 1188.27C1967.07 1189.87 1968 1191.73 1968 1192.13C1968 1194.13 1954.4 1201.33 1950.8 1201.33H1946.93L1950.8 1197.47C1952.93 1195.33 1954.67 1192.27 1954.67 1190.67C1954.67 1189.07 1955.87 1187.47 1957.73 1186.67C1962.27 1184.8 1963.73 1185.07 1965.87 1188.27Z" fill="#1D1D1B"/>
<path d="M703.6 579.2C695.333 582.267 688.133 587.733 684 594.267C678.4 603.067 676.933 608.4 677.6 618.4C678.533 634.133 686.133 644.8 701.067 651.733C707.2 654.533 709.733 654.933 717.867 654.4C732.8 653.333 745.2 645.2 751.2 632.133C755.067 623.6 755.067 608.4 751.2 600C743.067 582.533 721.2 572.933 703.6 579.2ZM713.333 598V613.333H698C680.533 613.333 680.533 613.333 685.467 602.667C689.733 593.067 696.8 586.933 706.667 583.867C713.333 581.867 713.333 581.733 713.333 598ZM732.8 587.333C739.067 590.933 745.067 598.267 747.467 605.2C750.533 613.467 750.8 613.333 734 613.333H718.667V597.867V582.4L723.067 583.333C725.333 583.867 729.733 585.733 732.8 587.333ZM713.333 634C713.333 651.6 713.333 651.6 702 646.133C694 642.4 689.067 637.333 685.467 629.333C680.533 618.667 680.533 618.667 698 618.667H713.333V634ZM749.333 620.267C749.2 623.867 745.6 631.867 742 636.533C737.867 642 729.6 647.333 723.067 648.667L718.667 649.6V634.133V618.667H734C745.467 618.667 749.333 619.067 749.333 620.267Z" fill="#1D1D1B"/>
<path d="M516.667 714.933C516.267 715.867 516.133 741.867 516.267 772.667L516.667 828.667H604H691.333V771.333V714L604.267 713.6C535.333 713.333 517.067 713.6 516.667 714.933ZM642.667 751.333V784L582.4 783.733L522 783.333L521.6 752.667C521.467 735.867 521.6 721.333 521.867 720.4C522.4 719.067 535.333 718.667 582.667 718.667H642.667V751.333ZM686.667 751.333V784H667.333H648V751.333V718.667H667.333H686.667V751.333ZM642.667 806.667V824H582H521.333V806.667V789.333H582H642.667V806.667ZM686.667 806.667V824H667.333H648V806.667V789.333H667.333H686.667V806.667Z" fill="#1D1D1B"/>
<path d="M740.933 714.267C740.4 714.667 740 740.8 740 772.267V829.333H827.333H914.667L914.4 771.6L914 714L827.867 713.6C780.533 713.467 741.333 713.733 740.933 714.267ZM783.333 751.333V783.333L764.4 783.733L745.333 784.133V751.333V718.533L764.4 718.933L783.333 719.333V751.333ZM909.333 751.333V784H849.467H789.6L788.933 778.933C788.4 774.267 788.4 766.667 789.067 732.933L789.333 718.667H849.333H909.333V751.333ZM784 806.667V824H764.667H745.333V806.667V789.333H764.667H784V806.667ZM909.333 806.667V824H849.333H789.333V806.667V789.333H849.333H909.333V806.667Z" fill="#1D1D1B"/>
<path d="M516.667 909.6C516.267 910.533 516.133 953.6 516.267 1005.33L516.667 1099.33L604.4 1099.73L692 1100L691.733 1004.4L691.333 908.667L604.267 908.267C534.933 908 517.2 908.267 516.667 909.6ZM642.667 979.333V1045.33H582H521.333V980.267C521.333 944.4 521.733 914.667 522.267 914.267C522.667 913.733 550 913.333 582.933 913.333H642.667V979.333ZM686.4 979.6L686.667 1045.33H667.333H648V980.267C648 944.4 648.4 914.667 648.933 914.133C649.467 913.733 658 913.467 667.867 913.6L686 914L686.4 979.6ZM642.4 1072.93C642.133 1085.33 641.6 1095.2 641.067 1094.93C640.4 1094.8 613.333 1094.67 580.667 1094.67H521.333V1072.67V1050.67H582H642.667L642.4 1072.93ZM686.4 1072.8L686 1094.93H667.333L648.667 1094.8L648.267 1072.67L648 1050.67H667.333H686.667L686.4 1072.8Z" fill="#1D1D1B"/>
<path d="M1019.33 909.6C1018.93 910.533 1018.8 952.133 1018.93 1002L1019.33 1092.67H1144.67H1270V1000.67V908.667L1144.93 908.267C1045.6 908 1019.73 908.267 1019.33 909.6ZM1085.07 973.733L1085.33 1033.33L1055.07 1033.07L1024.67 1032.67L1024.27 974.667C1024.13 942.8 1024.27 915.867 1024.67 914.933C1025.07 913.6 1032 913.333 1054.93 913.6L1084.67 914L1085.07 973.733ZM1265.07 973.6L1265.33 1033.33H1178H1090.67V974.267C1090.67 941.733 1091.07 914.667 1091.6 914.133C1092.13 913.733 1131.2 913.467 1178.53 913.6L1264.67 914L1265.07 973.6ZM1198.4 1038.67H1265.33V1063.33V1088H1178H1090.67V1063.33V1038.8L1098.4 1038.4C1102.53 1038.13 1111.73 1038.13 1118.67 1038.27C1125.6 1038.53 1161.47 1038.67 1198.4 1038.67ZM1085.07 1062.93L1084.67 1087.33H1054.67H1024.67L1024.27 1062.93L1024 1038.67H1054.67H1085.33L1085.07 1062.93Z" fill="#1D1D1B"/>
<path d="M902.667 1075.33C899.2 1079.6 904.4 1086.13 909.067 1083.2C913.6 1080.27 912 1073.33 906.667 1073.33C905.333 1073.33 903.6 1074.27 902.667 1075.33Z" fill="#1D1D1B"/>
</svg>
