<svg width="2400" height="1320" viewBox="0 0 2400 1320" fill="none" xmlns="http://www.w3.org/2000/svg">
<path d="M703.6 579.2C695.333 582.267 688.133 587.733 684 594.267C678.4 603.067 676.933 608.4 677.6 618.4C678.533 634.133 686.133 644.8 701.067 651.733C707.2 654.533 709.733 654.933 717.867 654.4C732.8 653.333 745.2 645.2 751.2 632.133C755.067 623.6 755.067 608.4 751.2 600C743.067 582.533 721.2 572.933 703.6 579.2ZM713.333 598V613.333H698C680.533 613.333 680.533 613.333 685.467 602.667C689.733 593.067 696.8 586.933 706.667 583.867C713.333 581.867 713.333 581.733 713.333 598ZM732.8 587.333C739.067 590.933 745.067 598.267 747.467 605.2C750.533 613.467 750.8 613.333 734 613.333H718.667V597.867V582.4L723.067 583.333C725.333 583.867 729.733 585.733 732.8 587.333ZM713.333 634C713.333 651.6 713.333 651.6 702 646.133C694 642.4 689.067 637.333 685.467 629.333C680.533 618.667 680.533 618.667 698 618.667H713.333V634ZM749.333 620.267C749.2 623.867 745.6 631.867 742 636.533C737.867 642 729.6 647.333 723.067 648.667L718.667 649.6V634.133V618.667H734C745.467 618.667 749.333 619.067 749.333 620.267Z" fill="#8C8C8C"/>
<path d="M516.667 714.933C516.267 715.867 516.133 741.867 516.267 772.667L516.667 828.667H604H691.333V771.333V714L604.267 713.6C535.333 713.333 517.067 713.6 516.667 714.933ZM642.667 751.333V784L582.4 783.733L522 783.333L521.6 752.667C521.467 735.867 521.6 721.333 521.867 720.4C522.4 719.067 535.333 718.667 582.667 718.667H642.667V751.333ZM686.667 751.333V784H667.333H648V751.333V718.667H667.333H686.667V751.333ZM642.667 806.667V824H582H521.333V806.667V789.333H582H642.667V806.667ZM686.667 806.667V824H667.333H648V806.667V789.333H667.333H686.667V806.667Z" fill="#8C8C8C"/>
<path d="M740.933 714.267C740.4 714.667 740 740.8 740 772.267V829.333H827.333H914.667L914.4 771.6L914 714L827.867 713.6C780.533 713.467 741.333 713.733 740.933 714.267ZM783.333 751.333V783.333L764.4 783.733L745.333 784.133V751.333V718.533L764.4 718.933L783.333 719.333V751.333ZM909.333 751.333V784H849.467H789.6L788.933 778.933C788.4 774.267 788.4 766.667 789.067 732.933L789.333 718.667H849.333H909.333V751.333ZM784 806.667V824H764.667H745.333V806.667V789.333H764.667H784V806.667ZM909.333 806.667V824H849.333H789.333V806.667V789.333H849.333H909.333V806.667Z" fill="#8C8C8C"/>
<path d="M516.667 909.6C516.267 910.533 516.133 953.6 516.267 1005.33L516.667 1099.33L604.4 1099.73L692 1100L691.733 1004.4L691.333 908.667L604.267 908.267C534.933 908 517.2 908.267 516.667 909.6ZM642.667 979.333V1045.33H582H521.333V980.267C521.333 944.4 521.733 914.667 522.267 914.267C522.667 913.733 550 913.333 582.933 913.333H642.667V979.333ZM686.4 979.6L686.667 1045.33H667.333H648V980.267C648 944.4 648.4 914.667 648.933 914.133C649.467 913.733 658 913.467 667.867 913.6L686 914L686.4 979.6ZM642.4 1072.93C642.133 1085.33 641.6 1095.2 641.067 1094.93C640.4 1094.8 613.333 1094.67 580.667 1094.67H521.333V1072.67V1050.67H582H642.667L642.4 1072.93ZM686.4 1072.8L686 1094.93H667.333L648.667 1094.8L648.267 1072.67L648 1050.67H667.333H686.667L686.4 1072.8Z" fill="#8C8C8C"/>
<path d="M1019.33 909.6C1018.93 910.533 1018.8 952.133 1018.93 1002L1019.33 1092.67H1144.67H1270V1000.67V908.667L1144.93 908.267C1045.6 908 1019.73 908.267 1019.33 909.6ZM1085.07 973.733L1085.33 1033.33L1055.07 1033.07L1024.67 1032.67L1024.27 974.667C1024.13 942.8 1024.27 915.867 1024.67 914.933C1025.07 913.6 1032 913.333 1054.93 913.6L1084.67 914L1085.07 973.733ZM1265.07 973.6L1265.33 1033.33H1178H1090.67V974.267C1090.67 941.733 1091.07 914.667 1091.6 914.133C1092.13 913.733 1131.2 913.467 1178.53 913.6L1264.67 914L1265.07 973.6ZM1198.4 1038.67H1265.33V1063.33V1088H1178H1090.67V1063.33V1038.8L1098.4 1038.4C1102.53 1038.13 1111.73 1038.13 1118.67 1038.27C1125.6 1038.53 1161.47 1038.67 1198.4 1038.67ZM1085.07 1062.93L1084.67 1087.33H1054.67H1024.67L1024.27 1062.93L1024 1038.67H1054.67H1085.33L1085.07 1062.93Z" fill="#8C8C8C"/>
<path d="M902.667 1075.33C899.2 1079.6 904.4 1086.13 909.067 1083.2C913.6 1080.27 912 1073.33 906.667 1073.33C905.333 1073.33 903.6 1074.27 902.667 1075.33Z" fill="#8C8C8C"/>
<path fill-rule="evenodd" clip-rule="evenodd" d="M708 530.8C706.517 531.64 704.009 533.048 700.936 534.773C695.719 537.702 688.876 541.543 682.667 545.067C676.666 548.391 669.877 552.209 664.397 555.29L664.265 555.365C660.793 557.318 657.857 558.968 656 560C653.719 561.268 647.315 564.883 638.703 569.743L637.995 570.143L636.719 570.863C627.523 576.054 616.143 582.478 604.667 588.933C581.2 602.133 536.8 627.2 506 644.667C501.945 646.951 498.152 649.087 494.603 651.085C449.976 676.21 444.05 679.546 444.485 681.061C444.551 681.293 444.766 681.482 445.015 681.7C445.162 681.829 445.321 681.969 445.467 682.133C446.667 683.6 450.667 684 462.8 684H478.667V942.667V1201.33H386.667H294.667V1135.33C294.667 1090.13 294.267 1069.33 293.333 1069.33C292.267 1069.33 292 1033.07 292.4 950.933C292.929 824.535 292.933 824.525 299.824 808.672L300 808.267C309.2 787.467 324.267 783.333 337.2 798C341.867 803.333 342.4 806.267 339.2 808.667C338 809.467 336.4 812.933 335.467 816.4C334 822 333.2 822.933 326.667 826.267C318.667 830.4 314.933 834.667 314.4 840.667L314 844.667L323.733 845.067C332.4 845.467 333.333 845.733 333.333 848.133C333.333 852.667 340.4 858.667 345.733 858.667C351.467 858.667 356.8 854.533 358 849.333C358.798 845.478 359.065 845.467 368.314 845.07L368.317 845.07L368.4 845.067L368.42 845.066C374.652 844.806 376.83 844.715 377.517 843.655C377.886 843.087 377.826 842.239 377.733 840.937L377.733 840.933C377.333 835.2 372.267 829.333 364.667 825.867C358.4 822.933 357.6 822.133 356.8 817.467C356.267 813.867 354.667 811.067 351.733 808.667C349.467 806.8 346.4 802.8 344.933 799.867C340.533 790.933 330.133 784 321.067 784C310.667 784.133 302.267 790.933 295.333 804.8L292.133 811.333V792.4C291.867 751.333 284.133 726.667 268.667 717.6C257.467 711.2 242.533 716.267 235.067 728.933C233.067 732.533 229.467 737.2 227.2 739.333C224.533 741.867 222.533 745.333 222 748.4C221.2 752.533 220.133 753.733 216.4 755.333C206.933 759.333 201.467 765.467 201.333 772.267C201.333 773.589 201.333 774.442 201.742 774.994C202.486 776 204.591 776 210.533 776H219.733L221.333 780.533C224.267 789.733 234.667 792.267 241.467 785.467C243.6 783.333 245.333 780.267 245.333 778.8C245.333 776.4 246.267 776.133 254.933 775.733C263.6 775.333 264.667 775.067 265.067 772.667C265.733 767.867 259.867 760.933 251.6 756.8C245.2 753.6 244 752.4 244 749.333C244 747.333 242.533 743.467 240.667 740.8C238.8 738.133 237.333 735.333 237.333 734.533C237.333 733.867 240 730.667 243.2 727.333C259.067 711.467 275.467 721.733 283.467 752.667C285.733 761.333 285.867 772.4 286.267 915.6C286.667 1021.07 286.267 1069.33 285.333 1069.33C284.4 1069.33 284 1090.67 284 1135.33V1201.33L201.067 1201.6C123.2 1202 118 1202.13 117.6 1204.4C117.2 1206.53 169.466 1206.67 1200 1206.67C2230.53 1206.67 2282.8 1206.53 2282.4 1204.4C2282 1202.13 2276.8 1202 2200.27 1201.6L2118.67 1201.33L2118.53 1136.93C2118.4 1101.6 2118.4 1072.27 2118.4 1071.73C2118.53 1071.33 2117.73 1070.13 2116.67 1069.33C2114.93 1067.87 2114.67 1049.07 2114.67 927.467C2114.67 763.333 2115.07 756 2124.27 736.4C2131.87 720 2145.33 715.467 2156.8 725.6C2159.33 727.867 2162.27 731.333 2163.33 733.333C2165.07 736.667 2164.93 737.2 2161.87 740.133C2160.13 741.867 2158.27 745.333 2157.87 748.133C2157.07 752.667 2156.27 753.6 2149.73 756.8C2141.87 760.533 2137.33 766.267 2137.33 772.267C2137.33 773.589 2137.33 774.442 2137.74 774.994C2138.48 776 2140.59 776 2146.53 776C2152.44 776 2154.55 776 2155.56 777.057C2156.11 777.636 2156.32 778.532 2156.65 779.921L2156.67 780C2157.87 785.2 2163.2 789.333 2168.93 789.333C2174.27 789.333 2181.33 783.333 2181.33 778.8C2181.33 776.4 2182.27 776.133 2191.07 775.733L2200.67 775.333L2200.4 771.333C2200 765.467 2196.13 761.067 2187.6 756.8C2181.47 753.733 2180 752.4 2180 749.733C2180 745.467 2176.53 739.067 2173.33 737.333C2171.87 736.533 2169.47 733.733 2168.13 730.933C2160.27 715.733 2144 710.4 2131.2 719.067C2116.93 728.533 2109.33 755.2 2109.33 796V811.333L2105.47 803.2C2101.07 794 2092.53 785.733 2085.73 784.533C2075.2 782.533 2063.47 788.4 2057.73 798.533C2055.73 801.867 2052.53 806 2050.4 807.733C2048.13 809.733 2046.13 813.2 2045.2 816.8C2043.87 821.867 2042.93 823.067 2038.13 825.067C2030.93 828.267 2024 836.267 2024 841.333V845.2L2033.73 845.6C2042.4 846 2043.33 846.267 2043.73 848.933C2044.4 853.867 2050 858.667 2055.2 858.667C2060.53 858.667 2067.6 853.467 2068.27 848.933C2068.67 846.267 2069.47 846 2078.53 845.6L2088.27 845.2L2087.6 840.4C2086.53 834.267 2079.73 827.2 2072.53 824.667C2067.87 823.067 2067.2 822.4 2066.4 817.2C2065.87 814.133 2064.13 810.267 2062.53 808.533C2060 805.733 2059.87 805.333 2061.87 801.6C2067.07 791.467 2080.53 786.667 2088.93 791.867C2098.53 797.867 2105.07 811.867 2107.87 832.667C2109.87 846.267 2109.87 1069.33 2108 1069.33C2107.07 1069.33 2106.67 1092.27 2106.67 1135.33V1201.33H2036.53H1966.27L1966.64 1201H1952.64C1951.9 1201.21 1951.26 1201.33 1950.8 1201.33H1946.93L1947.27 1201H1910.63C1889.29 1201.23 1857.05 1201.33 1814.53 1201.33H1687.73L1688.65 1200.5H1671.13C1667.61 1201.01 1664.08 1200.99 1660.62 1200.5H1643.45L1644.53 1201.33H1582.67H1520.8L1521.93 1200.5H1518.5H1506.53C1506.49 1200.51 1506.44 1200.52 1506.4 1200.53C1504.75 1200.91 1503.86 1201.08 1503.33 1200.5H1497.33V1201.33H1459.33C1440.96 1201.33 1425.56 1201.02 1422.07 1200.5H1417L1415.81 1200.04L1415.47 1201.33H1379.73H1344L1344.27 1042.4L1344.67 883.333L1359.07 882.933L1373.47 882.533L1373.07 872.933L1372.67 863.333L1163.07 862.933L953.467 862.667L953.067 858.933C952.8 856.933 952.8 816.8 953.067 769.733L953.333 684.133L969.733 683.733C983.333 683.333 986 682.933 986.4 681.2C986.667 679.6 966.133 667.467 909.067 635.333C866.267 611.2 816.4 583.067 798 572.667C757.467 549.733 716.267 526.667 715.733 526.667C715.467 526.667 712 528.533 708 530.8ZM1415.33 1141.85L1418.57 1133.85L1415.33 1134V1141.85ZM743.333 548C749.444 551.555 764.813 560.203 780.183 568.851C781.586 569.641 782.99 570.431 784.386 571.216C786.049 572.152 787.702 573.082 789.333 574C800.313 580.182 818.536 590.48 837.404 601.144L837.574 601.24C849.585 608.028 861.849 614.959 872.667 621.067C900.533 636.8 934.267 655.733 947.6 663.2C960.933 670.533 971.867 677.067 972 677.6C972 678.267 856.4 678.667 715.067 678.667C563.6 678.667 458.667 678.133 459.467 677.467C460.133 676.8 467.6 672.4 476 667.733C477.527 666.872 479.91 665.531 483.012 663.784C485.263 662.517 487.893 661.036 490.849 659.372C528.631 638.103 619.705 586.831 654.667 566.933C668.933 558.933 688.533 547.733 698 542.267L715.333 532.267L722.667 536.4C724.536 537.46 727.571 539.16 731.023 541.093L731.753 541.502C735.502 543.601 739.668 545.934 743.333 548ZM946.667 773.333V862.667L803.733 862.933L660.667 863.333V872.667V882L696.667 882.667L732.667 883.333L733.067 1042.27L733.333 1201.33H608.667H484V942.667V684H715.333H946.667V773.333ZM236.533 744.267C240.4 749.867 239.333 752 232.667 752C226.4 752 225.6 751.067 228.133 746.267C231.067 740.667 233.6 740.133 236.533 744.267ZM2172.53 744.267C2176.4 749.867 2175.33 752 2168.67 752C2162.4 752 2161.6 751.067 2164.13 746.267C2167.07 740.667 2169.6 740.133 2172.53 744.267ZM248 760.933C252.8 762.8 258.667 767.6 258.667 769.6C258.667 770.133 246.933 770.667 232.667 770.667C207.333 770.667 206.667 770.533 208 768.133C212.8 758.933 234 755.067 248 760.933ZM2184 760.933C2188.8 762.8 2194.67 767.6 2194.67 769.6C2194.67 770.133 2182.93 770.667 2168.67 770.667C2143.33 770.667 2142.67 770.533 2144 768.133C2148.8 758.933 2170 755.067 2184 760.933ZM240 777.867C240 783.6 230.933 786 227.467 781.067C224.667 777.067 225.867 776 233.467 776C238.267 776 240 776.533 240 777.867ZM2176 777.6C2176 780.267 2171.73 784 2168.53 784C2165.47 784 2160.93 779.067 2162.13 777.067C2163.2 775.333 2176 775.733 2176 777.6ZM350 814.667C353.067 820.533 352.533 821.333 345.867 821.333C339.867 821.333 339.733 821.333 340.667 817.733C342.533 809.867 346.8 808.4 350 814.667ZM2059.2 813.6C2060.4 815.2 2061.33 817.867 2061.33 819.333C2061.33 821.733 2060.67 822 2055.33 821.6C2049.87 821.067 2049.33 820.8 2050.13 818.133C2051.07 814.933 2054.53 810.667 2056.13 810.667C2056.67 810.667 2058.13 812 2059.2 813.6ZM362.533 831.067C365.867 832.667 369.333 835.333 370.4 836.933L372.267 840H346.133C331.333 840 320 839.467 320 838.8C320 835.467 329.333 830 339.333 827.467C344.4 826.267 356.667 828.133 362.533 831.067ZM2071.33 830.533C2074.27 831.867 2078.13 834.533 2079.87 836.533L2083.07 840H2056.27H2029.33L2031.33 836.8C2037.33 827.6 2057.73 824.533 2071.33 830.533ZM352.533 846.4C353.733 848.4 349.333 853.333 346.4 853.333C343.067 853.333 338.667 849.733 338.667 847.067C338.667 845.067 351.333 844.533 352.533 846.4ZM2062.67 847.2C2062.67 850.133 2058.8 853.333 2055.47 853.333C2051.87 853.333 2049.33 850.933 2049.33 847.733C2049.33 845.733 2050.53 845.333 2056 845.333C2060.93 845.333 2062.67 845.867 2062.67 847.2ZM1368 872.667V877.333L1179.07 877.6C1075.07 877.733 983.067 877.733 974.667 877.733C969.357 877.733 938.207 877.68 895.598 877.607L880.535 877.581C859.478 877.546 836.276 877.506 812.4 877.467L665.333 877.333V872.667V868H1016.67H1368V872.667ZM1338.67 1042V1201.33H1304.4C1269.07 1201.47 949.333 1201.47 935.733 1201.33H928L927.733 1054.93L927.333 908.667L859.467 908.267C808.267 908 791.2 908.4 789.733 909.6C788 910.933 787.867 922.667 788 989.867C788.133 1033.2 788.133 1098.53 788.133 1134.93L788 1201.33H763.333H738.667V1042.93C738.667 955.733 739.067 884 739.6 883.6C740 883.067 875.067 882.667 1039.6 882.667H1338.67V1042ZM922.4 1057.6L922.667 1201.33H858.667H794.667L794.4 1132.93L794.354 1119.99L794.31 1107.79C794.212 1080.81 794.133 1058.88 794.133 1054.67C794.133 1050.41 794.214 1028.73 794.313 1002.26C794.341 994.77 794.371 986.9 794.4 978.933L794.667 913.333L858.4 913.6L922 914L922.4 1057.6Z" fill="#8C8C8C"/>
</svg>
