<svg width="2400" height="1320" viewBox="0 0 2400 1320" fill="none" xmlns="http://www.w3.org/2000/svg">
<path d="M703.6 579.2C695.333 582.267 688.133 587.733 684 594.267C678.4 603.067 676.933 608.4 677.6 618.4C678.533 634.133 686.133 644.8 701.067 651.733C707.2 654.533 709.733 654.933 717.867 654.4C732.8 653.333 745.2 645.2 751.2 632.133C755.067 623.6 755.067 608.4 751.2 600C743.067 582.533 721.2 572.933 703.6 579.2ZM713.333 598V613.333H698C680.533 613.333 680.533 613.333 685.467 602.667C689.733 593.067 696.8 586.933 706.667 583.867C713.333 581.867 713.333 581.733 713.333 598ZM732.8 587.333C739.067 590.933 745.067 598.267 747.467 605.2C750.533 613.467 750.8 613.333 734 613.333H718.667V597.867V582.4L723.067 583.333C725.333 583.867 729.733 585.733 732.8 587.333ZM713.333 634C713.333 651.6 713.333 651.6 702 646.133C694 642.4 689.067 637.333 685.467 629.333C680.533 618.667 680.533 618.667 698 618.667H713.333V634ZM749.333 620.267C749.2 623.867 745.6 631.867 742 636.533C737.867 642 729.6 647.333 723.067 648.667L718.667 649.6V634.133V618.667H734C745.467 618.667 749.333 619.067 749.333 620.267Z" fill="#8C8C8C"/>
<path d="M516.667 714.933C516.267 715.867 516.133 741.867 516.267 772.667L516.667 828.667H604H691.333V771.333V714L604.267 713.6C535.333 713.333 517.067 713.6 516.667 714.933ZM642.667 751.333V784L582.4 783.733L522 783.333L521.6 752.667C521.467 735.867 521.6 721.333 521.867 720.4C522.4 719.067 535.333 718.667 582.667 718.667H642.667V751.333ZM686.667 751.333V784H667.333H648V751.333V718.667H667.333H686.667V751.333ZM642.667 806.667V824H582H521.333V806.667V789.333H582H642.667V806.667ZM686.667 806.667V824H667.333H648V806.667V789.333H667.333H686.667V806.667Z" fill="#8C8C8C"/>
<path d="M740.933 714.267C740.4 714.667 740 740.8 740 772.267V829.333H827.333H914.667L914.4 771.6L914 714L827.867 713.6C780.533 713.467 741.333 713.733 740.933 714.267ZM783.333 751.333V783.333L764.4 783.733L745.333 784.133V751.333V718.533L764.4 718.933L783.333 719.333V751.333ZM909.333 751.333V784H849.467H789.6L788.933 778.933C788.4 774.267 788.4 766.667 789.067 732.933L789.333 718.667H849.333H909.333V751.333ZM784 806.667V824H764.667H745.333V806.667V789.333H764.667H784V806.667ZM909.333 806.667V824H849.333H789.333V806.667V789.333H849.333H909.333V806.667Z" fill="#8C8C8C"/>
<path d="M516.667 909.6C516.267 910.533 516.133 953.6 516.267 1005.33L516.667 1099.33L604.4 1099.73L692 1100L691.733 1004.4L691.333 908.667L604.267 908.267C534.933 908 517.2 908.267 516.667 909.6ZM642.667 979.333V1045.33H582H521.333V980.267C521.333 944.4 521.733 914.667 522.267 914.267C522.667 913.733 550 913.333 582.933 913.333H642.667V979.333ZM686.4 979.6L686.667 1045.33H667.333H648V980.267C648 944.4 648.4 914.667 648.933 914.133C649.467 913.733 658 913.467 667.867 913.6L686 914L686.4 979.6ZM642.4 1072.93C642.133 1085.33 641.6 1095.2 641.067 1094.93C640.4 1094.8 613.333 1094.67 580.667 1094.67H521.333V1072.67V1050.67H582H642.667L642.4 1072.93ZM686.4 1072.8L686 1094.93H667.333L648.667 1094.8L648.267 1072.67L648 1050.67H667.333H686.667L686.4 1072.8Z" fill="#8C8C8C"/>
<path d="M1019.33 909.6C1018.93 910.533 1018.8 952.133 1018.93 1002L1019.33 1092.67H1144.67H1270V1000.67V908.667L1144.93 908.267C1045.6 908 1019.73 908.267 1019.33 909.6ZM1085.07 973.733L1085.33 1033.33L1055.07 1033.07L1024.67 1032.67L1024.27 974.667C1024.13 942.8 1024.27 915.867 1024.67 914.933C1025.07 913.6 1032 913.333 1054.93 913.6L1084.67 914L1085.07 973.733ZM1265.07 973.6L1265.33 1033.33H1178H1090.67V974.267C1090.67 941.733 1091.07 914.667 1091.6 914.133C1092.13 913.733 1131.2 913.467 1178.53 913.6L1264.67 914L1265.07 973.6ZM1198.4 1038.67H1265.33V1063.33V1088H1178H1090.67V1063.33V1038.8L1098.4 1038.4C1102.53 1038.13 1111.73 1038.13 1118.67 1038.27C1125.6 1038.53 1161.47 1038.67 1198.4 1038.67ZM1085.07 1062.93L1084.67 1087.33H1054.67H1024.67L1024.27 1062.93L1024 1038.67H1054.67H1085.33L1085.07 1062.93Z" fill="#8C8C8C"/>
<path d="M902.667 1075.33C899.2 1079.6 904.4 1086.13 909.067 1083.2C913.6 1080.27 912 1073.33 906.667 1073.33C905.333 1073.33 903.6 1074.27 902.667 1075.33Z" fill="#8C8C8C"/>
<path fill-rule="evenodd" clip-rule="evenodd" d="M700.936 534.773C704.009 533.048 706.517 531.64 708 530.8C712 528.533 715.467 526.667 715.733 526.667C716.267 526.667 757.467 549.733 798 572.667C816.4 583.067 866.267 611.2 909.067 635.333C966.133 667.467 986.667 679.6 986.4 681.2C986 682.933 983.333 683.333 969.733 683.733L953.333 684.133L953.067 769.733C952.8 816.8 952.8 856.933 953.067 858.933L953.467 862.667L1163.07 862.933L1372.67 863.333L1373.07 872.933L1373.47 882.533L1359.07 882.933L1344.67 883.333L1344.27 1042.4L1344 1201.33H1379.73H1415.47L1420.93 1180.93C1424 1169.87 1426.93 1159.6 1427.33 1158.4C1428.13 1156.53 1427.2 1156.13 1421.73 1155.73L1415.33 1155.33V1144.67V1134L1424.27 1133.6C1432.8 1133.2 1433.33 1133.07 1434.27 1129.6C1434.5 1128.44 1435.59 1124.17 1437.03 1118.49C1438.08 1114.4 1439.31 1109.58 1440.53 1104.67L1446 1083.33L1453.87 1082.93C1458.13 1082.67 1462.27 1083.07 1462.93 1083.73C1463.6 1084.4 1461.73 1094.4 1458.67 1107.07C1455.73 1119.33 1453.33 1130.27 1453.33 1131.33C1453.33 1132.8 1454.93 1133.33 1460.13 1133.33C1465.6 1133.33 1467.87 1132.53 1471.87 1129.47C1482.27 1121.33 1493.73 1118.13 1505.73 1120L1512.27 1120.93L1514.67 1115.47C1519.6 1103.87 1524 1089.2 1528.8 1068C1534.93 1040.67 1536.13 1039.07 1551.33 1037.33C1555.73 1036.8 1561.33 1035.47 1563.73 1034.53C1567.47 1032.93 1568.67 1032.93 1571.73 1034.67C1576.13 1037.2 1577.2 1042.53 1573.87 1044.93C1570.67 1047.33 1563.33 1047.07 1561.33 1044.67C1559.07 1042 1547.73 1042 1542.67 1044.67C1539.6 1046.27 1538.67 1047.73 1538.67 1050.53C1538.67 1055.6 1543.47 1059.73 1553.33 1062.8C1563.33 1065.87 1565.07 1065.87 1570.4 1063.33C1574.8 1061.07 1580.27 1061.73 1582.67 1064.67C1585.2 1067.73 1583.6 1072.53 1579.6 1074.4C1576.4 1076 1575.2 1075.87 1570.13 1073.47C1567.07 1071.87 1563.6 1070.67 1562.4 1070.67C1558.27 1070.67 1542.93 1065.33 1539.6 1062.67L1536.27 1060L1532.53 1075.6C1530.67 1084.27 1528.8 1091.73 1528.4 1092.27C1528.13 1092.8 1536.93 1102 1548 1112.8L1568.13 1132.53L1590.93 1138.93C1603.47 1142.53 1613.87 1145.2 1614 1145.07C1614.67 1144.13 1628 1101.6 1628 1100.27C1628 1099.33 1626.93 1098.67 1625.6 1098.67C1620.8 1098.67 1617.33 1094.8 1617.33 1089.2V1084H1637.2H1657.2L1659.87 1087.47C1663.33 1091.87 1663.47 1098.67 1660.13 1102.8C1656.8 1106.93 1648.27 1106.93 1640.53 1102.93C1634.8 1100 1633.33 1100.27 1633.33 1104.13C1633.33 1106.8 1634.8 1107.47 1648 1110.8C1663.73 1114.67 1674.93 1113.6 1676.8 1107.73C1677.2 1106.27 1676.8 1097.87 1675.87 1089.07C1674.53 1076.8 1674.53 1071.47 1675.73 1065.87C1677.33 1058 1681.73 1050.67 1684.67 1050.67C1687.6 1050.67 1688.4 1053.33 1686.13 1055.73C1679.87 1062.67 1678.4 1076.27 1682 1093.2C1683.07 1098.4 1683.6 1104.4 1683.2 1106.53C1682.27 1111.33 1676.67 1116.67 1671.33 1118C1667.6 1118.93 1667.73 1119.07 1674.93 1120.53C1709.47 1127.73 1720.93 1171.47 1694.4 1195.33L1687.73 1201.33H1814.53C1857.05 1201.33 1889.29 1201.23 1910.63 1201H1947.27L1946.93 1201.33H1950.8C1951.26 1201.33 1951.9 1201.21 1952.64 1201H1966.64L1966.27 1201.33H2036.53H2106.67V1135.33C2106.67 1092.27 2107.07 1069.33 2108 1069.33C2109.87 1069.33 2109.87 846.267 2107.87 832.667C2105.07 811.867 2098.53 797.867 2088.93 791.867C2080.53 786.667 2067.07 791.467 2061.87 801.6C2059.87 805.333 2060 805.733 2062.53 808.533C2064.13 810.267 2065.87 814.133 2066.4 817.2C2067.2 822.4 2067.87 823.067 2072.53 824.667C2079.73 827.2 2086.53 834.267 2087.6 840.4L2088.27 845.2L2078.53 845.6C2069.47 846 2068.67 846.267 2068.27 848.933C2067.6 853.467 2060.53 858.667 2055.2 858.667C2050 858.667 2044.4 853.867 2043.73 848.933C2043.33 846.267 2042.4 846 2033.73 845.6L2024 845.2V841.333C2024 836.267 2030.93 828.267 2038.13 825.067C2042.93 823.067 2043.87 821.867 2045.2 816.8C2046.13 813.2 2048.13 809.733 2050.4 807.733C2052.53 806 2055.73 801.867 2057.73 798.533C2063.47 788.4 2075.2 782.533 2085.73 784.533C2092.53 785.733 2101.07 794 2105.47 803.2L2109.33 811.333V796C2109.33 755.2 2116.93 728.533 2131.2 719.067C2144 710.4 2160.27 715.733 2168.13 730.933C2169.47 733.733 2171.87 736.533 2173.33 737.333C2176.53 739.067 2180 745.467 2180 749.733C2180 752.4 2181.47 753.733 2187.6 756.8C2196.13 761.067 2200 765.467 2200.4 771.333L2200.67 775.333L2191.07 775.733C2182.27 776.133 2181.33 776.4 2181.33 778.8C2181.33 783.333 2174.27 789.333 2168.93 789.333C2163.2 789.333 2157.87 785.2 2156.67 780C2156.33 778.566 2156.12 777.647 2155.56 777.057C2154.55 776 2152.44 776 2146.53 776C2137.33 776 2137.33 776 2137.33 772.267C2137.33 766.267 2141.87 760.533 2149.73 756.8C2156.27 753.6 2157.07 752.667 2157.87 748.133C2158.27 745.333 2160.13 741.867 2161.87 740.133C2164.93 737.2 2165.07 736.667 2163.33 733.333C2162.27 731.333 2159.33 727.867 2156.8 725.6C2145.33 715.467 2131.87 720 2124.27 736.4C2115.07 756 2114.67 763.333 2114.67 927.467C2114.67 1049.07 2114.93 1067.87 2116.67 1069.33C2117.73 1070.13 2118.53 1071.33 2118.4 1071.73C2118.4 1072.27 2118.4 1101.6 2118.53 1136.93L2118.67 1201.33L2200.27 1201.6C2276.8 1202 2282 1202.13 2282.4 1204.4C2282.8 1206.53 2230.53 1206.67 1200 1206.67C169.466 1206.67 117.2 1206.53 117.6 1204.4C118 1202.13 123.2 1202 201.067 1201.6L284 1201.33V1135.33C284 1090.67 284.4 1069.33 285.333 1069.33C286.267 1069.33 286.667 1021.07 286.267 915.6C285.867 772.4 285.733 761.333 283.467 752.667C275.467 721.733 259.067 711.467 243.2 727.333C240 730.667 237.333 733.867 237.333 734.533C237.333 735.333 238.8 738.133 240.667 740.8C242.533 743.467 244 747.333 244 749.333C244 752.4 245.2 753.6 251.6 756.8C259.867 760.933 265.733 767.867 265.067 772.667C264.667 775.067 263.6 775.333 254.933 775.733C246.267 776.133 245.333 776.4 245.333 778.8C245.333 780.267 243.6 783.333 241.467 785.467C234.667 792.267 224.267 789.733 221.333 780.533L219.733 776H210.533C204.591 776 202.486 776 201.742 774.994C201.333 774.442 201.333 773.589 201.333 772.267C201.467 765.467 206.933 759.333 216.4 755.333C220.133 753.733 221.2 752.533 222 748.4C222.533 745.333 224.533 741.867 227.2 739.333C229.467 737.2 233.067 732.533 235.067 728.933C242.533 716.267 257.467 711.2 268.667 717.6C284.133 726.667 291.867 751.333 292.133 792.4V811.333L295.333 804.8C302.267 790.933 310.667 784.133 321.067 784C330.133 784 340.533 790.933 344.933 799.867C346.4 802.8 349.467 806.8 351.733 808.667C354.667 811.067 356.267 813.867 356.8 817.467C357.6 822.133 358.4 822.933 364.667 825.867C372.267 829.333 377.333 835.2 377.733 840.933C377.826 842.237 377.887 843.086 377.517 843.655C376.829 844.716 374.647 844.806 368.4 845.067L368.317 845.07C359.065 845.467 358.798 845.478 358 849.333C356.8 854.533 351.467 858.667 345.733 858.667C340.4 858.667 333.333 852.667 333.333 848.133C333.333 845.733 332.4 845.467 323.733 845.067L314 844.667L314.4 840.667C314.933 834.667 318.667 830.4 326.667 826.267C333.2 822.933 334 822 335.467 816.4C336.4 812.933 338 809.467 339.2 808.667C342.4 806.267 341.867 803.333 337.2 798C324.267 783.333 309.2 787.467 300 808.267L299.824 808.672C292.933 824.525 292.929 824.535 292.4 950.933C292 1033.07 292.267 1069.33 293.333 1069.33C294.267 1069.33 294.667 1090.13 294.667 1135.33V1201.33H386.667H478.667V942.667V684H462.8C450.667 684 446.667 683.6 445.467 682.133C445.074 681.691 444.59 681.43 444.485 681.061C444.016 679.426 450.959 675.668 506 644.667C536.8 627.2 581.2 602.133 604.667 588.933C616.68 582.176 628.588 575.453 637.995 570.143C646.963 565.081 653.657 561.302 656 560C657.857 558.968 660.793 557.318 664.265 555.365C669.767 552.271 676.618 548.418 682.667 545.067C688.876 541.543 695.719 537.702 700.936 534.773ZM780.183 568.851C764.813 560.203 749.444 551.555 743.333 548C739.668 545.934 735.502 543.601 731.753 541.502C728.002 539.401 724.667 537.534 722.667 536.4L715.333 532.267L698 542.267C688.533 547.733 668.933 558.933 654.667 566.933C619.705 586.831 528.631 638.103 490.849 659.372C483.82 663.33 478.635 666.248 476 667.733C467.6 672.4 460.133 676.8 459.467 677.467C458.667 678.133 563.6 678.667 715.067 678.667C856.4 678.667 972 678.267 972 677.6C971.867 677.067 960.933 670.533 947.6 663.2C934.267 655.733 900.533 636.8 872.667 621.067C861.849 614.959 849.585 608.028 837.574 601.24C818.645 590.542 800.346 580.2 789.333 574C786.332 572.311 783.257 570.581 780.183 568.851ZM946.667 862.667V773.333V684H715.333H484V942.667V1201.33H608.667H733.333L733.067 1042.27L732.667 883.333L696.667 882.667L660.667 882V872.667V863.333L803.733 862.933L946.667 862.667ZM232.667 752C239.333 752 240.4 749.867 236.533 744.267C233.6 740.133 231.067 740.667 228.133 746.267C225.6 751.067 226.4 752 232.667 752ZM2168.67 752C2175.33 752 2176.4 749.867 2172.53 744.267C2169.6 740.133 2167.07 740.667 2164.13 746.267C2161.6 751.067 2162.4 752 2168.67 752ZM258.667 769.6C258.667 767.6 252.8 762.8 248 760.933C234 755.067 212.8 758.933 208 768.133C206.667 770.533 207.333 770.667 232.667 770.667C246.933 770.667 258.667 770.133 258.667 769.6ZM2194.67 769.6C2194.67 767.6 2188.8 762.8 2184 760.933C2170 755.067 2148.8 758.933 2144 768.133C2142.67 770.533 2143.33 770.667 2168.67 770.667C2182.93 770.667 2194.67 770.133 2194.67 769.6ZM227.467 781.067C230.933 786 240 783.6 240 777.867C240 776.533 238.267 776 233.467 776C225.867 776 224.667 777.067 227.467 781.067ZM2168.53 784C2171.73 784 2176 780.267 2176 777.6C2176 775.733 2163.2 775.333 2162.13 777.067C2160.93 779.067 2165.47 784 2168.53 784ZM345.867 821.333C352.533 821.333 353.067 820.533 350 814.667C346.8 808.4 342.533 809.867 340.667 817.733C339.733 821.333 339.867 821.333 345.867 821.333ZM2061.33 819.333C2061.33 817.867 2060.4 815.2 2059.2 813.6C2058.13 812 2056.67 810.667 2056.13 810.667C2054.53 810.667 2051.07 814.933 2050.13 818.133C2049.33 820.8 2049.87 821.067 2055.33 821.6C2060.67 822 2061.33 821.733 2061.33 819.333ZM370.4 836.933C369.333 835.333 365.867 832.667 362.533 831.067C356.667 828.133 344.4 826.267 339.333 827.467C329.333 830 320 835.467 320 838.8C320 839.467 331.333 840 346.133 840H372.267L370.4 836.933ZM2079.87 836.533C2078.13 834.533 2074.27 831.867 2071.33 830.533C2057.73 824.533 2037.33 827.6 2031.33 836.8L2029.33 840H2056.27H2083.07L2079.87 836.533ZM346.4 853.333C349.333 853.333 353.733 848.4 352.533 846.4C351.333 844.533 338.667 845.067 338.667 847.067C338.667 849.733 343.067 853.333 346.4 853.333ZM2055.47 853.333C2058.8 853.333 2062.67 850.133 2062.67 847.2C2062.67 845.867 2060.93 845.333 2056 845.333C2050.53 845.333 2049.33 845.733 2049.33 847.733C2049.33 850.933 2051.87 853.333 2055.47 853.333ZM1368 877.333V872.667V868H1016.67H665.333V872.667V877.333L812.4 877.467C842.124 877.516 870.801 877.565 895.598 877.607C938.207 877.68 969.357 877.733 974.667 877.733C983.067 877.733 1075.07 877.733 1179.07 877.6L1368 877.333ZM1338.67 1201.33V1042V882.667H1039.6C875.067 882.667 740 883.067 739.6 883.6C739.067 884 738.667 955.733 738.667 1042.93V1201.33H763.333H788L788.133 1134.93C788.133 1098.53 788.133 1033.2 788 989.867C787.867 922.667 788 910.933 789.733 909.6C791.2 908.4 808.267 908 859.467 908.267L927.333 908.667L927.733 1054.93L928 1201.33H935.733C949.333 1201.47 1269.07 1201.47 1304.4 1201.33H1338.67ZM922.667 1201.33L922.4 1057.6L922 914L858.4 913.6L794.667 913.333L794.4 978.933C794.371 986.9 794.341 994.77 794.313 1002.26C794.214 1028.73 794.133 1050.41 794.133 1054.67C794.133 1058.88 794.212 1080.81 794.31 1107.79C794.339 1115.83 794.369 1124.33 794.4 1132.93L794.667 1201.33H858.667H922.667ZM1567.47 1041.33C1569.33 1041.33 1570.53 1040.8 1570 1040C1569.6 1039.2 1568 1038.67 1566.53 1038.67C1565.2 1038.67 1564 1039.2 1564 1040C1564 1040.67 1565.6 1041.33 1567.47 1041.33ZM1574.67 1069.73C1577.87 1070.53 1579.47 1068.67 1576.53 1067.47C1573.87 1066.4 1573.6 1066.4 1572.8 1067.87C1572.4 1068.53 1573.2 1069.33 1574.67 1069.73ZM1452.59 1109.67C1455.21 1098.86 1457.33 1090.07 1457.33 1089.33C1457.33 1088.67 1455.73 1088 1453.87 1088C1451.47 1088 1450.13 1088.93 1449.6 1090.93C1449.46 1091.52 1449.04 1093.2 1448.41 1095.64C1447.21 1100.39 1445.27 1107.99 1443.33 1116L1437.87 1138L1428.93 1138.4L1420 1138.8V1144.67V1150.53L1427.07 1150.93C1429.89 1151.11 1431.77 1151.01 1432.7 1151.89C1434.53 1153.64 1432.69 1159.25 1427.2 1178.53C1424 1190 1421.33 1199.73 1421.33 1200.27C1421.33 1200.93 1438.4 1201.33 1459.33 1201.33H1497.33V1197.33V1193.33H1465.33C1437.33 1193.33 1433.2 1193.07 1432.4 1191.2C1431.6 1189.07 1433.33 1182 1439.47 1161.6L1442.8 1150.67H1479.33H1516V1144.67V1138.67H1482C1452.67 1138.67 1447.87 1138.4 1447.2 1136.67C1446.67 1135.47 1448.8 1124.67 1451.87 1112.67L1452.59 1109.67ZM1651.73 1101.33C1655.33 1101.33 1657.6 1098.13 1657.07 1093.73L1656.67 1090L1639.6 1089.6C1626.13 1089.33 1622.53 1089.6 1622.93 1090.93C1623.33 1091.87 1626.13 1093.07 1629.47 1093.47C1632.67 1093.87 1638.4 1095.73 1642.27 1097.73C1646.13 1099.73 1650.4 1101.33 1651.73 1101.33ZM1592 1174.67C1591.07 1173.07 1590.8 1169.73 1591.2 1167.33C1592 1163.2 1591.2 1162.13 1559.33 1131.33C1528.4 1101.47 1526.67 1099.87 1525.47 1102.93C1524.81 1104.24 1523.35 1107.96 1521.9 1111.68C1521.57 1112.51 1521.25 1113.33 1520.93 1114.13L1517.6 1122.27L1524.67 1127.33C1536.53 1136 1543.2 1148.53 1543.07 1162.67C1543.07 1176.93 1536.93 1189.47 1526.27 1197.33L1520.8 1201.33H1582.67H1644.53L1638.8 1196.93C1631.73 1191.47 1626 1182.67 1623.6 1173.33C1621.33 1164.53 1617.33 1162.27 1617.33 1169.73C1617.33 1172.93 1616.13 1175.87 1613.87 1178.53C1610.8 1182.13 1609.6 1182.67 1603.6 1182.67C1597.6 1182.67 1596.13 1183.33 1590.53 1188L1584.13 1193.33L1574.4 1188.67C1563.07 1183.07 1561.6 1181.87 1563.6 1179.87C1564.8 1178.67 1567.47 1179.33 1574 1182.53C1583.6 1186.93 1584.93 1186.8 1590.4 1180.93C1593.07 1178.13 1593.33 1177.2 1592 1174.67ZM1658.67 1120C1663.87 1119.87 1659.2 1117.87 1651.73 1116.93C1648.27 1116.4 1642.13 1114.93 1638.13 1113.47L1630.8 1110.93L1624.93 1128.67C1621.6 1138.53 1619.33 1146.8 1619.73 1147.2C1621.6 1149.2 1625.2 1147.73 1626.4 1144.27C1628.67 1137.73 1638.8 1127.87 1647.33 1123.87C1651.73 1121.73 1656.8 1120 1658.67 1120ZM1509.2 1129.87C1510 1127.87 1510.53 1126.13 1510.4 1126C1510.13 1125.87 1507.33 1125.33 1504 1124.93C1497.07 1124.13 1488.67 1125.6 1482.8 1128.53C1475.07 1132.53 1476.67 1133.33 1492.4 1133.33C1507.47 1133.33 1507.6 1133.33 1509.2 1129.87ZM1701.87 1174.13C1707.73 1155.6 1698.53 1135.6 1680.8 1128C1668.8 1122.8 1657.2 1123.87 1644.8 1131.2C1638.93 1134.67 1630.67 1144.8 1630.67 1148.67C1630.67 1150.27 1663.6 1159.6 1664.8 1158.27C1666.27 1156.8 1670.67 1160 1670.67 1162.53C1670.67 1166.67 1667.2 1168.67 1663.2 1166.8C1661.33 1166 1653.07 1165.33 1644 1165.33C1633.75 1165.33 1629.38 1165.29 1628.22 1167.2C1627.32 1168.67 1628.32 1171.3 1630 1176C1636.53 1194.53 1657.87 1205.2 1676.8 1199.2C1687.87 1195.87 1698.53 1185.2 1701.87 1174.13ZM1537.87 1163.2C1537.87 1154.53 1536.13 1149.07 1530.8 1140.93C1527.33 1135.6 1516.93 1127.47 1515.47 1128.93C1513.73 1130.8 1514.8 1133.2 1517.73 1133.6C1520.53 1134 1520.67 1134.67 1520.67 1144.67V1155.33L1512.67 1156C1505.2 1156.67 1504.67 1156.93 1504.53 1160C1504.27 1166 1504 1166.53 1501.33 1167.33C1496.13 1168.93 1491.73 1161.07 1496.67 1159.2C1502.27 1157.07 1496.8 1156 1479.87 1156H1460.93L1461.73 1164.8C1462.27 1170.53 1463.87 1175.87 1466.27 1180.4L1470 1187.33L1486 1188L1502 1188.67L1502.4 1195.07C1502.8 1201.2 1502.93 1201.33 1506.4 1200.53C1524.8 1196.4 1537.73 1181.07 1537.87 1163.2ZM1610.93 1150.53C1610.4 1150.13 1602.93 1147.87 1594.27 1145.47C1585.6 1143.2 1578.27 1141.33 1578.13 1141.33C1577.87 1141.33 1581.6 1145.2 1586.53 1150L1595.47 1158.53L1602.93 1157.73C1609.07 1157.07 1610.53 1156.53 1611.2 1154.13C1611.6 1152.67 1611.47 1151.07 1610.93 1150.53ZM1622.67 1156.8C1622.67 1155.07 1621.73 1153.2 1620.53 1152.8C1619.27 1152.32 1618.63 1152.03 1618.15 1152.2C1617.57 1152.4 1617.22 1153.28 1616.27 1155.33C1615.16 1157.75 1614.63 1158.92 1615 1159.48C1615.35 1160 1616.48 1160 1618.67 1160C1622 1160 1622.67 1159.47 1622.67 1156.8ZM1459.87 1180.13C1458.4 1176.93 1456.8 1170.27 1456.4 1165.2L1455.6 1156H1451.2C1446.8 1156 1446.67 1156.13 1444 1165.6C1443.59 1166.98 1443.15 1168.46 1442.7 1169.96C1441.43 1174.26 1440.12 1178.66 1439.33 1180.93C1438.4 1184 1437.87 1186.8 1438.4 1187.2C1439.6 1188.4 1462.67 1188.13 1462.67 1186.93C1462.67 1186.27 1461.47 1183.33 1459.87 1180.13ZM1644.67 1159.87L1638.67 1157.87C1630.93 1155.47 1628 1155.47 1628 1158C1628 1159.6 1629.73 1160 1636.4 1159.87H1644.67ZM1604.13 1177.33C1611.07 1177.33 1614.67 1169.47 1609.87 1164.8C1607.2 1162.13 1600.8 1162 1598.67 1164.67C1597.73 1165.73 1597.07 1168.13 1597.07 1170C1597.07 1174.53 1599.6 1177.33 1604.13 1177.33Z" fill="#8C8C8C"/>
</svg>
