<svg width="204" height="203" viewBox="0 0 204 203" fill="none" xmlns="http://www.w3.org/2000/svg">
<path d="M99.6 20.6C100 37.6667 100.267 41 102 41C103.733 41 104 37.6667 104.4 20.6C104.667 0.866665 104.667 0.333331 102 0.333331C99.3334 0.333331 99.3334 0.866665 99.6 20.6Z" fill="#8C8C8C"/>
<path d="M30 30.7332C30 33.7998 57.2 60.9998 59.2 59.7998C60 59.2665 60.6667 58.0665 60.6667 57.1332C60.6667 55.1332 33.6 28.3332 31.4667 28.3332C30.6667 28.3332 30 29.3998 30 30.7332Z" fill="#8C8C8C"/>
<path d="M156.933 42.0665C143.6 55.5332 141.867 57.9332 144.8 59.7998C146.8 60.9998 174 33.7998 174 30.7332C174 26.0665 170.533 28.4665 156.933 42.0665Z" fill="#8C8C8C"/>
<path d="M93.3332 49.6667C77.8665 51.9333 61.4665 64.7333 54.2665 80.0667C51.0665 86.7333 50.6665 89.2667 50.6665 101C50.6665 113.267 51.0665 115.133 54.9332 123.267C62.2665 139 75.9998 149.267 93.7332 152.6C115.733 156.733 138.933 144.2 149.2 123C152.933 115.133 153.333 113.133 153.333 101C153.333 89.2667 152.933 86.7333 149.733 80.0667C142.4 64.3333 126.8 52.4667 110 49.8C105.2 49 101.067 48.4667 100.667 48.4667C100.267 48.6 96.9332 49.1333 93.3332 49.6667ZM109.333 55.1333C120.133 57.1333 128.267 61.5333 135.733 69.5333C160.533 95.9333 147.733 137.933 112.267 146.6C91.1998 151.667 70.1332 141.667 60.3998 121.933C56.3998 113.933 55.9998 111.933 55.9998 101C55.9998 90.8667 56.5332 87.9333 59.4665 81.6667C66.7998 66.0667 80.6665 56.7333 100.8 53.8C101.2 53.6667 105.067 54.3333 109.333 55.1333Z" fill="#8C8C8C"/>
<path d="M0.933249 101.267C1.33325 103.4 3.33325 103.667 21.3333 103.667C39.3333 103.667 41.3332 103.4 41.7333 101.267C42.1333 99.1332 40.5333 98.9998 21.3333 98.9998C2.13325 98.9998 0.533249 99.1332 0.933249 101.267Z" fill="#8C8C8C"/>
<path d="M162.267 101.267C162.667 103.4 164.667 103.667 182.667 103.667C200.667 103.667 202.667 103.4 203.067 101.267C203.467 99.1332 201.867 98.9998 182.667 98.9998C163.467 98.9998 161.867 99.1332 162.267 101.267Z" fill="#8C8C8C"/>
<path d="M42.1333 156.867C29.7333 169.533 27.1999 173.667 31.7333 173.667C33.8666 173.667 60.6666 146.867 60.6666 144.733C60.6666 140.2 54.6666 144.2 42.1333 156.867Z" fill="#8C8C8C"/>
<path d="M143.333 144.733C143.333 146.867 170.133 173.667 172.4 173.667C176.267 173.667 173.2 169 161.2 156.467C149.333 144.067 143.333 140.067 143.333 144.733Z" fill="#8C8C8C"/>
<path d="M99.9998 161.933C99.5998 163 99.4665 172.467 99.5998 183C99.9998 199.133 100.266 202.333 102 202.333C103.733 202.333 104 199.133 104 181.8C104 166.467 103.6 161.133 102.4 160.733C101.466 160.333 100.4 161 99.9998 161.933Z" fill="#8C8C8C"/>
</svg>
