<svg width="101" height="141" viewBox="0 0 101 141" fill="none" xmlns="http://www.w3.org/2000/svg">
<path fill-rule="evenodd" clip-rule="evenodd" d="M39.3838 6.91298C37.1198 7.94098 34.0288 10.406 32.5148 12.391C30.6748 14.803 28.9508 16 27.3158 16C25.9698 16 24.0028 16.463 22.9448 17.03C20.5968 18.286 17.6678 23.691 18.3578 25.492C18.6388 26.222 18.0058 27.027 16.9308 27.308C14.2688 28.004 14.4158 32.228 17.4148 41.241C18.7438 45.234 20.0968 49.717 20.4228 51.205C21.5388 56.301 31.2778 61.226 43.2238 62.735C47.5228 63.278 47.3028 62.587 49.0388 81C49.6358 87.325 50.3508 93.287 50.6288 94.249C51.0668 95.765 50.4918 95.965 46.3258 95.749C42.0658 95.528 41.4028 95.776 40.5088 97.926C39.9538 99.26 38.3718 102.635 36.9938 105.426C34.5888 110.296 34.2868 110.527 29.4938 111.176C23.2528 112.022 14.1918 115.515 11.3298 118.178C10.1368 119.289 8.60284 121.545 7.92084 123.191C6.28884 127.131 7.92084 128.29 13.9998 127.507C16.4748 127.187 19.1748 126.975 19.9998 127.034C20.8248 127.093 23.2318 127.233 25.3478 127.345C27.7958 127.475 29.7008 128.238 30.5818 129.444C31.8918 131.235 32.0718 131.245 33.8538 129.632C35.4598 128.179 36.1478 128.11 38.4798 129.173C40.8638 130.259 41.3948 130.181 42.5728 128.569C43.3178 127.55 44.0918 126.223 44.2928 125.62C44.5528 124.841 45.4288 124.874 47.3148 125.734C49.6938 126.818 50.2238 126.671 52.3958 124.329L54.8208 121.714L57.5448 123.857C59.0438 125.036 60.8138 126 61.4798 126C62.1448 126 63.4778 126.871 64.4408 127.935C65.8868 129.533 66.6098 129.679 68.5918 128.776C70.5088 127.903 71.3598 128.016 72.8248 129.341C75.1258 131.424 75.8808 131.417 78.2268 129.294C79.8088 127.863 80.4388 127.793 82.1518 128.863C83.8658 129.933 84.4958 129.861 86.0958 128.413C87.8988 126.781 88.1048 126.785 89.9788 128.481C91.7838 130.115 92.0138 130.128 92.5868 128.634C93.6668 125.821 92.1958 122.656 87.7698 118.263C81.8438 112.383 75.0528 107 73.5598 107C72.8728 107 71.4618 106.063 70.4248 104.917C69.3888 103.772 67.1808 102.181 65.5198 101.381C56.1088 96.852 56.8768 98.415 55.0038 80C54.4168 74.225 53.7018 68.317 53.4158 66.872C52.9168 64.357 53.1238 64.215 58.2178 63.579C61.1448 63.213 64.6558 62.281 66.0198 61.509C67.3838 60.736 70.4258 59.125 72.7798 57.928C77.4398 55.558 79.9998 52.627 79.9998 49.66C79.9998 48.617 81.3498 46.226 82.9998 44.347C86.6588 40.18 86.7148 39.003 83.4418 35.114L80.8848 32.075L83.1688 28.986C85.2888 26.117 85.3448 25.704 83.9468 23.198C82.9788 21.464 80.9078 20.012 78.1518 19.133C75.3558 18.243 73.5588 16.971 72.9928 15.482C71.8478 12.47 66.1258 8.17498 62.2158 7.39298C60.5018 7.04998 57.7478 7.24098 56.0968 7.81598C53.6118 8.68298 52.6728 8.53098 50.6398 6.93098C47.5778 4.52298 44.6568 4.51798 39.3838 6.91298ZM38.6718 10.108C36.2368 11.393 34.3228 13.377 33.4088 15.564C32.1828 18.498 31.4888 19 28.6608 19C24.4008 19 20.9998 22.47 20.9998 26.814C20.9998 28.921 20.5118 30 19.5588 30C17.1278 30 16.8608 31.706 18.3788 37.519C20.0688 43.991 22.4188 48 24.5228 48C26.4578 48 26.3878 48.913 24.2758 51.248C22.6318 53.064 22.6668 53.242 25.0258 55.056C28.9718 58.09 33.7978 59.412 35.5678 57.944C36.7848 56.934 37.4958 57.117 39.4348 58.939C41.4078 60.793 42.1698 60.979 43.9258 60.039C46.7138 58.547 47.7458 59.323 48.9178 63.792C50.0198 67.997 52.7868 92.369 53.9148 107.798C54.4918 115.706 55.0818 118.491 56.4568 119.798C58.1668 121.424 58.2158 121.3 57.5658 117C54.7858 98.616 50.9998 68.024 50.9998 63.948C50.9998 58.884 52.1278 57.637 53.8928 60.75C54.8238 62.393 54.9728 62.38 56.3338 60.538C57.5468 58.895 58.0378 58.787 59.3438 59.87C60.2168 60.595 61.8048 60.879 62.9508 60.515C64.5648 60.003 64.7938 59.483 64.0318 58.059C63.1788 56.465 63.6038 56.192 67.6468 55.736C72.0658 55.238 77.0568 52.554 77.3548 50.513C77.4348 49.971 76.2628 48.934 74.7498 48.209C71.1648 46.491 71.2438 45 74.9178 45C79.1808 45 80.9008 44.093 82.4998 41C83.7778 38.529 83.7408 38.076 82.1478 36.634C81.1698 35.749 78.9368 34.525 77.1848 33.915C73.2308 32.536 73.1688 31.587 76.9278 30.03C78.5378 29.363 80.5588 28.039 81.4198 27.089C82.7608 25.606 82.7878 25.092 81.6068 23.477C80.5568 22.041 78.9158 21.581 74.6878 21.536C71.6388 21.504 68.8708 21.204 68.5348 20.868C68.1998 20.533 68.4878 19.022 69.1768 17.512C70.3218 14.999 70.1918 14.562 67.6578 12.382C64.4088 9.58698 57.6818 9.13399 54.3268 11.484C52.3758 12.85 52.0798 12.771 50.5808 10.484C48.5458 7.37799 44.1118 7.23798 38.6718 10.108ZM43.6688 97.664C43.3008 98.032 42.9998 99.357 42.9998 100.608C42.9998 101.859 42.5498 103.16 41.9998 103.5C41.4498 103.84 40.9998 104.943 40.9998 105.952C40.9998 106.961 40.3248 108.045 39.4998 108.362C38.6748 108.678 37.9998 109.843 37.9998 110.95C37.9998 113.405 34.4528 114.495 29.4928 113.565C27.3118 113.156 25.9998 113.302 25.9998 113.955C25.9998 114.53 25.3568 115 24.5708 115C23.7858 115 22.3618 115.781 21.4078 116.735C20.4538 117.689 18.7188 118.344 17.5518 118.191C15.2548 117.89 10.1488 122.482 11.3948 123.729C11.8008 124.134 15.8148 124.615 20.3158 124.797C24.8168 124.98 31.0768 125.366 34.2258 125.656C38.9498 126.09 40.3968 125.833 42.4878 124.188C43.9538 123.035 45.8648 122.413 47.0168 122.715C50.5528 123.639 52.0008 121.283 51.9888 114.628C51.9728 105.893 50.9748 100.919 49.1048 100.261C48.2218 99.95 46.7878 99.088 45.9188 98.346C45.0488 97.603 44.0368 97.297 43.6688 97.664ZM58.4948 101.154C58.1478 102.056 58.3428 106.234 58.9278 110.438C60.4788 121.585 63.6858 126.838 68.2178 125.653C69.7108 125.263 71.1968 125.776 72.7228 127.21L74.9998 129.349L77.4708 127.028C79.3688 125.244 80.2548 124.967 81.2968 125.832C82.3048 126.668 83.5328 126.647 86.0768 125.749C87.9588 125.084 89.6898 124.416 89.9228 124.264C90.7478 123.725 80.9398 115 79.5078 115C78.7068 115 77.3338 113.614 76.4578 111.919C75.4328 109.937 74.3538 109.045 73.4318 109.419C72.6448 109.739 71.3578 110.26 70.5738 110.579C69.5788 110.982 69.0498 110.322 68.8238 108.395C68.5778 106.296 67.7848 105.442 65.5238 104.842C63.8868 104.408 61.7778 103.031 60.8358 101.783C59.3528 99.817 59.0398 99.733 58.4948 101.154Z" fill="black" fill-opacity="0.176"/>
<path fill-rule="evenodd" clip-rule="evenodd" d="M42.9941 5.93394C37.9531 7.46694 33.9991 10.1009 32.5611 12.8819C31.4421 15.0459 30.1341 15.8829 27.1161 16.3649C22.6621 17.0779 19.0001 20.7929 19.0001 24.5999C19.0001 25.9449 18.1101 27.4059 16.8931 28.0569C14.3811 29.4019 14.5411 30.6269 19.1171 45.0619C21.5261 52.6599 22.8501 55.3279 24.8731 56.6569C28.3341 58.9299 39.6571 62.2619 43.7061 62.1989C45.8681 62.1649 47.0771 62.6939 47.4181 63.8239C47.8241 65.1709 50.9981 93.5719 51.0011 95.8789C51.0011 96.2209 48.7701 96.3449 46.0431 96.1559C41.3111 95.8279 41.0541 95.9419 40.3941 98.6559C40.0141 100.22 38.6301 103.577 37.3181 106.115C35.0951 110.413 34.6081 110.769 30.2161 111.305C27.6221 111.622 22.3501 113.178 18.5001 114.764C12.7371 117.138 11.1141 118.333 9.31508 121.525C8.11408 123.658 7.38808 125.819 7.70208 126.327C8.01708 126.836 11.0701 127.027 14.4881 126.753C17.9061 126.479 21.4941 126.697 22.4611 127.238C23.6351 127.895 25.0091 127.861 26.6021 127.135C28.6731 126.192 29.2081 126.388 30.6781 128.632C32.2791 131.075 32.4421 131.116 33.7011 129.394C34.8341 127.845 35.4761 127.741 38.0111 128.698C40.7441 129.73 41.1591 129.585 43.0351 126.951C44.8531 124.398 45.3541 124.204 47.5501 125.205C49.6361 126.155 50.3761 125.995 52.3151 124.174L54.6111 122.017L58.4251 123.962C60.5221 125.031 63.0871 126.674 64.1231 127.612C65.5991 128.947 66.5041 129.092 68.2911 128.277C70.0981 127.454 71.0551 127.626 72.8801 129.104C75.2091 130.99 77.9511 130.507 79.5441 127.929C79.9701 127.24 80.8621 127.471 82.0991 128.59C83.8981 130.218 84.1061 130.214 85.9811 128.517C87.6291 127.026 88.2261 126.942 89.5241 128.02C91.9111 130.001 93.3191 127.969 91.9871 124.465C90.2851 119.99 76.8701 108 73.5641 108C72.7841 108 71.3201 106.951 70.3121 105.669C68.5171 103.388 65.2991 101.298 59.7101 98.7859C56.4161 97.3049 56.4511 97.4329 54.4401 79.5499C53.5771 71.8779 52.6631 65.2629 52.4081 64.8509C52.1531 64.4379 53.6441 63.8229 55.7221 63.4829C63.9891 62.1309 65.3451 61.7059 68.7471 59.3969C70.6901 58.0789 72.8131 56.9999 73.4651 56.9999C75.3531 56.9999 79.0001 52.5719 79.0001 50.2799C79.0001 49.1299 80.5751 46.3039 82.5001 43.9999C86.4661 39.2529 86.6061 38.7469 84.4451 36.9549C81.1881 34.2509 80.8971 32.2879 83.1801 28.4189L85.3651 24.7159L82.1671 21.8579C80.4081 20.2859 77.8721 18.9999 76.5311 18.9999C74.7371 18.9999 73.6631 18.0919 72.4611 15.5589C69.7061 9.75293 62.5181 6.41394 56.6501 8.21494C53.6441 9.13794 52.8061 8.99293 50.4521 7.14093C47.5441 4.85394 46.8931 4.74794 42.9941 5.93394ZM39.9621 9.24994C37.5081 10.4879 34.6001 12.9449 33.5001 14.7109C32.0841 16.9849 30.7281 17.9339 28.8561 17.9609C24.9841 18.0179 20.0001 23.0489 20.0001 26.9009C20.0001 29.1029 19.5271 29.9999 18.3641 29.9999C17.0061 29.9999 16.8311 30.7469 17.3311 34.3959C18.2991 41.4609 20.9521 47.0309 23.8781 48.1439L26.4771 49.1319L24.1961 50.8519L21.9161 52.5719L24.2081 54.7189C27.3251 57.6399 31.7981 59.2029 35.0141 58.4969C36.7791 58.1089 38.1151 58.4339 38.9631 59.4559C40.4631 61.2629 43.1341 61.4659 44.7071 59.8929C47.0331 57.5669 48.8631 63.3169 50.4691 77.9999C51.3411 85.9749 52.4911 96.3249 53.0251 101C53.5581 105.675 53.9961 111.363 53.9971 113.639C54.0001 117.416 57.0461 123.358 58.2831 122C58.5341 121.725 57.6831 114.075 56.3931 105C52.8481 80.0689 50.8701 62.0189 51.5601 60.9029C51.9621 60.2529 52.6571 60.2999 53.5451 61.0379C54.3351 61.6929 55.4591 61.8189 56.2061 61.3359C56.9181 60.8759 59.0751 60.4999 61.0001 60.4999C64.0341 60.4999 64.4681 60.1999 64.2621 58.2499C64.0531 56.2759 64.4821 55.9999 67.7621 55.9959C72.0261 55.9919 78.0001 52.7809 78.0001 50.4929C78.0001 49.6479 76.8751 48.4449 75.5001 47.8179C71.9901 46.2189 72.3911 44.9999 76.4271 44.9999C78.9391 44.9999 80.4091 44.2959 81.9271 42.3649C85.3961 37.9559 84.3271 35.9179 77.2591 33.4669C73.5271 32.1729 73.5181 32.1559 76.0001 31.1879C77.3751 30.6509 79.5871 29.0439 80.9141 27.6169C83.2601 25.0959 83.2771 24.9629 81.5091 23.0099C80.0801 21.4309 78.4301 20.9999 73.8191 20.9999H67.9491L69.5081 17.9839C71.0111 15.0779 70.9711 14.8779 68.4121 12.5059C64.8101 9.16693 59.9651 8.37194 55.8221 10.4389C52.6001 12.0459 52.4961 12.0279 50.6831 9.53994C48.4031 6.40894 45.7381 6.33694 39.9621 9.24994ZM42.6671 97.6669C42.3001 98.0329 42.0001 99.3569 42.0001 100.608C42.0001 101.859 41.5501 103.16 41.0001 103.5C40.4501 103.84 40.0001 104.943 40.0001 105.952C40.0001 106.961 39.3251 108.045 38.5001 108.362C37.6751 108.678 37.0001 109.851 37.0001 110.969C37.0001 112.762 36.3611 113 31.5591 113C28.5661 113 25.8401 113.45 25.5001 114C25.1601 114.55 23.9941 115 22.9101 115C21.8251 115 20.6791 115.672 20.3641 116.493C19.9861 117.478 19.0151 117.791 17.5081 117.413C15.7151 116.963 14.6331 117.614 12.4731 120.447C10.9591 122.431 9.94708 124.28 10.2231 124.557C10.6771 125.01 11.8161 125.075 18.5001 125.026C19.6001 125.018 22.5251 125.198 25.0001 125.428C40.1841 126.833 39.9321 126.842 42.4971 124.824C44.0321 123.616 45.7411 123.1 46.9441 123.482C48.2281 123.89 49.6471 123.353 51.0821 121.918C53.0791 119.921 53.2101 119.084 52.6181 112.117C51.7281 101.657 51.2261 100.259 47.7341 98.5169C44.3361 96.8219 43.6301 96.7029 42.6671 97.6669ZM58.3091 108.59C58.7771 115.221 59.4891 118.159 61.4311 121.473C64.1841 126.171 65.7061 127.151 68.9361 126.306C70.2301 125.968 71.8381 126.448 73.0331 127.53C74.8771 129.198 75.1161 129.205 76.8551 127.631C77.8751 126.708 80.0121 126.046 81.6051 126.159C87.3281 126.567 90.0001 126.029 90.0001 124.467C90.0001 122.467 83.7411 116.232 80.4961 114.998C79.1031 114.469 77.5331 112.903 77.0071 111.518C75.9881 108.839 73.2011 108.199 71.2131 110.188C70.2961 111.104 69.8771 110.636 69.3771 108.135C68.8721 105.609 68.1101 104.772 65.9161 104.333C64.3681 104.024 62.3341 102.922 61.3961 101.885C58.2461 98.4049 57.6781 99.6409 58.3091 108.59Z" fill="black" fill-opacity="0.172"/>
</svg>
