<svg width="142" height="140" viewBox="0 0 142 140" fill="none" xmlns="http://www.w3.org/2000/svg">
<g clip-path="url(#clip0_335_177)">
<mask id="mask0_335_177" style="mask-type:alpha" maskUnits="userSpaceOnUse" x="21" y="6" width="98" height="128">
<path d="M21 6H70H119L112 46.6822L104.5 41.2248L95 55.6124L91.5 83.3953L83.5 96.2946L89 134H21L26.5 91.8295L21 87.3643V6Z" fill="#D9D9D9"/>
</mask>
<g mask="url(#mask0_335_177)">
<path d="M-591.867 -4.00003L-590.933 4.66662H-640.8L-690.667 4.53329L-699.6 18.9333C-704.533 26.8 -708.667 33.7333 -708.667 34.2667C-708.667 34.9333 -706.8 35.3333 -704.667 35.3333H-700.667L-700.933 75.4667L-701.333 115.6L-706.4 117.333C-710.133 118.533 -712.667 118.667 -715.867 117.733C-721.733 115.867 -726 117.067 -730.533 121.6C-733.733 124.8 -734.533 124.933 -736.933 123.467C-738.4 122.533 -740 122.133 -740.4 122.533C-740.8 122.933 -740.267 123.467 -739.2 123.467C-738.133 123.6 -739.067 124.133 -741.333 124.667C-745.067 125.6 -745.067 125.733 -739.733 125.867C-735.333 126 -734.267 126.4 -734.8 128C-735.733 130.4 -738.8 130.667 -739.733 128.267C-740.267 127.067 -740.533 127.067 -740.533 128.267C-740.667 129.067 -740 130.267 -739.333 130.667C-738.267 131.333 -738.4 132.133 -739.467 133.467C-740.4 134.667 -740.533 135.867 -739.867 136.4C-739.2 136.933 -445.333 137.067 -86.6669 136.8C272 136.4 561.467 135.867 556.667 135.467L548 134.667L547.333 105.867L546.667 77.0667L542.8 72.1333C532.933 59.2 516.667 57.3333 504.933 67.8667C500.933 71.6 498.667 72.5333 492.667 72.9333C488.667 73.2 484.267 74 483.067 74.5333C481.067 75.4667 480.667 74.9333 480.667 70.9333C480.667 67.4667 481.333 66.1333 483.333 65.6C485.867 64.9333 486 63.7332 486 42.7999V20.6667H443.867H401.733L394.933 14.6666C391.067 11.3333 387.467 8.66662 386.933 8.66662C385.067 8.66662 342.667 47.6 342.667 49.2C342.667 50 344 51.2 345.733 52C348.133 53.0667 348.667 54.4 348.667 58.9333V64.5332L344.133 63.7333C341.733 63.3333 338.4 63.7332 336.933 64.5332C334.667 65.7332 333.867 65.6 332.4 63.6C329.067 58.9333 324.133 56.6666 317.6 56.6666C311.733 56.6666 310.4 57.2 305.867 61.8667C302.933 64.6667 300.667 68.2667 300.667 69.8667C300.667 72.1333 299.867 72.6667 295.867 72.6667C292.133 72.6667 290 73.7333 286.533 77.2L282 81.7333V108.533V135.333H266H250V115.333V95.3333H254C256.267 95.3333 258 94.9333 258 94.2667C258 93.7333 254 82.6667 249.2 69.6L240.267 46H232.4C225.6 46 224.667 45.7333 224.667 43.3333C224.667 41.8667 225.333 40.6666 226 40.6666C226.8 40.6666 227.333 39.4667 227.333 38C227.333 35.6 226.4 35.3333 218.533 35.3333H209.733L210.667 40.6666L211.6 46H173.333H135.067L136 40.6666L136.933 35.3333H128.133C120.267 35.3333 119.334 35.6 119.334 38C119.334 39.4667 120 40.6666 120.667 40.6666C121.467 40.6666 122 41.8667 122 43.3333C122 45.4667 121.067 46 117.467 46C111.734 46 108.267 41.4667 109.867 35.7333C113.334 23.2 98.0002 11.4666 87.6002 18.8C84.8002 20.6667 84.4001 20.6667 80.6668 17.4667C72.0001 10.2666 56.8002 12.5333 50.0002 22C43.8668 30.5333 45.0668 43.7332 52.5335 50.5332C54.1335 51.9999 55.3336 54.2667 55.3336 55.7333C55.3336 58.9333 63.6001 67.3333 66.9334 67.3333C68.4001 67.4667 70.8001 69.8667 73.0668 73.6L76.9334 79.8667L74.5335 94.2667L72.2668 108.8L68.9334 102.4C66.5334 97.7333 65.7335 94.1333 65.8668 88.6667C66.0001 83.4667 65.3336 80.2667 63.4669 77.4667C60.8003 73.4667 54.4002 68.6666 51.7335 68.6666C50.8002 68.6666 47.8668 67.2 45.2001 65.3333C39.3334 61.3333 34.8001 61.0666 29.2001 64.5332C21.7335 69.0666 20.6668 79.0667 26.5335 86C27.6002 87.0667 29.0669 90.2667 30.0002 93.0667C33.3335 103.467 46.0001 108.533 55.8668 103.467C58.6668 102 61.6001 101.067 62.1335 101.467C65.3335 103.467 72.1335 129.067 70.4001 133.333C69.8668 135.067 65.2002 135.333 42.5335 135.333H15.3335V115.333C15.3335 96.1333 15.4668 95.3333 17.8668 96.5333C20.8002 98.1333 26.1335 95.0667 24.0002 92.8C23.3335 92.1333 12.1335 86.6667 -0.666443 80.6667L-23.9998 69.8667L-29.7332 72.5333C-32.7998 74.1333 -35.8664 75.3333 -36.3998 75.3333C-37.5998 75.3333 -37.4665 39.3333 -36.1332 39.2C-35.5999 39.0667 -33.4665 39.8666 -31.1999 40.6666C-27.7332 42.1332 -26.7999 42.1333 -24.9332 40.2667C-23.8665 39.0667 -23.0665 37.7333 -23.4665 37.4667C-23.8665 37.0667 -39.5998 29.6 -58.5331 20.9333L-93.0669 5.06663L-106.933 11.4666C-114.533 15.0666 -121.067 18 -121.333 18C-122.667 18 -121.867 8.5333 -120.4 6.1333C-117.2 0.933302 -119.733 -0.666708 -131.067 -0.666708H-141.6L-141.467 13.3333L-141.333 27.4667L-151.333 32C-156.8 34.5333 -161.467 37.0667 -161.733 37.7333C-161.867 38.4 -161.2 39.7332 -160 40.6666C-158.4 41.9999 -157.2 41.9999 -154.533 40.7999C-152.667 39.9999 -150.933 39.3333 -150.667 39.3333C-150.267 39.3333 -150 47.8667 -150 58.2667C-150 73.3333 -150.533 79.2 -152.533 85.8667C-155.2 94.2667 -155.2 94.2667 -152.533 94.9333C-150.133 95.6 -150 96.9332 -150 115.467V135.333H-161.333H-172.667V126.8V118.133L-166 117.733L-159.467 117.333L-164 110C-169.2 101.733 -169.467 100.667 -166.667 100.667C-163.867 100.667 -164.133 99.8667 -168.8 92.2667C-172 87.0667 -172.533 85.3333 -171.067 84.5333C-169.733 83.7333 -170.133 81.8667 -173.067 76C-175.067 71.8667 -177.2 68.8 -177.733 69.2C-178.267 69.6 -180.267 72.9333 -182 76.6667C-184.267 81.4667 -184.8 83.7333 -183.733 84.4C-182.667 85.0667 -183.333 87.3333 -186.133 91.7333C-190.533 98.8 -190.8 100.267 -188 100.933C-186.4 101.2 -187.067 103.067 -190.667 109.067C-193.2 113.333 -195.333 117.067 -195.333 117.467C-195.333 117.733 -192.267 118 -188.667 118H-182V126.667V135.333H-191.333H-200.667V116C-200.667 99.7333 -200.933 96.6667 -202.667 96.6667C-204.133 96.6667 -204.667 95.2 -204.667 91.3333C-204.667 81.4667 -215.333 73.3333 -224.133 76.6667C-226.933 77.8667 -228.267 77.4667 -231.467 74.8C-238.267 68.9333 -246.267 67.6 -254.267 70.6667C-256.4 71.4667 -256.667 70.6667 -256.667 62C-256.667 53.6 -256.4 52.4 -254 51.7333C-247.6 50 -251.333 46.1332 -271.6 32.7999L-292 19.3333H-306.667C-318.933 19.3333 -321.867 18.8 -324.667 16.8C-327.867 14.2666 -328 14.2666 -331.467 16.8C-334.533 18.9333 -337.467 19.3333 -349.333 19.3333H-363.6L-383.467 32.2667C-399.467 42.6667 -403.333 45.8667 -403.333 48.2667C-403.333 50.1333 -402.533 51.3333 -401.333 51.3333C-399.733 51.3333 -399.333 53.3333 -399.333 61.3333V71.4667L-403.6 69.0667C-414 63.7333 -427.6 68 -432.8 78.1333C-434.667 81.8667 -436.267 83.3333 -438.4 83.3333C-442.933 83.3333 -449.333 87.8667 -451.333 92.5333C-452.267 94.8 -453.467 96.6667 -454.133 96.6667C-454.8 96.6667 -455.333 105.333 -455.333 116V135.333H-468.667H-482V113.333C-482 93.7333 -481.733 91.4667 -479.867 92.2667C-478.667 92.6667 -477.2 92.2667 -476.533 91.2C-474 87.0667 -475.333 84.9333 -482.667 82L-490 79.0667V71.7333C-490 65.0667 -489.867 64.6667 -487.467 66C-482.4 68.6667 -477.067 67.6 -473.467 63.2C-471.6 60.9333 -470 57.8667 -470 56.4C-470 54.9333 -468.133 52 -466 50C-461.2 45.4667 -460.533 37.4667 -464.533 32.5333C-466.8 29.7333 -466.8 29.2 -464.933 26.4C-459.867 18.5333 -464.133 5.99996 -473.067 1.86662C-480 -1.20005 -482.8 -1.33338 -488 1.46662C-493.467 4.39996 -504.133 3.99996 -507.733 0.533293C-510.667 -2.13338 -516.667 -2.80004 -520.533 -0.666708C-524.267 1.19996 -526.4 7.46662 -524.8 11.6C-523.067 16.4 -527.333 25.2 -532.667 28C-542.133 32.9333 -544 48.1333 -536 56C-532 60.1333 -524.4 62.1332 -518.933 60.5332C-516 59.5999 -512.8 59.7332 -508.933 60.7999C-503.6 62.2666 -503.333 62.5333 -503.333 67.4667C-503.333 70.4 -503.6 72.6667 -503.867 72.6667C-504.133 72.6667 -508.4 70.9332 -513.333 68.7999L-522.4 64.9333L-535.467 70.8L-548.667 76.5333V55.8667V35.3333H-545.6C-543.867 35.3333 -542.133 34.9333 -541.733 34.5333C-541.333 34.1333 -544.933 27.3333 -549.867 19.3333L-558.667 4.9333L-565.333 4.39996C-571.867 3.99996 -572 3.86662 -572.4 -0.533378C-572.667 -2.93338 -572.267 -5.60005 -571.467 -6.40005C-570.667 -7.20005 -570 -8.93335 -570 -10.2667C-570 -12.4 -571.333 -12.6667 -581.333 -12.6667H-592.8L-591.867 -4.00003ZM-572.667 -10C-572.667 -9.20005 -576.667 -8.66675 -582 -8.66675C-587.333 -8.66675 -591.333 -9.20005 -591.333 -10C-591.333 -10.8 -587.333 -11.3333 -582 -11.3333C-576.667 -11.3333 -572.667 -10.8 -572.667 -10ZM-574.267 -1.0667L-574.667 3.99997L-581.6 4.39996L-588.667 4.79995V-0.533378V-6.00005H-581.2H-573.867L-574.267 -1.0667ZM-509.2 2.66662C-506.533 5.33329 -504.667 5.99997 -498.933 5.99997C-495.067 5.86663 -490.533 5.06664 -488.667 3.99997C-474.8 -3.8667 -458.933 11.8666 -467.2 25.4667C-469.6 29.4667 -469.6 29.4667 -466.533 33.2C-461.6 38.8 -463.067 46.9333 -469.467 49.8667C-472 50.9333 -472.667 52.2667 -472.667 55.8667C-472.667 64.5333 -482.267 68.3999 -488.8 62.5332C-492.267 59.4666 -492.667 60.2667 -492.667 69.3333V78.1333L-496.533 76C-500.133 74.2667 -500.533 73.2 -500.933 67.0667C-501.333 60.2667 -501.467 60 -506 58.9333C-508.533 58.2667 -512 57.8667 -513.6 57.8667C-515.333 58 -519.6 58.1333 -523.333 58.4C-529.2 58.6667 -530.4 58.1333 -534.267 54.2667C-538 50.5333 -538.667 49.0667 -538.667 43.3333C-538.667 38 -538 36.1332 -534.8 32.7999C-532.533 30.5332 -530.133 28.6667 -529.2 28.6667C-526.667 28.6667 -520.667 15.2 -522.133 12.5333C-524.267 8.53329 -523.467 4.9333 -519.867 2.1333C-515.2 -1.4667 -513.2 -1.33338 -509.2 2.66662ZM-122 3.33329C-122 4.13329 -125.733 4.66662 -130.667 4.66662C-135.6 4.66662 -139.333 4.13329 -139.333 3.33329C-139.333 2.53329 -135.6 1.99997 -130.667 1.99997C-125.733 1.99997 -122 2.53329 -122 3.33329ZM-552.4 19.3333L-544.667 32L-624.267 32.4C-668 32.5333 -704 32.4 -704.4 32.1333C-704.667 31.7333 -701.467 25.7333 -697.2 18.6667L-689.333 5.99997L-624.8 6.26663L-560.267 6.66662L-552.4 19.3333ZM-123.6 12.6666C-124 19.3333 -124 19.4667 -130.933 22.6667L-138 25.8667V16V5.99997H-130.533H-123.2L-123.6 12.6666ZM-59.3332 22.7999C-24.3999 38.7999 -26.5332 37.7332 -27.7332 38.7999C-28.2665 39.3332 -43.0664 33.0667 -60.6664 24.9333L-92.7999 9.99996L-124.8 24.7999C-142.4 32.7999 -157.6 39.2 -158.4 38.9333C-159.333 38.6667 -154.533 35.8666 -148 32.7999C-141.333 29.7332 -126.4 22.8 -114.667 17.3333C-102.933 12 -92.6669 7.73329 -91.9999 7.86662C-91.1999 8.13329 -76.5332 14.8 -59.3332 22.7999ZM408 29.3333C419.067 39.2 428.133 47.8666 428.4 48.6666C429.6 51.9999 425.333 48.8 407.467 32.6667C396.933 23.0667 387.733 15.3333 387.067 15.3333C386.267 15.3333 377.067 23.1999 366.533 32.7999C356 42.4 346.667 50 345.867 49.7333C344.267 49.2 384.4 11.6 386.667 11.4666C387.467 11.3333 397.067 19.4667 408 29.3333ZM-65.7332 24.9333L-39.3332 37.0667V55.6V74H-93.3329H-147.333V55.6V37.3333L-120.933 25.0667C-106.533 18.4 -94.1329 12.8 -93.4669 12.8C-92.7999 12.6666 -80.2669 18.1333 -65.7332 24.9333ZM75.7335 16.8C77.3335 17.6 79.8669 19.4667 81.3336 20.8C84.0002 23.2 84.2669 23.2 89.4669 20.5333C94.0003 18.4 95.6001 18.1333 98.8001 19.3333C106.934 22.5333 110.4 29.3332 107.334 36.7999C105.867 40.1332 106 41.0667 108 43.3333C109.867 45.4667 110 46 108.534 46C107.2 46 104.267 52.1333 100 63.4667C96.4002 73.0667 92.6668 81.2 91.7335 81.6C90.8002 82 88.1335 81.6 85.8668 80.8C83.4668 80 81.3336 79.4667 81.2003 79.7333C79.8669 80.9333 76.6668 105.467 75.8668 119.333C75.3335 128.133 74.4002 135.333 73.7335 135.333C73.2002 135.333 72.6668 132.8 72.6668 129.6C72.6668 122.667 69.6001 111.733 65.2001 103.067L62.0002 96.8L57.2001 100C51.6001 103.867 45.0669 104.267 39.3336 101.333C35.6002 99.3333 31.3336 93.3333 31.3336 89.8667C31.3336 89.0667 29.8669 86.6667 28.0002 84.4C23.2002 78.6667 24.0002 70.9333 29.8668 66.4C33.0668 63.8667 41.0668 64.2667 44.1335 67.2C45.6001 68.5333 48.9336 70.2667 51.6002 71.2C60.1336 74 65.7336 82.9333 63.6002 90.5333C62.8002 93.7333 63.6001 96.4 67.8668 105.2L73.2001 115.867L74.1335 110.667C79.8668 77.0667 79.7335 78 77.0668 74.9333C75.6001 73.3333 73.4668 70.4 72.2668 68.2667C70.9335 66.1333 68.8001 64.6666 67.0668 64.6666C63.4668 64.6666 58.0002 59.7333 58.0002 56.2667C58.0002 54.9333 56.0003 51.3333 53.4669 48.4C46.5336 40.4 46.0001 31.8667 51.8668 22.9333C56.2668 16.4 68.6668 13.2 75.7335 16.8ZM-305.867 32.9333L-286.267 47.3333H-270.133C-260.267 47.3333 -254 47.8666 -254 48.6666C-254 49.4666 -260.267 50 -270.267 50H-286.667L-307.333 34.7999C-318.933 26.2666 -328.533 20 -329.333 20.6667C-330 21.2 -339.333 28 -350 35.8667L-369.2 50H-385.6C-395.6 50 -402 49.4666 -402 48.6666C-402 47.8666 -395.6 47.3333 -385.6 47.3333L-369.333 47.2L-348.667 32C-337.333 23.7333 -327.467 17.2 -326.667 17.7333C-326 18.1333 -316.533 25.0667 -305.867 32.9333ZM406 34L423.2 49.3333L423.333 92.4V135.333L387.067 135.067L350.667 134.667L350.267 92.6667L350 50.5332L367.6 34.4C377.333 25.4667 386.133 18.2667 387.067 18.4C388 18.5333 396.533 25.6 406 34ZM-354 33.3333L-369.333 44.5332L-384 44.6666H-398.667L-381.333 33.3333L-364 22H-351.333H-338.667L-354 33.3333ZM-301.467 41.6L-288.267 51.3333H-273.067H-258V93.3333V135.333H-282.533H-307.067L-307.867 132C-308.4 130.133 -309.333 128.667 -310 128.667C-310.8 128.667 -311.333 122.267 -311.333 112.8C-311.333 100.4 -310.933 96.8 -309.467 96.2667C-308.4 95.8667 -307.733 94.4 -307.867 93.0667C-308.267 90.9333 -310.133 90.6667 -328.4 90.4L-348.667 90V93.3333C-348.667 95.4667 -347.867 96.6667 -346.667 96.6667C-345.067 96.6667 -344.667 99.3333 -344.667 112.4C-344.667 126.533 -344.933 128.267 -347.333 130C-348.8 131.067 -350 132.667 -350 133.6C-350 134.933 -355.333 135.333 -373.333 135.333H-396.667V93.3333V51.3333H-382.133H-367.6L-347.867 36.7999L-328 22.2667L-321.333 27.0667C-317.6 29.7333 -308.667 36.2667 -301.467 41.6ZM-274.667 33.3333L-257.333 44.6666L-272 44.5332H-286.667L-302 33.3333L-317.2 22H-304.667H-292L-274.667 33.3333ZM483.333 23.4667C483.333 24.2667 482.533 24.6667 481.467 24.2667C480.533 23.8667 479.067 24.1333 478.267 24.9333C477.333 25.8667 476.133 25.8667 474.533 24.9333C472.933 24 471.467 24.1333 469.733 25.0667C468 26.2667 467.067 26.2667 465.867 25.0667C464.667 23.8667 463.733 23.8667 461.867 25.0667C460 26.2667 459.067 26.2667 457.867 25.0667C456.667 23.8667 455.733 23.8667 453.867 25.0667C452 26.2667 451.067 26.2667 449.867 25.0667C448.667 23.8667 447.733 23.8667 445.867 25.0667C444 26.2667 443.067 26.2667 441.867 25.0667C440.667 23.8667 439.467 23.8666 437.733 24.7999C436 25.7332 434.667 25.7332 433.467 24.7999C432.533 23.9999 431.333 23.7333 430.933 24.1333C429.6 25.4667 418 25.7333 417.2 24.4C416.8 23.7333 415.6 23.8667 414.667 24.6667C413.467 25.7333 412 25.7333 410.4 24.9333C409.067 24.2667 407.2 24 406.4 24.2667C405.467 24.6667 404.667 24.2667 404.667 23.4667C404.667 22.4 416.667 22 444 22C471.867 22 483.333 22.4 483.333 23.4667ZM421.333 27.3333C422.933 26 423.733 26 425.333 27.3333C426.933 28.6667 427.733 28.6667 429.2 27.4667C430.667 26.2667 431.733 26.2667 433.867 27.6C435.867 28.8 436.933 28.9333 438.133 27.7333C439.333 26.5333 440.267 26.5333 442.133 27.7333C444 28.9333 444.933 28.9333 446.133 27.7333C447.333 26.5333 448.267 26.5333 450.133 27.7333C452 28.9333 452.933 28.9333 454.133 27.7333C455.333 26.5333 456.267 26.5333 458.133 27.7333C460 28.9333 460.933 28.9333 462.133 27.7333C463.333 26.5333 464.267 26.5333 466.133 27.7333C468 28.9333 468.933 28.9333 470.133 27.7333C471.333 26.5333 472.533 26.5333 474.4 27.4667C476.133 28.4 477.333 28.5333 478.267 27.6C479.867 26 483.333 26.9333 483.333 28.9333C483.333 29.6 482.533 30 481.733 29.8667C480.8 29.7333 478.933 30 477.6 30.6667C476.133 31.2 474.533 31.0667 473.733 30.2667C472.8 29.3333 471.6 29.3333 469.867 30.4C468 31.6 467.067 31.6 465.867 30.4C464.667 29.2 463.733 29.2 461.867 30.4C460 31.6 459.067 31.6 457.733 30.2667C456.533 29.0667 455.733 29.0667 454.267 30.2667C452.933 31.4667 451.867 31.4667 450 30.4C448.267 29.2 447.333 29.2 446.133 30.4C444.933 31.6 444 31.6 442.133 30.4C440.8 29.4667 439.2 29.2 438.667 29.7333C437.333 31.2 426 31.2 425.2 29.7333C424.8 29.0667 423.6 29.2 422.533 30.1333C421.467 30.9333 419.733 31.2 418.4 30.6667C417.067 30 415.067 29.7333 413.733 29.8667C412.533 30 411.2 29.4666 410.667 28.7999C410.267 27.9999 410.667 27.7333 411.733 28.1333C412.8 28.5333 414.133 28.1333 414.667 27.3333C415.333 26.2667 416.133 26.2667 417.467 27.4667C418.933 28.6667 419.733 28.6667 421.333 27.3333ZM428.4 33.4667C433.733 33.4667 438.4 33.0667 438.8 32.4C439.2 31.8667 440.667 32.1333 442 32.9333C444 34.2667 444.933 34.2667 446.267 32.9333C447.467 31.7333 448.267 31.7333 449.733 32.9333C451.067 34.1333 452.133 34.1333 454 33.0667C455.733 31.8667 456.667 31.8667 457.867 33.0667C459.067 34.2667 460 34.2667 461.867 33.0667C463.733 31.8667 464.667 31.8667 465.867 33.0667C467.067 34.2667 468 34.2667 470 32.9333C471.6 32 472.8 31.8667 473.333 32.6667C473.733 33.4667 476 33.8667 478.267 33.6C480.533 33.4667 482.667 34 482.933 34.9333C483.333 35.8667 482.533 36.2667 480.933 35.7333C479.467 35.4667 477.867 35.7333 477.467 36.5333C476.8 37.4667 475.733 37.4667 474 36.4C472 35.0667 471.067 35.0667 469.867 36.2667C468.667 37.4667 467.733 37.4667 465.867 36.2667C464 35.0667 463.067 35.0667 461.867 36.2667C460.667 37.4667 459.733 37.4667 457.867 36.2667C456 35.0667 455.067 35.0667 453.733 36.4C452.533 37.6 451.733 37.6 450.267 36.4C448.933 35.2 447.867 35.2 446 36.2667C444.267 37.4667 443.333 37.4667 442.133 36.2667C440.933 35.0667 440 35.0667 438.133 36.2667C436.267 37.4667 435.333 37.4667 434.133 36.2667C432.933 35.0667 432 35.0667 430 36.4C428.267 37.4667 427.2 37.4667 426.533 36.5333C426.133 35.7333 424.267 35.4667 422.4 36C420.533 36.4 418.267 36.1333 417.2 35.2C414.933 33.3333 414.667 30.8 417.067 32.2667C417.867 32.8 423.067 33.3333 428.4 33.4667ZM-551.333 56.4V77.4667L-560.667 81.6C-569.867 85.7333 -570 85.8667 -568.4 89.2C-567.333 91.7333 -566.133 92.5333 -564.4 91.8667C-562.133 91.2 -562 92.4 -562 113.333V135.467L-578.933 135.067L-596 134.667L-596.4 113.6C-596.667 93.4667 -596.667 92.6667 -594.133 92.6667C-591.867 92.6667 -588.667 89.2 -588.667 86.8C-588.667 86.5333 -596.8 81.3333 -606.8 75.3333L-624.8 64.4L-643.333 75.4667C-661.067 86 -661.733 86.5333 -660.267 89.6C-659.333 91.7333 -658 92.6667 -656.4 92.2667C-654.133 91.6 -654 93.0667 -654 113.467V135.333H-670.667H-687.333V131.333C-687.333 125.467 -690.667 119.867 -695.333 117.733L-699.333 116V75.7333V35.3333H-625.333H-551.333V56.4ZM132.4 37.6C130.267 37.8667 127.067 37.8667 125.067 37.6C122.933 37.3333 124.667 37.0667 128.667 37.0667C132.667 37.0667 134.4 37.3333 132.4 37.6ZM222.4 37.6C220.667 37.8667 217.733 37.8667 215.733 37.6C213.6 37.3333 215.067 37.0667 218.667 37.0667C222.4 37.0667 224 37.3333 222.4 37.6ZM434.667 39.6C435.2 40.1333 436.8 39.8667 438.133 38.9333C440 37.7333 440.933 37.7333 442.133 38.9333C443.333 40.1333 444.267 40.1333 446.133 38.9333C448 37.7333 448.933 37.7333 450.267 39.0667C451.467 40.2667 452.267 40.2667 453.733 39.0667C455.067 37.8667 456.133 37.8667 458 38.9333C459.733 40.1333 460.667 40.1333 461.867 38.9333C463.067 37.7333 464 37.7333 465.867 38.9333C467.733 40.1333 468.667 40.1333 469.867 38.9333C471.067 37.7333 472 37.7333 473.867 38.9333C475.6 40 476.8 40 477.733 39.0667C479.333 37.4667 483.333 38.5332 483.333 40.6666C483.333 41.4666 482.8 41.7333 482 41.3333C481.333 40.9333 479.6 41.2 478.267 41.8667C476.533 42.8 475.2 42.6667 474.133 41.6C472.933 40.4 472 40.4 470.133 41.6C468.267 42.8 467.333 42.8 466.133 41.6C464.933 40.4 464 40.4 462.133 41.6C460.267 42.8 459.333 42.8 458.133 41.6C456.933 40.4 456 40.4 454.133 41.6C452.267 42.8 451.333 42.8 450.133 41.6C448.933 40.4 448 40.4 446.133 41.6C444.267 42.8 443.333 42.8 442.133 41.6C440.933 40.4 440 40.4 438.267 41.6C436.667 42.5333 435.067 42.6667 433.467 41.7333C431.867 40.8 430.533 40.9333 429.2 42.1333C427.6 43.4667 426.667 43.3333 424.533 41.2C422 38.6667 422 38.5332 427.867 38.6666C431.067 38.6666 434.133 39.0667 434.667 39.6ZM132.667 43.3333C132.667 45.4667 131.733 46 128 46C124.267 46 123.333 45.4667 123.333 43.3333C123.333 41.2 124.267 40.6666 128 40.6666C131.733 40.6666 132.667 41.2 132.667 43.3333ZM223.333 43.3333C223.333 45.4667 222.4 46 218.667 46C214.933 46 214 45.4667 214 43.3333C214 41.2 214.933 40.6666 218.667 40.6666C222.4 40.6666 223.333 41.2 223.333 43.3333ZM434 44.6666C435.2 45.3332 436.533 45.3332 437.6 44.5332C438.667 43.5999 440 43.6 441.467 44.4C443.067 45.3333 444.667 45.2 446.267 44.2667C448 43.0667 448.933 43.0667 450.133 44.2667C451.333 45.4667 452.267 45.4667 454.133 44.2667C456 43.0667 456.933 43.0667 458.133 44.2667C459.333 45.4667 460.267 45.4667 462.133 44.2667C464 43.0667 464.933 43.0667 466.133 44.2667C467.333 45.4667 468.533 45.4666 470.4 44.5332C472.133 43.4666 473.333 43.4666 474.4 44.5332C475.333 45.4666 476.533 45.4666 478.267 44.5332C480.8 43.1999 483.333 43.8667 483.333 46.1333C483.333 46.9333 482.667 47.0666 482 46.6666C481.2 46.1332 479.733 46.5333 478.667 47.3333C477.067 48.6667 476.267 48.6667 474.8 47.4667C473.333 46.2667 472.133 46.2667 470.267 47.2C468.533 48.1333 467.333 48.1333 466.4 47.2C465.333 46.1333 464.133 46.1333 462.4 47.2C460.533 48.1333 459.333 48.1333 458.133 46.9333C457.067 45.8667 456 45.7333 454.267 46.9333C452.533 47.8667 451.067 48 449.467 47.0667C447.867 46.1333 446.667 46.1333 445.733 47.0667C444.667 48.1333 443.467 48.1333 441.733 47.2C440 46.2667 438.667 46.2667 437.467 47.2C436.133 48.2667 434.667 48.1333 432.133 46.9333C430.267 45.8667 429.067 44.6667 429.6 44.2667C430.667 43.0667 431.6 43.0666 434 44.6666ZM246.667 68.9333C250.933 80.1334 254.667 90.1333 254.933 90.9333C255.467 92.2667 250.933 92.6667 235.333 92.6667H214.933L194.4 81.2C183.067 74.9333 173.067 70.1333 172.133 70.4C171.2 70.8 161.867 76 151.333 81.8667L132.4 92.6667H111.734C100.4 92.6667 91.3336 92.1333 91.6002 91.4667C91.8669 90.9333 95.6001 80.9333 99.8668 69.4667L107.734 48.6666H173.333H238.933L246.667 68.9333ZM437.333 50C438.933 48.6667 439.733 48.6667 441.333 50C442.933 51.3333 443.733 51.3333 445.2 50.1333C446.667 48.9333 447.867 48.9333 449.733 49.8667C451.467 50.8 452.667 50.8 453.733 49.7333C454.667 48.8 455.867 48.8 457.467 49.7333C459.067 50.6667 460.8 50.6667 462.4 49.7333C464.133 48.9333 465.467 48.9333 466.8 50.1333C468.267 51.3333 469.067 51.3333 470.667 50C472.267 48.6667 473.067 48.6667 474.667 50C476.267 51.3333 477.067 51.3333 478.667 50C480.667 48.4 483.333 49.2 483.333 51.4667C483.333 52.2667 482.667 52.4 482 52C481.2 51.4667 479.733 51.8666 478.667 52.6666C477.067 53.9999 476.267 53.9999 474.667 52.6666C473.067 51.3332 472.267 51.3332 470.8 52.5332C469.333 53.7332 468.133 53.7332 466.267 52.7999C464.533 51.8666 463.333 51.8667 462.267 52.9333C461.333 53.8667 460.133 53.8667 458.533 52.9333C456.8 52 455.2 52 453.6 52.9333C451.867 53.8667 450.533 53.7332 449.6 52.7999C448.667 51.8666 447.467 51.8666 445.733 52.7999C443.867 53.7332 442.667 53.7332 441.2 52.5332C439.733 51.3332 438.933 51.3332 437.333 52.6666C435.733 53.9999 434.933 53.9999 433.333 52.6666C431.733 51.3332 430.8 51.3333 429.733 52.4C428.8 53.3333 427.6 54 426.933 54C426.267 54 427.067 52.8 428.8 51.4667C431.067 49.6 432.533 49.3333 433.733 50.2667C434.8 51.2 436 51.2 437.333 50ZM433.733 55.6C434.8 56.6667 435.733 56.6667 437.333 55.3333C438.933 54 439.733 54 441.2 55.2C442.667 56.4 443.867 56.4 445.733 55.4667C447.467 54.5333 448.667 54.5333 449.867 55.7333C450.933 56.8 452 56.9333 453.733 55.7333C455.467 54.8 456.933 54.6667 458.533 55.6C460.133 56.5333 461.333 56.5333 462.267 55.6C463.333 54.5333 464.533 54.5333 466.267 55.4667C468.133 56.4 469.333 56.4 470.8 55.2C472.267 54 473.067 54 474.667 55.3333C476.267 56.6667 477.067 56.6667 478.667 55.3333C480.667 53.7333 483.333 54.5332 483.333 56.7999C483.333 57.5999 482.667 57.7333 482 57.3333C481.2 56.8 479.733 57.0667 478.667 58C477.333 59.0667 476.133 59.0667 474.267 58.1333C472.533 57.2 471.333 57.2 470.4 58.1333C469.333 59.2 468.133 59.2 466.4 58.1333C464.533 57.2 463.333 57.2 462.133 58.4C460.933 59.6 460 59.6 458.133 58.4C456.267 57.2 455.333 57.2 454.133 58.4C452.933 59.6 452 59.6 450.267 58.4C448.533 57.4667 447.067 57.3333 445.467 58.2667C443.867 59.2 442.667 59.2 441.733 58.2667C440.667 57.2 439.467 57.2 437.6 58.1333C435.867 59.2 434.667 59.2 433.6 58.1333C432.667 57.2 431.467 57.2 429.733 58.1333C426.133 60 424.933 58.4 428.133 56C431.2 53.6 431.733 53.6 433.733 55.6ZM329.6 64C333.2 68.2667 334.133 68.6667 336.667 67.3333C338.133 66.5333 341.333 66 343.733 66.2667L348 66.6666L348.4 85.6C348.667 98 348.267 104.667 347.333 104.667C346.667 104.667 346 102.933 346 100.8C346 96.4 343.333 93.6 340.133 94.8C338.8 95.3333 338 97.2 338 100.133C338 102.667 337.467 104.667 336.667 104.667C336 104.667 335.333 102.933 335.333 100.667C335.333 96.1333 332 93.6 328.4 95.4667C326.933 96.2667 326 98.2667 326 100.8C326 103.2 325.467 104.533 324.667 104C324 103.6 323.333 101.467 323.333 99.3333C323.333 95.2 320 93.0667 317.2 95.4667C316.133 96.2667 315.333 98.6667 315.333 100.8C315.333 102.933 314.8 104.667 314 104.667C313.333 104.667 312.667 102.933 312.667 100.8C312.667 98.6667 311.867 96.2667 310.8 95.4667C308 93.0667 304.667 95.2 304.667 99.3333C304.667 101.467 304.133 103.6 303.333 104C302.533 104.533 302 103.2 302 100.8C302 98.2667 301.067 96.2667 299.6 95.4667C296 93.6 292.667 96.1333 292.667 100.8C292.667 103.2 292.133 104.533 291.333 104C290.667 103.6 290 101.467 290 99.2C290 97.0667 289.467 95.2 288.667 95.2C288 95.0667 286.533 94.9333 285.733 94.8C281.6 94.4 283.867 81.7333 288.8 77.2C290.533 75.7333 293.6 74.6667 296.8 74.6667C301.333 74.6667 302 74.2667 302.667 71.0667C303.733 66.5333 308.133 60.8 311.867 59.2C313.333 58.5333 317.067 58.2666 320 58.5332C324.133 59.0666 326.267 60.2667 329.6 64ZM433.6 60.7999C434.667 61.8666 435.867 61.8666 437.6 60.7999C439.467 59.8666 440.667 59.8667 441.867 61.0667C443.067 62.2667 444 62.2667 445.867 61.0667C447.733 59.8667 448.667 59.8667 449.867 61.0667C451.067 62.2667 452 62.2667 453.867 61.0667C455.733 59.8667 456.667 59.8667 457.867 61.0667C459.067 62.2667 460 62.2667 461.867 61.0667C463.733 59.8667 464.667 59.8667 465.867 61.0667C467.067 62.2667 468 62.2667 469.733 61.0667C471.333 60.1333 472.933 60 474.533 60.9333C476 61.7333 477.467 61.7332 478.667 60.6666C479.733 59.8666 481.2 59.4667 482 60C486.4 62.6667 481.067 63.3333 454.4 63.3333C428.667 63.3333 425.733 63.0667 428.133 61.3333C431.2 58.9333 431.733 58.9332 433.6 60.7999ZM532.4 65.8667C538.667 69.0667 541.733 72.5333 544.133 78.9333C546.267 85.0667 546.667 95.8667 544.667 94.6667C542.267 93.2 539.333 96.6667 539.333 100.8C539.333 102.933 538.8 104.667 538 104.667C537.333 104.667 536.667 102.933 536.667 100.8C536.667 93.4667 529.467 92.1333 527.867 99.2C526.533 105.067 526.267 105.467 526.133 101.067C525.867 92.9333 516.667 92.5333 516.667 100.667C516.667 102.933 516.133 104.667 515.333 104.667C514.667 104.667 514 102.667 514 100.133C514 97.2 513.2 95.3333 511.867 94.8C508.667 93.6 506 96.4 506 100.8C506 102.933 505.467 104.667 504.667 104.667C504 104.667 503.333 102.933 503.333 100.8C503.333 93.4667 496.133 92.1333 494.533 99.2C493.2 105.067 492.933 105.467 492.8 101.067C492.533 92.9333 483.333 92.5333 483.333 100.667C483.333 102.933 482.8 104.667 482 104.667C481.2 104.667 480.667 99.3333 480.667 91.3333C480.667 78.9333 480.8 78 483.733 76.4C485.333 75.6 489.867 74.8 493.867 74.9333C500.4 74.9333 501.467 74.5333 504.533 70.9333C510.933 63.3333 523.067 61.0667 532.4 65.8667ZM479.333 98.6667C479.333 116.667 478.933 131.333 478.4 131.333C475.733 131.333 474 123.2 474 111.067V98H464.8H455.6L455.067 114.267C454.8 125.733 454.133 130.667 453.067 131.067C452.133 131.333 451.333 132.4 451.333 133.467C451.333 134.933 448.667 135.333 438.667 135.333H426V100.667V66H452.667H479.333V98.6667ZM-608 76.9333C-593.333 85.4667 -588.133 90 -592.8 90C-593.6 90 -601.2 85.8667 -609.6 80.8L-624.933 71.6L-640.267 80.8C-649.2 86.2667 -656.533 89.8667 -657.733 89.3333C-658.8 88.9333 -659.333 88.1333 -658.8 87.6C-657.333 86.1333 -626.8 67.6 -625.6 67.4667C-625.067 67.3333 -617.067 71.7333 -608 76.9333ZM-498.533 77.4667C-485.467 83.0667 -478 87.0667 -478 88.2667C-478 90.6667 -478.267 90.5333 -502.533 80.1333L-522.267 71.7333L-543.733 80.9333C-558.267 87.2 -565.467 89.7333 -566.4 88.8C-567.2 88 -567.6 87.2 -567.2 86.8C-565.2 84.9333 -522.267 67.6 -520.933 68C-519.867 68.4 -509.867 72.6667 -498.533 77.4667ZM-402.8 71.8667C-399.467 73.8667 -399.333 74.6667 -399.333 85.3333V96.6667H-424.667C-446.667 96.6667 -450 96.4 -450 94.6667C-450 90.5333 -443.733 86 -438 86C-433.733 86 -432.667 85.4667 -432.667 83.4667C-432.667 80.2667 -428 74.4 -422.8 71.0667C-417.867 68 -408 68.4 -402.8 71.8667ZM-237.467 73.2C-235.067 74.2667 -232 76.4 -230.933 78.1333C-229.067 80.8 -228.4 80.9333 -225.333 79.6C-219.6 76.9333 -215.467 77.7333 -211.2 82C-207.867 85.2 -207.2 86.9333 -207.6 90.9333L-208 96H-232H-256L-256.4 84.9333C-256.8 74.5333 -256.667 73.8667 -253.733 72.6667C-249.2 70.9333 -242.533 71.0667 -237.467 73.2ZM-174.8 81.7333C-177.333 82.4 -177.333 82.2667 -172.667 89.7333C-168.133 97.2 -167.867 98 -170.667 98C-173.467 98 -173.333 98.6667 -168 107.333C-165.467 111.6 -163.333 115.333 -163.333 115.867C-163.333 116.267 -166 116.667 -169.333 116.667H-175.333V126C-175.333 133.467 -175.733 135.333 -177.333 135.333C-178.933 135.333 -179.333 133.467 -179.333 126V116.667H-185.333C-188.667 116.667 -191.333 116.267 -191.333 115.6C-191.333 115.067 -189.467 111.6 -187.333 108C-182.8 100.4 -182.4 98 -185.467 98C-187.2 98 -187.067 97.2 -184.533 92.9333C-182.8 90.2667 -180.8 86.9333 -180.133 85.6C-179.067 83.8667 -179.067 82.9333 -180.4 82.1333C-181.867 81.2 -181.867 80.2667 -180 76.5333L-177.6 72.1333L-175.333 76.8C-173.333 80.5333 -173.2 81.4667 -174.8 81.7333ZM-0.533142 83.2C12.0002 88.9333 21.6001 94 20.9335 94.5333C20.2668 94.9333 12.5335 92 3.86682 87.8667C-4.93318 83.7333 -14.7999 79.2 -18.1332 77.7333L-24.3998 75.2L-46.6664 85.3333C-58.9331 90.9333 -69.3332 95.2 -69.7332 94.8C-70.1332 94.4 -70.1332 93.7333 -69.8665 93.4667C-68.9332 92.6667 -25.4664 72.8 -24.3998 72.6667C-23.8664 72.6667 -13.0664 77.3333 -0.533142 83.2ZM192.933 82.8C211.733 93.0667 213.867 94.6667 211.867 96.6667C211.2 97.3333 202.8 93.4667 192.8 88C183.067 82.5333 174.267 78 173.467 78C172.667 78 163.867 82.5333 154.133 88C142 94.6667 135.733 97.6 134.8 96.6667C134 95.8667 134 94.9333 134.8 94.1333C136.533 92.2667 171.733 72.6667 173.2 72.6667C173.867 72.6667 182.8 77.2 192.933 82.8ZM-611.333 82.1333L-598 90.1333V112.8V135.333H-606H-614V117.333V99.3333H-624.533C-632.133 99.3333 -635.2 99.8667 -635.733 101.2C-636.133 102.133 -636.4 108.933 -636.4 116.133C-636.267 137.2 -635.6 135.333 -644 135.333H-651.333L-651.067 112.4L-650.667 89.4667L-638 81.8667C-631.067 77.6 -625.2 74 -625.067 74C-624.933 74 -618.8 77.6 -611.333 82.1333ZM-503.733 81.8667L-485.333 89.7333L-484.933 112.667L-484.667 135.467L-488.933 135.067L-493.333 134.667L-493.733 115.6L-494.133 96.6667H-522.667H-551.333V116.133V135.467L-555.6 135.067L-560 134.667L-560.4 113.2C-560.667 97.0667 -560.267 91.3333 -559.067 90.4C-557.867 89.3333 -524.4 74.5333 -522.4 74C-522.4 74 -514 77.6 -503.733 81.8667ZM-55.3332 84.4L-70.6664 92L-111.6 92.4L-152.4 92.8L-150.533 86.4C-149.467 82.9333 -148.4 79.2 -148 78.2667C-147.6 77.0667 -135.6 76.6667 -93.7328 76.8L-39.9998 76.9333L-55.3332 84.4ZM-4.13318 86.6667L14.1335 95.2L13.7335 114.933L13.3335 134.667L9.06683 135.067L4.66681 135.467V120.133V104.667H-23.9998H-52.6664V120V135.333H-57.3332H-61.9998V114.933V94.5333L-44.2665 86.4C-34.6665 81.8667 -25.7331 78.1333 -24.3998 78.1333C-23.1998 78 -13.9999 81.8667 -4.13318 86.6667ZM195.733 92.2667L200.8 95.4667L200.4 115.067L200 134.667L191.733 135.067L183.467 135.467L183.067 120.4L182.667 105.333L173.733 104.933L164.8 104.533L164.4 119.6L164 134.667L155.733 135.067C148.4 135.467 147.333 135.2 147.333 133.067C147.2 129.467 147.2 98.9333 147.2 96.4C147.333 94.9333 152.133 91.4667 160.4 86.8L173.333 79.4667L182 84.2667C186.8 86.9333 192.933 90.5333 195.733 92.2667ZM90.4001 84.6667C90.9335 85.2 90.8002 87.2 90.0002 89.2C88.0002 94.6667 88.2669 95.3333 93.3336 95.3333H98.1335L97.7335 114.933L97.3336 134.667L87.4669 135.067L77.6002 135.467L78.4001 118.4C78.8001 109.067 79.8668 96.9333 80.8001 91.7333C82.4001 82.2667 82.4001 82 85.8668 82.8C87.7335 83.3333 89.8668 84.1333 90.4001 84.6667ZM-318.933 93.6C-324.267 93.8667 -333.067 93.8667 -338.267 93.6C-343.6 93.4667 -339.333 93.2 -328.667 93.2C-318 93.2 -313.733 93.4667 -318.933 93.6ZM-314.267 112.4L-313.867 128.667H-328.667H-343.333V112.8V96.8L-338.267 96.4C-335.6 96.1333 -329.067 96 -324 96.1333H-314.667L-314.267 112.4ZM-70.6664 96.6667C-70.2664 97.4667 -68.3998 97.6 -66.5331 97.2L-63.1999 96.4L-63.5999 115.467L-63.9998 134.667L-88.9329 135.067L-114 135.333V120V104.667H-123.333H-132.667V120V135.333H-140H-147.333V115.333V95.3333H-109.467C-85.4669 95.3333 -71.1998 95.8667 -70.6664 96.6667ZM133.067 98.1333C134.933 100.667 135.333 100.8 139.067 98.8C141.333 97.6 143.467 96.6667 144 96.6667C144.4 96.6667 144.667 105.333 144.667 116V135.333H122H99.3336V115.333V95.3333H115.2C129.867 95.3333 131.333 95.6 133.067 98.1333ZM247.333 115.333V135.333H224.667H202V116C202 105.333 202.267 96.6667 202.667 96.6667C203.2 96.6667 205.333 97.6 207.733 98.8C211.733 100.933 212 100.933 213.733 98.1333C215.467 95.6 216.8 95.3333 231.467 95.3333H247.333V115.333ZM288.4 116.533C288.667 134.133 288.533 135.467 286.4 135.067C284.267 134.667 284 132.667 283.6 117.333C283.2 99.1999 283.6 96.1333 286.4 96.9333C287.6 97.3333 288.133 102.8 288.4 116.533ZM299.333 116C299.333 132.267 299.067 135.333 297.333 135.333C295.6 135.333 295.333 132.267 295.333 116C295.333 99.7333 295.6 96.6667 297.333 96.6667C299.067 96.6667 299.333 99.7333 299.333 116ZM310.667 116.133C310.667 132.667 310.4 134.667 308.4 135.067C306.267 135.467 306 133.867 306 116.933C306 106.8 306.4 98 306.933 97.4667C309.867 94.6667 310.667 98.6667 310.667 116.133ZM321.733 116.533C322 134.133 321.867 135.467 319.733 135.067C317.6 134.667 317.333 132.667 316.933 118.667C316.533 101.333 317.2 96.1333 319.733 97.0667C320.8 97.3333 321.467 103.067 321.733 116.533ZM332.667 116C332.667 132.267 332.4 135.333 330.667 135.333C328.933 135.333 328.667 132.267 328.667 116C328.667 99.7333 328.933 96.6667 330.667 96.6667C332.4 96.6667 332.667 99.7333 332.667 116ZM344 116.133C344 132.667 343.733 134.667 341.733 135.067C339.6 135.467 339.333 133.867 339.333 116.933C339.333 106.8 339.733 98 340.267 97.4667C343.2 94.6667 344 98.6667 344 116.133ZM490 116C490 132.267 489.733 135.333 488 135.333C486.267 135.333 486 132.267 486 116C486 99.7333 486.267 96.6667 488 96.6667C489.733 96.6667 490 99.7333 490 116ZM500.667 116C500.667 132.267 500.4 135.333 498.667 135.333C496.933 135.333 496.667 132.4 496.667 116.933C496.667 106.8 497.067 98 497.6 97.6C500.133 95.0667 500.667 98.2667 500.667 116ZM512.4 116.533C512.667 134.133 512.533 135.467 510.4 135.067C508.267 134.667 508 132.667 507.6 117.333C507.2 99.1999 507.6 96.1333 510.4 96.9333C511.6 97.3333 512.133 102.8 512.4 116.533ZM523.333 116C523.333 132.267 523.067 135.333 521.333 135.333C519.6 135.333 519.333 132.267 519.333 116C519.333 99.7333 519.6 96.6667 521.333 96.6667C523.067 96.6667 523.333 99.7333 523.333 116ZM534 116C534 132.267 533.733 135.333 532 135.333C530.267 135.333 530 132.4 530 116.933C530 106.8 530.4 98 530.933 97.6C533.467 95.0667 534 98.2667 534 116ZM545.733 116.533C546 134.133 545.867 135.467 543.733 135.067C541.6 134.667 541.333 132.667 540.933 117.333C540.533 99.1999 540.933 96.1333 543.733 96.9333C544.933 97.3333 545.467 102.8 545.733 116.533ZM-495.333 99.3333C-495.333 100.133 -505.067 100.667 -522 100.667C-538.933 100.667 -548.667 100.133 -548.667 99.3333C-548.667 98.5333 -538.933 98 -522 98C-505.067 98 -495.333 98.5333 -495.333 99.3333ZM-450 116.667C-450 128.267 -450.533 135.333 -451.333 135.333C-452.133 135.333 -452.667 128.267 -452.667 116.667C-452.667 105.067 -452.133 98 -451.333 98C-450.533 98 -450 105.067 -450 116.667ZM-444 116.667C-444 129.733 -444.4 134.533 -445.6 134.933C-446.933 135.467 -447.333 131.2 -447.333 116.667C-447.333 102.133 -446.933 97.8667 -445.6 98.2667C-444.4 98.8 -444 103.6 -444 116.667ZM-438 116.667C-438 132.4 -438.267 135.333 -440 135.333C-441.733 135.333 -442 132.4 -442 116.667C-442 100.933 -441.733 98 -440 98C-438.267 98 -438 100.933 -438 116.667ZM-432.667 116.8C-432.667 131.2 -433.067 135.467 -434.267 135.067C-435.467 134.667 -436.133 129.733 -436.4 118C-436.8 101.067 -436.4 98 -434 98C-433.2 98 -432.667 104.8 -432.667 116.8ZM-427.333 116.667C-427.333 128.267 -427.867 135.333 -428.667 135.333C-429.467 135.333 -430 128.267 -430 116.667C-430 105.067 -429.467 98 -428.667 98C-427.867 98 -427.333 105.067 -427.333 116.667ZM-422 116.667C-422 128.267 -422.533 135.333 -423.333 135.333C-424.133 135.333 -424.667 128.267 -424.667 116.667C-424.667 105.067 -424.133 98 -423.333 98C-422.533 98 -422 105.067 -422 116.667ZM-416.667 116.667C-416.667 128.267 -417.2 135.333 -418 135.333C-418.8 135.333 -419.333 128.267 -419.333 116.667C-419.333 105.067 -418.8 98 -418 98C-417.2 98 -416.667 105.067 -416.667 116.667ZM-410.667 116.667C-410.667 129.733 -411.067 134.533 -412.267 134.933C-413.6 135.467 -414 131.2 -414 116.667C-414 102.133 -413.6 97.8667 -412.267 98.2667C-411.067 98.8 -410.667 103.6 -410.667 116.667ZM-404.667 116.667C-404.667 132.4 -404.933 135.333 -406.667 135.333C-408.4 135.333 -408.667 132.4 -408.667 116.667C-408.667 100.933 -408.4 98 -406.667 98C-404.933 98 -404.667 100.933 -404.667 116.667ZM-399.333 116.8C-399.333 131.2 -399.733 135.467 -400.933 135.067C-402.133 134.667 -402.8 129.733 -403.067 118C-403.467 101.067 -403.067 98 -400.667 98C-399.867 98 -399.333 104.8 -399.333 116.8ZM-252.667 116.8C-252.667 131.2 -253.067 135.467 -254.267 135.067C-255.467 134.667 -256.133 129.733 -256.4 118C-256.8 101.067 -256.4 98 -254 98C-253.2 98 -252.667 104.8 -252.667 116.8ZM-247.333 116.667C-247.333 128.267 -247.867 135.333 -248.667 135.333C-249.467 135.333 -250 128.267 -250 116.667C-250 105.067 -249.467 98 -248.667 98C-247.867 98 -247.333 105.067 -247.333 116.667ZM-242 116.667C-242 128.267 -242.533 135.333 -243.333 135.333C-244.133 135.333 -244.667 128.267 -244.667 116.667C-244.667 105.067 -244.133 98 -243.333 98C-242.533 98 -242 105.067 -242 116.667ZM-236.667 116.667C-236.667 128.267 -237.2 135.333 -238 135.333C-238.8 135.333 -239.333 128.267 -239.333 116.667C-239.333 105.067 -238.8 98 -238 98C-237.2 98 -236.667 105.067 -236.667 116.667ZM-230.667 116.667C-230.667 129.733 -231.067 134.533 -232.267 134.933C-233.6 135.467 -234 131.2 -234 116.667C-234 102.133 -233.6 97.8667 -232.267 98.2667C-231.067 98.8 -230.667 103.6 -230.667 116.667ZM-224.667 116.667C-224.667 132.4 -224.933 135.333 -226.667 135.333C-228.4 135.333 -228.667 132.4 -228.667 116.667C-228.667 100.933 -228.4 98 -226.667 98C-224.933 98 -224.667 100.933 -224.667 116.667ZM-219.333 116.8C-219.333 131.2 -219.733 135.467 -220.933 135.067C-222.133 134.667 -222.8 129.733 -223.067 118C-223.467 101.067 -223.067 98 -220.667 98C-219.867 98 -219.333 104.8 -219.333 116.8ZM-214 116.667C-214 128.267 -214.533 135.333 -215.333 135.333C-216.133 135.333 -216.667 128.267 -216.667 116.667C-216.667 105.067 -216.133 98 -215.333 98C-214.533 98 -214 105.067 -214 116.667ZM-208.667 116.667C-208.667 128.267 -209.2 135.333 -210 135.333C-210.8 135.333 -211.333 128.267 -211.333 116.667C-211.333 105.067 -210.8 98 -210 98C-209.2 98 -208.667 105.067 -208.667 116.667ZM-203.333 116.667C-203.333 128.267 -203.867 135.333 -204.667 135.333C-205.467 135.333 -206 128.267 -206 116.667C-206 105.067 -205.467 98 -204.667 98C-203.867 98 -203.333 105.067 -203.333 116.667ZM472 113.333V126.667L465.067 127.067L458 127.467V113.467V99.4667L465.067 99.7333L472 100V113.333ZM-616 118V134.667L-624.933 135.067L-634 135.467V118V100.533L-624.933 100.933L-616 101.333V118ZM-496 103.333C-496.533 104.133 -506.933 104.667 -522.8 104.667C-539.2 104.667 -548.667 104.133 -548.667 103.333C-548.667 102.533 -538.8 102 -521.867 102C-504.4 102 -495.467 102.4 -496 103.333ZM-508.267 106.933C-515.867 107.2 -528.133 107.2 -535.6 106.933C-543.2 106.8 -537.067 106.533 -522 106.533C-506.933 106.533 -500.8 106.8 -508.267 106.933ZM-116.667 120.667V135.333H-123.2H-129.867L-130.267 124.267C-130.933 106 -130.933 106 -123.2 106H-116.667V120.667ZM2.00024 120.667V135.333H-24.6664H-51.3332V121.6C-51.3332 114 -50.9331 107.333 -50.3998 106.933C-49.9998 106.4 -37.9998 106 -23.7332 106H2.00024V120.667ZM180.667 121.333V135.333H173.333H166V121.333V107.333H173.333H180.667V121.333ZM-508.267 110.933C-515.867 111.2 -528.133 111.2 -535.6 110.933C-543.2 110.8 -537.067 110.533 -522 110.533C-506.933 110.533 -500.8 110.8 -508.267 110.933ZM292.667 117.333C292.667 121.333 292.133 124.667 291.333 124.667C289.867 124.667 289.467 112.267 290.933 110.933C292.533 109.333 292.667 109.867 292.667 117.333ZM304.667 117.333C304.667 121.333 304.133 124.667 303.333 124.667C302.667 124.667 302 121.333 302 117.333C302 113.333 302.667 110 303.333 110C304.133 110 304.667 113.333 304.667 117.333ZM315.333 117.333C315.333 121.333 314.8 124.667 314 124.667C313.333 124.667 312.667 121.333 312.667 117.333C312.667 113.333 313.333 110 314 110C314.8 110 315.333 113.333 315.333 117.333ZM326 117.333C326 121.333 325.467 124.667 324.667 124.667C323.2 124.667 322.8 112.267 324.267 110.933C325.867 109.333 326 109.867 326 117.333ZM338 117.333C338 121.333 337.467 124.667 336.667 124.667C336 124.667 335.333 121.333 335.333 117.333C335.333 113.333 336 110 336.667 110C337.467 110 338 113.333 338 117.333ZM348.667 117.333C348.667 121.333 348.133 124.667 347.333 124.667C346.667 124.667 346 121.333 346 117.333C346 113.333 346.667 110 347.333 110C348.133 110 348.667 113.333 348.667 117.333ZM483.333 117.333C483.333 121.333 482.8 124.667 482 124.667C481.333 124.667 480.667 121.333 480.667 117.333C480.667 113.333 481.333 110 482 110C482.8 110 483.333 113.333 483.333 117.333ZM493.6 120.933C493.333 123.333 493.067 121.733 493.067 117.333C493.067 112.933 493.333 110.933 493.6 112.933C493.867 114.933 493.867 118.533 493.6 120.933ZM506 117.333C506 121.333 505.467 124.667 504.667 124.667C504 124.667 503.333 121.333 503.333 117.333C503.333 113.333 504 110 504.667 110C505.467 110 506 113.333 506 117.333ZM516.667 117.333C516.667 121.333 516.133 124.667 515.333 124.667C514.667 124.667 514 121.333 514 117.333C514 113.333 514.667 110 515.333 110C516.133 110 516.667 113.333 516.667 117.333ZM526.933 120.933C526.667 123.333 526.4 121.733 526.4 117.333C526.4 112.933 526.667 110.933 526.933 112.933C527.2 114.933 527.2 118.533 526.933 120.933ZM539.333 117.333C539.333 121.333 538.8 124.667 538 124.667C537.333 124.667 536.667 121.333 536.667 117.333C536.667 113.333 537.333 110 538 110C538.8 110 539.333 113.333 539.333 117.333ZM-508.267 114.933C-515.867 115.2 -528.133 115.2 -535.6 114.933C-543.2 114.8 -537.067 114.533 -522 114.533C-506.933 114.533 -500.8 114.8 -508.267 114.933ZM-694.133 121.467C-690.8 124.267 -690 125.867 -690 130.133V135.333H-711.333H-732.667V131.467C-732.667 125.467 -726.8 119.333 -721.067 119.333C-718.533 119.333 -715.333 119.867 -714 120.667C-712.267 121.6 -710.533 121.333 -707.733 120C-702.4 117.2 -698.8 117.467 -694.133 121.467ZM-508.267 118.933C-515.867 119.2 -528.133 119.2 -535.6 118.933C-543.2 118.8 -537.067 118.533 -522 118.533C-506.933 118.533 -500.8 118.8 -508.267 118.933ZM-508.267 122.933C-515.867 123.2 -528.133 123.2 -535.6 122.933C-543.2 122.8 -537.067 122.533 -522 122.533C-506.933 122.533 -500.8 122.8 -508.267 122.933ZM-508.267 126.933C-515.867 127.2 -528.133 127.2 -535.6 126.933C-543.2 126.8 -537.067 126.533 -522 126.533C-506.933 126.533 -500.8 126.8 -508.267 126.933ZM-496 130C-495.467 130.933 -504.4 131.333 -521.867 131.333C-538.8 131.333 -548.667 130.8 -548.667 130C-548.667 129.2 -539.2 128.667 -522.8 128.667C-506.933 128.667 -496.533 129.2 -496 130ZM474 130C474 130.8 470 131.333 464.667 131.333C459.333 131.333 455.333 130.8 455.333 130C455.333 129.2 459.333 128.667 464.667 128.667C470 128.667 474 129.2 474 130ZM-319.6 130.933C-324.667 131.2 -332.667 131.2 -337.6 130.933C-342.667 130.667 -338.533 130.533 -328.667 130.533C-318.8 130.533 -314.667 130.667 -319.6 130.933ZM292.667 132.933C292.667 135.067 292.267 135.467 291.2 134.4C290.4 133.6 290.133 132.267 290.533 131.467C292 129.2 292.667 129.733 292.667 132.933ZM303.6 134.267C302.4 135.467 302 135.2 302 132.667C302 130.133 302.4 129.867 303.6 131.067C304.8 132.267 304.8 133.067 303.6 134.267ZM315.333 132.667C315.333 134.133 314.8 135.333 314 135.333C313.333 135.333 312.667 134.133 312.667 132.667C312.667 131.2 313.333 130 314 130C314.8 130 315.333 131.2 315.333 132.667ZM326 132.933C326 135.067 325.6 135.467 324.533 134.4C323.733 133.6 323.467 132.267 323.867 131.467C325.333 129.2 326 129.733 326 132.933ZM336.933 134.267C335.733 135.467 335.333 135.2 335.333 132.667C335.333 130.133 335.733 129.867 336.933 131.067C338.133 132.267 338.133 133.067 336.933 134.267ZM348.667 132.667C348.667 134.133 348.133 135.333 347.333 135.333C346.667 135.333 346 134.133 346 132.667C346 131.2 346.667 130 347.333 130C348.133 130 348.667 131.2 348.667 132.667ZM483.333 132.933C483.333 135.067 482.933 135.467 481.867 134.4C481.067 133.6 480.8 132.267 481.2 131.467C482.667 129.2 483.333 129.733 483.333 132.933ZM493.6 134.267C493.2 135.2 492.933 134.533 492.933 132.667C492.933 130.8 493.2 130.133 493.6 130.933C493.867 131.867 493.867 133.467 493.6 134.267ZM506 132.667C506 134.133 505.467 135.333 504.667 135.333C504 135.333 503.333 134.133 503.333 132.667C503.333 131.2 504 130 504.667 130C505.467 130 506 131.2 506 132.667ZM516.667 132.933C516.667 135.067 516.267 135.467 515.2 134.4C514.4 133.6 514.133 132.267 514.533 131.467C516 129.2 516.667 129.733 516.667 132.933ZM526.933 134.267C526.533 135.2 526.267 134.533 526.267 132.667C526.267 130.8 526.533 130.133 526.933 130.933C527.2 131.867 527.2 133.467 526.933 134.267ZM539.333 132.667C539.333 134.133 538.8 135.333 538 135.333C537.333 135.333 536.667 134.133 536.667 132.667C536.667 131.2 537.333 130 538 130C538.8 130 539.333 131.2 539.333 132.667ZM-495.333 134C-495.333 134.8 -505.067 135.333 -522 135.333C-538.933 135.333 -548.667 134.8 -548.667 134C-548.667 133.2 -538.933 132.667 -522 132.667C-505.067 132.667 -495.333 133.2 -495.333 134ZM476 134C476.533 134.8 472.667 135.333 465.467 135.333C458.667 135.333 454 134.8 454 134C454 133.2 458.4 132.667 464.533 132.667C470.4 132.667 475.6 133.2 476 134ZM-317.6 134.933C-322.933 135.2 -331.867 135.2 -337.6 134.933C-343.333 134.8 -338.933 134.533 -328 134.533C-316.933 134.533 -312.267 134.8 -317.6 134.933Z" fill="#8C8C8C"/>
<path d="M115.067 58.8C107.067 63.7334 105.867 65.8667 109.334 68.6667C110.667 69.7334 111.334 72.8 111.334 78.1334V86L116 86.1334C118.534 86.1334 123.467 86.2667 127.067 86.2667L133.333 86.4L133.733 78.6667C134 73.3334 134.933 70.2667 136.8 68.2667C140.533 64.1334 141.2 64.9334 128.667 57.6L122.667 54.1334L115.067 58.8ZM130 60.8C138.267 65.8667 137.467 68.6667 129.067 63.7334L122.933 60.1334L116.534 63.8667C112.134 66.2667 110 66.9334 110 65.7334C110 64.4 120.667 56.9334 122.933 56.6667C123.2 56.6667 126.267 58.5334 130 60.8ZM131.067 76L131.467 84.6667H122.667H114V76.1334C114 67.8667 114.134 67.4667 118.4 64.9334C122.533 62.4 122.8 62.4 126.667 64.8C130.4 67.0667 130.667 67.8667 131.067 76Z" fill="#5A5A59"/>
<path d="M106.933 105.6C106.4 106 106 111.2 106 116.933V127.333H112.667H119.333V116V104.667H113.6C110.4 104.667 107.333 105.067 106.933 105.6ZM118 116V124.667H113.333H108.667V116V107.333H113.333H118V116Z" fill="#5A5A59"/>
</g>
</g>
<path d="M111.188 45.6031C112.038 46.0529 112.737 47.4009 112.897 48.3225C113.14 49.7151 114.656 51.0226 115.763 51.7324C117.033 52.5463 118.213 53.4611 119.432 54.3049C120.547 55.0766 120.962 56.0764 120.814 57.4127C120.746 58.0212 120.147 58.4808 119.89 59.0184C119.566 59.6968 118.781 60.0823 118.336 60.6759C117.865 61.3044 117.136 61.6959 116.782 62.4197C116.532 62.9303 115.964 63.5427 115.53 63.9218C115.361 64.0701 115.209 64.0658 115.004 64.1031C114.758 64.1478 114.598 64.4984 114.417 64.6469C113.903 65.067 113.383 65.6514 112.751 65.8728C111.884 66.1762 110.813 68.195 110.731 69.1446C110.695 69.5512 110.722 69.9712 110.722 70.3791C110.722 70.8089 110.427 71.1289 110.411 71.5877C110.371 72.7654 108.55 73.7028 107.7 74.2638C106.508 75.0518 105.321 75.4645 103.971 75.904C103.384 76.0952 102.846 76.0255 102.331 76.1285C101.485 76.2978 100.525 78.3284 99.9656 78.9082C99.4586 79.434 98.105 80.1813 97.393 80.2549C96.4422 80.3533 95.723 81.3107 94.9759 81.8088C93.6229 82.7108 92.4201 83.8289 90.6768 83.8289" stroke="#8C8C8C" stroke-width="3" stroke-linecap="round"/>
<defs>
<clipPath id="clip0_335_177">
<rect width="98" height="128" fill="white" transform="translate(21 6)"/>
</clipPath>
</defs>
</svg>
